<svg width="40" height="40" viewBox="0 0 40 40" fill="none" xmlns="http://www.w3.org/2000/svg">
<rect width="40" height="40" rx="20" fill="white"/>
<path d="M20 12.6265C22.3855 12.6265 22.7108 12.6265 23.6867 12.6265C24.5542 12.6265 24.988 12.8434 25.3133 12.9518C25.747 13.1687 26.0723 13.2771 26.3976 13.6024C26.7229 13.9277 26.9398 14.253 27.0482 14.6867C27.1566 15.012 27.2651 15.4458 27.3735 16.3133C27.3735 17.2892 27.3735 17.506 27.3735 20C27.3735 22.494 27.3735 22.7108 27.3735 23.6867C27.3735 24.5542 27.1566 24.988 27.0482 25.3133C26.8313 25.747 26.7229 26.0723 26.3976 26.3976C26.0723 26.7229 25.747 26.9398 25.3133 27.0482C24.988 27.1566 24.5542 27.2651 23.6867 27.3735C22.7108 27.3735 22.494 27.3735 20 27.3735C17.506 27.3735 17.2892 27.3735 16.3133 27.3735C15.4458 27.3735 15.012 27.1566 14.6867 27.0482C14.253 26.8313 13.9277 26.7229 13.6024 26.3976C13.2771 26.0723 13.0602 25.747 12.9518 25.3133C12.8434 24.988 12.7349 24.5542 12.6265 23.6867C12.6265 22.7108 12.6265 22.494 12.6265 20C12.6265 17.506 12.6265 17.2892 12.6265 16.3133C12.6265 15.4458 12.8434 15.012 12.9518 14.6867C13.1687 14.253 13.2771 13.9277 13.6024 13.6024C13.9277 13.2771 14.253 13.0602 14.6867 12.9518C15.012 12.8434 15.4458 12.7349 16.3133 12.6265C17.2892 12.6265 17.6145 12.6265 20 12.6265ZM20 11C17.506 11 17.2892 11 16.3133 11C15.3374 11 14.6867 11.2169 14.1446 11.4337C13.6024 11.6506 13.0602 11.9759 12.5181 12.5181C11.9759 13.0602 11.759 13.494 11.4337 14.1446C11.2169 14.6867 11.1084 15.3374 11 16.3133C11 17.2892 11 17.6145 11 20C11 22.494 11 22.7108 11 23.6867C11 24.6627 11.2169 25.3133 11.4337 25.8554C11.6506 26.3976 11.9759 26.9398 12.5181 27.4819C13.0602 28.0241 13.494 28.241 14.1446 28.5663C14.6867 28.7831 15.3374 28.8916 16.3133 29C17.2892 29 17.6145 29 20 29C22.3855 29 22.7108 29 23.6867 29C24.6627 29 25.3133 28.7831 25.8554 28.5663C26.3976 28.3494 26.9398 28.0241 27.4819 27.4819C28.0241 26.9398 28.241 26.506 28.5663 25.8554C28.7831 25.3133 28.8916 24.6627 29 23.6867C29 22.7108 29 22.3855 29 20C29 17.6145 29 17.2892 29 16.3133C29 15.3374 28.7831 14.6867 28.5663 14.1446C28.3494 13.6024 28.0241 13.0602 27.4819 12.5181C26.9398 11.9759 26.506 11.759 25.8554 11.4337C25.3133 11.2169 24.6627 11.1084 23.6867 11C22.7108 11 22.494 11 20 11Z" fill="#439B92"/>
<path d="M20 15.3373C17.3976 15.3373 15.3373 17.3976 15.3373 20C15.3373 22.6024 17.3976 24.6627 20 24.6627C22.6024 24.6627 24.6627 22.6024 24.6627 20C24.6627 17.3976 22.6024 15.3373 20 15.3373ZM20 23.0361C18.3735 23.0361 16.9639 21.7349 16.9639 20C16.9639 18.3735 18.2651 16.9639 20 16.9639C21.6265 16.9639 23.0361 18.2651 23.0361 20C23.0361 21.6265 21.6265 23.0361 20 23.0361Z" fill="#439B92"/>
<path d="M24.7711 16.3133C25.3699 16.3133 25.8554 15.8278 25.8554 15.2289C25.8554 14.6301 25.3699 14.1446 24.7711 14.1446C24.1722 14.1446 23.6867 14.6301 23.6867 15.2289C23.6867 15.8278 24.1722 16.3133 24.7711 16.3133Z" fill="#439B92"/>
</svg>
