<svg width="40" height="40" viewBox="0 0 40 40" fill="none" xmlns="http://www.w3.org/2000/svg">
<rect width="40" height="40" rx="20" fill="white"/>
<path fill-rule="evenodd" clip-rule="evenodd" d="M12.9377 14H10.7502C10.125 14 10 14.2971 10 14.6255C10 15.2106 10.7412 18.1149 13.4539 21.9549C15.2613 24.5782 17.809 26 20.1266 26C21.5179 26 21.69 25.6837 21.69 25.1411V23.1584C21.69 22.5268 21.822 22.4005 22.2621 22.4005C22.5872 22.4005 23.1423 22.5642 24.4417 23.8284C25.925 25.328 26.1691 26 27.0033 26H29.1919C29.817 26 30.1301 25.6837 29.9491 25.0602C29.752 24.4397 29.0438 23.5384 28.1036 22.4702C27.5935 21.8619 26.8293 21.2061 26.5972 20.8776C26.2721 20.4563 26.3652 20.2693 26.5972 19.8944C26.5972 19.8944 29.2629 16.1009 29.541 14.8125C29.681 14.3446 29.541 14 28.8788 14H26.6912C26.1351 14 25.878 14.2971 25.739 14.6255C25.739 14.6255 24.6267 17.3651 23.0503 19.1446C22.5402 19.66 22.3081 19.8247 22.0301 19.8247C21.891 19.8247 21.69 19.66 21.69 19.1921V14.8125C21.69 14.2506 21.5289 14 21.0648 14H17.6259C17.2788 14 17.0698 14.2607 17.0698 14.5083C17.0698 15.0408 17.858 15.1641 17.939 16.6627V19.9176C17.939 20.6321 17.812 20.7614 17.5329 20.7614C16.7917 20.7614 14.9873 18.0088 13.917 14.86C13.7069 14.2476 13.4969 14 12.9377 14Z" fill="#439B92"/>
</svg>
