<svg width="403" height="401" viewBox="0 0 403 401" fill="none" xmlns="http://www.w3.org/2000/svg">
<g clip-path="url(#clip0_101_156)">
<path d="M217.459 396.474C296.035 396.474 359.733 392.684 359.733 388.009C359.733 383.334 296.035 379.544 217.459 379.544C138.884 379.544 75.1855 383.334 75.1855 388.009C75.1855 392.684 138.884 396.474 217.459 396.474Z" fill="#433747" stroke="#433747" stroke-width="2.21128" stroke-linecap="round" stroke-linejoin="round"/>
<path d="M1.10547 345.509H395.598" stroke="#433747" stroke-width="2.21128" stroke-linecap="round" stroke-linejoin="round"/>
<path d="M74.4132 295.321L68.6461 299.974L72.2019 306.475L65.0904 308.553L65.8776 315.913L58.5185 315.125L56.431 322.237L49.9387 318.69L45.2861 324.448L40.6336 318.69L34.1413 322.237L32.0538 315.125L24.6947 315.913L25.4819 308.553L18.3704 306.475L21.9261 299.974L16.168 295.321L21.9261 290.669L18.3793 284.176L25.4819 282.089L24.6947 274.73L32.0538 275.517L34.1413 268.414L40.6336 271.961L45.2861 266.203L49.9387 271.961L56.4399 268.414L58.5185 275.517L65.8776 274.73L65.0904 282.098L72.2019 284.176L68.6461 290.669L74.4132 295.321Z" stroke="#FEFDFE" stroke-width="2.21128" stroke-linecap="round" stroke-linejoin="round"/>
<path d="M43.9594 306.899C42.9068 306.899 41.8896 306.484 41.1466 305.732L31.9742 296.559C30.4175 295.003 30.4175 292.482 31.9742 290.934C33.5309 289.377 36.0518 289.377 37.5997 290.934L43.579 296.913L52.6276 285.282C53.9809 283.548 56.4752 283.23 58.2089 284.583C59.9425 285.936 60.2521 288.431 58.9076 290.173L47.0905 305.36C46.3918 306.263 45.3392 306.82 44.1982 306.891C44.1186 306.891 44.0301 306.891 43.9505 306.891L43.9594 306.899Z" stroke="#FEFDFE" stroke-width="2.21128" stroke-linecap="round" stroke-linejoin="round"/>
<path d="M367.688 184.176C370.673 175.511 366.069 166.067 357.405 163.082C348.74 160.097 339.296 164.701 336.311 173.365C333.326 182.03 337.93 191.474 346.595 194.459C355.259 197.444 364.703 192.84 367.688 184.176Z" fill="#FBE885" stroke="#433747" stroke-width="2.21128" stroke-linecap="round" stroke-linejoin="round"/>
<path d="M356.388 178.778C356.388 181.201 354.424 183.165 352 183.165C349.577 183.165 347.613 181.201 347.613 178.778C347.613 176.354 349.577 174.391 352 174.391C354.424 174.391 356.388 176.354 356.388 178.778Z" fill="#FBE885" stroke="#433747" stroke-width="2.21128" stroke-linecap="round" stroke-linejoin="round"/>
<path d="M356.387 170.348H347.621C345.384 170.348 343.57 172.162 343.57 174.399V183.165C343.57 185.402 345.384 187.216 347.621 187.216H356.387C358.624 187.216 360.438 185.402 360.438 183.165V174.399C360.438 172.162 358.624 170.348 356.387 170.348Z" stroke="#433747" stroke-width="2.21128" stroke-linecap="round" stroke-linejoin="round"/>
<path d="M57.7098 163.787C64.19 157.306 64.19 146.8 57.7098 140.32C51.2297 133.84 40.7233 133.84 34.2431 140.32C27.763 146.8 27.763 157.306 34.2431 163.787C40.7233 170.267 51.2297 170.267 57.7098 163.787Z" fill="#FEFDFE" stroke="#433747" stroke-width="2.21128" stroke-linecap="round" stroke-linejoin="round"/>
<path d="M46.0505 149.704C46.0505 147.873 47.1208 146.926 49.164 146.873V144.176C49.164 144.176 49.1552 144.176 49.1463 144.176C45.2102 144.176 42.8928 146.219 42.8928 149.73V150.588H41.4688V153.136H42.8928V161.539H46.0505V153.136H46.2982V153.091H48.5449V150.553H46.0505V149.713V149.704Z" fill="#433747"/>
<path d="M40.9038 97.2333C43.0603 88.3263 37.5879 79.3576 28.6809 77.2011C19.774 75.0446 10.8052 80.517 8.64878 89.424C6.49231 98.331 11.9647 107.3 20.8717 109.456C29.7786 111.613 38.7473 106.14 40.9038 97.2333Z" fill="#FBE885" stroke="#433747" stroke-width="2.21128" stroke-linecap="round" stroke-linejoin="round"/>
<path d="M18.0274 87.1952C18.0274 87.1952 18.965 90.0168 21.3267 90.8659C23.6795 91.715 24.6259 90.8659 24.6259 90.8659C24.6259 90.8659 25.5635 87.3809 27.5448 87.1952C29.5261 87.0094 30.844 88.1328 30.844 88.1328L32.3477 88.4158L31.1271 90.2025C31.1271 90.2025 31.1271 93.5018 29.8091 95.5715C28.4912 97.6413 26.4215 99.1538 23.9714 99.4368C21.5213 99.7199 17.3817 98.2162 17.3817 98.2162L21.0525 96.7125C21.0525 96.7125 19.2392 96.4118 18.3459 95.4211C17.1429 94.1032 17.2137 93.4133 17.2137 93.4133L18.9827 93.3248C18.9827 93.3248 17.479 92.3784 17.3817 90.4944C17.2844 88.6104 18.0451 87.1952 18.0451 87.1952H18.0274Z" fill="white"/>
<path d="M291.555 23.1742H132.378C119.159 23.1742 108.443 33.8902 108.443 47.1091V363.473C108.443 376.692 119.159 387.408 132.378 387.408H291.555C304.774 387.408 315.49 376.692 315.49 363.473V47.1091C315.49 33.8902 304.774 23.1742 291.555 23.1742Z" fill="#FEFDFE" stroke="#433747" stroke-width="2.21128" stroke-linecap="round" stroke-linejoin="round"/>
<path d="M290.432 30.2415H238.502L233.398 41.634H190.544L185.44 30.2415H133.51C124.188 30.2415 116.625 37.804 116.625 47.1268V363.455C116.625 372.778 124.188 380.341 133.51 380.341H290.441C299.763 380.341 307.326 372.778 307.326 363.455V47.1268C307.326 37.804 299.763 30.2415 290.441 30.2415H290.432Z" fill="white" stroke="#433747" stroke-width="2.21128" stroke-linecap="round" stroke-linejoin="round"/>
<path d="M254.767 4.20129H180.14C178.38 4.20129 176.947 5.6342 176.947 7.39439V58.6431C176.947 60.4033 178.38 61.8362 180.14 61.8362H207.003L216.538 78.35C216.945 79.0576 217.971 79.0576 218.387 78.35L227.922 61.8362H254.784C256.545 61.8362 257.978 60.4033 257.978 58.6431V7.39439C257.978 5.6342 256.545 4.20129 254.784 4.20129H254.767Z" fill="white" stroke="#433747" stroke-width="2.21128" stroke-linecap="round" stroke-linejoin="round"/>
<path d="M234.838 35.2212H200.068C198.334 35.2212 196.928 33.8148 196.928 32.0812C196.928 30.3475 198.334 28.9412 200.068 28.9412H234.838C236.572 28.9412 237.978 30.3475 237.978 32.0812C237.978 33.8148 236.572 35.2212 234.838 35.2212Z" fill="#FBE885" stroke="#433747" stroke-width="2.21128" stroke-linecap="round" stroke-linejoin="round"/>
<path d="M199.537 35.2213L202.279 49.6477C202.5 51.346 203.942 52.6197 205.658 52.6197H229.248C230.964 52.6197 232.406 51.346 232.627 49.6477L235.369 35.2213H199.537ZM211.009 44.9156C211.009 45.8797 210.222 46.6669 209.258 46.6669C208.294 46.6669 207.507 45.8797 207.507 44.9156V42.9254C207.507 41.9613 208.294 41.1741 209.258 41.1741C210.222 41.1741 211.009 41.9613 211.009 42.9254V44.9156ZM219.2 44.9156C219.2 45.8797 218.413 46.6669 217.448 46.6669C216.484 46.6669 215.697 45.8797 215.697 44.9156V42.9254C215.697 41.9613 216.484 41.1741 217.448 41.1741C218.413 41.1741 219.2 41.9613 219.2 42.9254V44.9156ZM227.39 44.9156C227.39 45.8797 226.603 46.6669 225.639 46.6669C224.675 46.6669 223.888 45.8797 223.888 44.9156V42.9254C223.888 41.9613 224.675 41.1741 225.639 41.1741C226.603 41.1741 227.39 41.9613 227.39 42.9254V44.9156Z" fill="#FBE885" stroke="#433747" stroke-width="2.21128" stroke-linecap="round" stroke-linejoin="round"/>
<path d="M204.49 29.0473V28.5697C204.49 24.2709 207.983 20.7771 212.282 20.7771H222.613C226.912 20.7771 230.406 24.2709 230.406 28.5697V29.0473H233.528V28.5697C233.528 22.555 228.637 17.6548 222.613 17.6548H212.282C206.267 17.6548 201.367 22.5461 201.367 28.5697V29.0473H204.49Z" fill="#FBE885" stroke="#433747" stroke-width="2.21128" stroke-linecap="round" stroke-linejoin="round"/>
<path d="M202.997 24.0055C206.714 24.0055 209.728 20.9919 209.728 17.2744C209.728 13.5568 206.714 10.5432 202.997 10.5432C199.279 10.5432 196.266 13.5568 196.266 17.2744C196.266 20.9919 199.279 24.0055 202.997 24.0055Z" fill="white" stroke="#433747" stroke-width="2.21128" stroke-linecap="round" stroke-linejoin="round"/>
<path d="M204.11 13.9132V20.6355H202.553V15.1604H201.209V13.9132H204.11Z" fill="#433747"/>
<path d="M139.384 105.602C139.384 105.602 134.245 93.6878 128.814 93.219C123.383 92.7502 116.139 86.6382 105.649 107.513C102.978 112.829 123.392 128.856 125.382 129.068L130.477 122.656C135.457 118.888 141.427 111.679 139.375 105.602H139.384Z" fill="#FEFED6" stroke="#433747" stroke-width="2.21128" stroke-linecap="round" stroke-linejoin="round"/>
<path d="M131.034 83.8962L129.318 85.8775C129.318 85.8775 126.391 90.3089 126.382 90.3266L121.623 98.2695C120.942 99.4105 119.827 101.825 118.669 102.409L111.071 109.892C109.373 110.75 108.691 112.908 109.558 114.668L111.637 118.852C112.442 120.462 114.282 121.161 115.874 120.453L126.152 112.846C128.681 111.723 128.85 108.689 130.389 106.301L134.466 99.959C135.696 98.0484 137.748 96.8985 139.941 96.8985C141.799 96.8985 143.568 96.1025 144.859 94.6961L150.317 89.0087C150.626 88.6726 150.538 88.1153 150.14 87.903L143.081 87.2131C142.94 87.1335 142.772 87.1247 142.613 87.16L139.198 88.1242C139.021 88.1772 138.836 88.1419 138.685 88.0446L131.919 83.7016C131.627 83.5158 131.255 83.5866 131.052 83.8697L131.034 83.8962Z" fill="#433747" stroke="#433747" stroke-width="2.21128" stroke-linecap="round" stroke-linejoin="round"/>
<path d="M170.819 70.4162C166.087 67.9307 161.682 64.9145 157.693 61.4738C157.454 64.5961 155.499 69.6467 152.306 74.883C149.334 79.7566 146.009 83.6043 143.408 85.4352C146.168 86.6647 148.866 88.0711 151.466 89.6543L157.021 93.042C158.799 94.13 163.336 89.9462 167.149 83.6927C170.961 77.4481 172.606 71.4953 170.828 70.4073L170.819 70.4162Z" fill="#FBE885" stroke="#433747" stroke-width="2.21128" stroke-linecap="round" stroke-linejoin="round"/>
<path d="M157.571 56.0252C140.898 46.8174 135.856 38.105 127.25 20.972L126.295 19.0791C126.1 17.6285 125.605 16.5759 124.764 16.0364C120.607 13.3651 109.745 24.112 100.502 40.0509C91.259 55.9898 87.1549 71.0708 91.3121 73.742C91.9489 74.1489 92.745 74.2373 93.6649 74.0516L103.111 75.2988C116.07 77.0059 120.076 76.139 131.389 83.4009L138.899 88.2215C141.305 89.7694 147.443 83.8166 152.591 74.9273C157.748 66.0379 159.968 57.5731 157.562 56.0252H157.571Z" fill="white" stroke="#433747" stroke-width="2.21128" stroke-linecap="round" stroke-linejoin="round"/>
<path d="M115.583 49.7275C113.884 52.6641 112.124 55.4237 110.364 57.9534C102.563 69.1602 94.717 75.9179 91.3205 73.742C87.1633 71.0708 91.2763 55.981 100.511 40.0509C109.745 24.1208 120.616 13.3651 124.773 16.0364C128.205 18.2388 125.993 28.9237 119.908 41.5634C118.625 44.217 117.184 46.9501 115.583 49.7186V49.7275Z" fill="white" stroke="#433747" stroke-width="2.21128" stroke-linecap="round" stroke-linejoin="round"/>
<path d="M115.583 49.7275C113.885 52.664 112.124 55.4237 110.364 57.9534L105.137 52.4518L113.106 38.7064L119.908 41.5722C118.626 44.2258 117.184 46.9589 115.583 49.7275Z" fill="white" stroke="#433747" stroke-width="2.21128" stroke-linecap="round" stroke-linejoin="round"/>
<path d="M110.921 46.729C108.718 50.5236 106.136 53.0886 105.136 52.4518C104.145 51.8149 105.127 48.2238 107.33 44.4204C109.532 40.6259 112.115 38.0608 113.114 38.6976C114.114 39.3345 113.123 42.9256 110.921 46.7202V46.729Z" fill="white" stroke="#433747" stroke-width="2.21128" stroke-linecap="round" stroke-linejoin="round"/>
<path d="M163.035 73.5829L168.829 77.1121" stroke="#433747" stroke-width="2.21128" stroke-linecap="round" stroke-linejoin="round"/>
<path d="M155.783 85.4618L161.577 88.991" stroke="#433747" stroke-width="2.21128" stroke-linecap="round" stroke-linejoin="round"/>
<path d="M160.992 77.7666L166.786 81.3047" stroke="#433747" stroke-width="2.21128" stroke-linecap="round" stroke-linejoin="round"/>
<path d="M158.578 81.7291L164.372 85.2583" stroke="#433747" stroke-width="2.21128" stroke-linecap="round" stroke-linejoin="round"/>
<path d="M97.1763 35.5487L87.712 1.45959L78.1504 9.26985L97.1763 35.5487Z" fill="#FBE885"/>
<path d="M89.9137 45.1723L56.3906 49.2499L59.5041 36.9463L89.9137 45.1723Z" fill="#FBE885"/>
<path d="M81.3684 32.5856L52.9844 20.4501L60.1578 10.1897L81.3684 32.5856Z" fill="#FBE885"/>
<path d="M121.694 89.221C121.694 89.221 134.935 91.7861 131.707 96.9782C129.601 100.366 123.675 99.8705 123.675 99.8705C123.675 99.8705 126.293 102.329 124.507 104.753C122.64 107.283 118.306 107.212 118.306 107.212C118.306 107.212 120.341 114.27 112.645 113.465C109.541 113.138 107.303 112.148 105.835 111.219C103.959 110.034 102.916 107.707 103.552 105.514C103.915 104.275 104.782 103.108 106.684 102.657C107.108 102.551 105.357 97.8892 111.274 95.8106C112.088 95.5276 112.566 95.5099 112.628 94.7138C113.176 87.5935 121.685 89.221 121.685 89.221H121.694Z" fill="#FEFED6" stroke="#433747" stroke-width="2.21128" stroke-linecap="round" stroke-linejoin="round"/>
<path d="M112.025 95.9609C119.057 97.4292 123.745 99.4725 123.674 99.8616" stroke="#433747" stroke-width="2.21128" stroke-linecap="round" stroke-linejoin="round"/>
<path d="M106.693 102.657C112.982 103.966 118.449 106.434 118.307 107.212" stroke="#433747" stroke-width="2.21128" stroke-linecap="round" stroke-linejoin="round"/>
<path d="M131.707 96.9782C121.703 95.4834 122.348 92.0426 122.835 89.4598" stroke="#433747" stroke-width="2.21128" stroke-linecap="round" stroke-linejoin="round"/>
<path d="M117.996 110.847C109.071 109.485 109.619 106.566 110.035 104.364" stroke="#433747" stroke-width="2.21128" stroke-linecap="round" stroke-linejoin="round"/>
<path d="M139.738 109.211C139.738 109.211 136.359 86.5852 131.707 96.9783C127.885 105.505 128.814 110.839 128.814 110.839" fill="#FEFED6"/>
<path d="M139.738 109.211C139.738 109.211 136.359 86.5852 131.707 96.9783C127.885 105.505 128.814 110.839 128.814 110.839" stroke="#433747" stroke-width="2.21128" stroke-linecap="round" stroke-linejoin="round"/>
<path d="M206.978 268.238C206.978 268.238 232.231 292.509 241.085 284.274C249.939 276.039 257.113 260.79 257.113 260.79C257.113 260.79 236.698 245.515 229.489 238.536C222.28 231.566 218.884 228.01 218.884 228.01C218.884 228.01 214.479 242.719 210.87 248.221C207.261 253.723 203.768 259.552 203.768 259.552L206.987 268.229" fill="#433747"/>
<path d="M206.978 268.238C206.978 268.238 232.231 292.509 241.085 284.274C249.939 276.039 257.113 260.79 257.113 260.79C257.113 260.79 236.698 245.515 229.489 238.536C222.28 231.566 218.884 228.01 218.884 228.01C218.884 228.01 214.479 242.719 210.87 248.221C207.261 253.723 203.768 259.552 203.768 259.552L206.987 268.229" stroke="#433747" stroke-width="2.21128" stroke-linecap="round" stroke-linejoin="round"/>
<path d="M266.534 344.624L270.603 349.179C270.603 349.179 265.101 354.212 264.34 351.479C263.58 348.746 266.525 344.624 266.525 344.624" fill="#433747"/>
<path d="M266.534 344.624L270.603 349.179C270.603 349.179 265.101 354.212 264.34 351.479C263.58 348.746 266.525 344.624 266.525 344.624" stroke="#433747" stroke-width="2.21128" stroke-linecap="round" stroke-linejoin="round"/>
<path d="M179.107 380.792L181.469 373.344C181.469 373.344 190.332 380.022 189.872 382.694C189.518 384.772 179.107 380.792 179.107 380.792Z" fill="#433747" stroke="#433747" stroke-width="2.21128" stroke-linecap="round" stroke-linejoin="round"/>
<path d="M149.123 366.684L150.724 362.394C150.724 362.394 145.85 360.899 142.843 361.854C139.835 362.81 141.277 363.411 141.277 363.411L149.123 366.684Z" fill="#433747" stroke="#433747" stroke-width="2.21128" stroke-linecap="round" stroke-linejoin="round"/>
<path d="M260.439 340.272L273.115 354.469L296.864 328.093L283.295 314.1L260.439 340.272Z" fill="#FEFED6" stroke="#433747" stroke-width="2.21128" stroke-linecap="round" stroke-linejoin="round"/>
<path d="M296.864 328.093L273.115 354.469L274.716 384.525L310.415 332.383L296.864 328.093Z" fill="#FBE885" stroke="#433747" stroke-width="2.21128" stroke-linecap="round" stroke-linejoin="round"/>
<path d="M146.469 371.743L155.544 350.312L189.978 360.581L181.336 384.525L146.469 371.743Z" fill="#FEFED6" stroke="#433747" stroke-width="2.21128" stroke-linecap="round" stroke-linejoin="round"/>
<path d="M181.338 384.525L146.47 371.743L119.607 380.279L176.641 399.287L181.338 384.525Z" fill="#FBE885" stroke="#433747" stroke-width="2.21128" stroke-linecap="round" stroke-linejoin="round"/>
<path d="M212.056 297.665C212.056 297.665 212.763 300.009 212.931 304.405C221.37 313.463 231.78 324.961 264.339 352.293C264.127 351.108 264.481 349.48 265.33 347.649C229.958 317.762 224.227 310.102 212.047 297.665H212.056Z" fill="white"/>
<path d="M284.932 311.623C282.526 309.509 279.713 307.97 276.67 306.988C274.459 306.28 271.319 304.113 268.099 298.019C254.319 271.953 241.245 267.556 241.245 267.556L226.191 254.607C230.578 242.596 234.62 231.097 234.62 231.097C243.704 199.838 227.827 196.61 216.7 178.999L187.927 187.49L162.524 191.975C162.524 191.975 152.546 222.137 160.808 240.119C162.586 243.984 170.219 261.524 171.537 263.567L168.105 277.746L164.735 289.943L141.057 362.341C141.057 362.341 148.159 358.529 166.274 368.948C171.599 372.009 177.941 372.177 181.744 374.308C187.821 377.714 189.926 382.296 189.864 382.667C189.652 384.135 193.119 363.208 193.119 363.208C193.119 363.208 193.951 352.036 203.309 334.364C211.349 319.168 210.8 302.185 210.8 302.185C223.449 315.099 224.873 319.15 264.34 352.266C263.571 348.029 269.895 338.273 280.845 333.329C288.602 329.826 291.052 319.699 291.406 318.902C291.751 318.115 292.583 318.328 284.932 311.605V311.623Z" fill="#FEFDFE"/>
<path d="M150.441 360.572C147.54 360.554 170.874 285.176 170.874 285.176C170.874 285.176 180.055 226.772 179.577 225.79C179.1 224.808 173.439 257.11 172.766 255.678C169.573 248.84 167.247 241.746 166 239.022C158.11 221.854 166.84 193.611 167.645 191.082L162.524 191.984C162.524 191.984 152.546 222.146 160.808 240.128C162.586 243.993 169.954 261.002 171.28 263.037L168.335 276.711L165.416 287.874L141.057 362.35C141.057 362.35 143.781 360.89 150.158 362.253C150.176 361.678 150.282 361.112 150.45 360.563L150.441 360.572Z" fill="white"/>
<path d="M284.931 311.623C282.525 309.509 279.712 307.97 276.669 306.988C274.458 306.28 271.318 304.113 268.098 298.019C254.318 271.953 241.244 267.556 241.244 267.556L226.19 254.607C230.577 242.596 233.549 234.131 233.549 234.131C242.633 202.872 227.826 196.61 216.699 178.999L187.926 187.49L162.523 191.975C162.523 191.975 152.545 222.137 160.807 240.119C162.585 243.984 169.953 260.993 171.279 263.028L166.91 283.31L141.064 362.332C141.064 362.332 148.167 358.52 166.282 368.939C171.607 372 177.949 372.168 181.752 374.3C187.829 377.705 189.934 382.287 189.872 382.658C189.66 384.126 194.409 351.152 203.759 333.479C211.799 318.283 210.799 302.185 210.799 302.185C223.448 315.099 224.872 319.15 264.339 352.266C263.57 348.029 269.894 338.273 280.844 333.329C288.601 329.826 291.051 319.699 291.405 318.902C291.75 318.115 292.582 318.328 284.931 311.605V311.623Z" stroke="#433747" stroke-width="2.21128" stroke-linecap="round" stroke-linejoin="round"/>
<path d="M176.269 213.955L179.568 222.438L170.873 264.93" stroke="#433747" stroke-width="2.21128" stroke-linecap="round" stroke-linejoin="round"/>
<path d="M158.304 195.062H158.27C158.27 195.062 158.287 195.062 158.304 195.062Z" fill="#FBE885" stroke="#433747" stroke-width="2.21128" stroke-linecap="round" stroke-linejoin="round"/>
<path d="M166.558 189.684C167.044 144.388 180.056 136.595 187.123 122.532C180.852 123.363 173.758 124.407 168.663 125.689C168.23 125.796 167.628 125.769 166.912 125.663C160.331 124.716 153.635 126.025 147.735 129.236L123.137 141.558L126.525 130.466L102.908 111.643C102.908 111.643 67.6605 164.856 92.6392 182.378C103.457 189.967 136.944 176.027 154.626 166.607C155.165 168.756 155.749 168.977 156.359 171.41C164.807 204.871 145.445 213.796 158.986 245.957L156.837 235.387C159.367 225.542 162.728 215.963 166.894 206.746C166.638 201.581 166.523 196.787 166.523 192.355C166.523 191.444 166.523 190.56 166.54 189.693L166.558 189.684Z" fill="#FBE885"/>
<path d="M122.014 147.015L151.592 131.952C157.491 128.741 164.187 127.432 170.768 128.378C171.484 128.485 172.086 128.511 172.519 128.405C176.084 127.512 180.622 126.733 185.168 126.061C185.858 124.911 186.512 123.744 187.123 122.532C180.851 123.363 173.758 124.407 168.663 125.689C168.229 125.796 167.628 125.769 166.912 125.663C160.331 124.716 153.635 126.026 147.735 129.236L123.694 141.531L122.014 147.024V147.015Z" fill="white"/>
<path d="M106.622 114.598L102.916 111.643C102.916 111.643 67.6683 164.856 92.647 182.378C93.1246 182.714 93.673 182.997 94.2391 183.253C74.6117 164.882 104.252 118.251 106.622 114.598Z" fill="white"/>
<path d="M166.558 189.684C167.044 144.388 180.056 136.595 187.123 122.532C180.852 123.363 173.758 124.407 168.663 125.689C168.23 125.796 167.628 125.769 166.912 125.663C160.331 124.716 153.635 126.025 147.735 129.236L123.137 141.558L126.525 130.466L102.908 111.643C102.908 111.643 67.6605 164.856 92.6392 182.378C103.457 189.967 136.944 176.027 154.626 166.607C155.165 168.756 155.749 168.977 156.359 171.41C164.807 204.871 145.949 217.183 158.986 245.957L156.837 235.387C159.367 225.542 162.728 215.963 166.894 206.746C166.638 201.581 166.523 196.787 166.523 192.355C166.523 191.444 166.523 190.56 166.54 189.693L166.558 189.684Z" stroke="#433747" stroke-width="2.21128" stroke-linecap="round" stroke-linejoin="round"/>
<path d="M321.887 228.125C321.887 228.125 291.866 225.825 269.435 260.675C257.353 279.444 244.934 283.336 244.934 283.336L243.979 269.98C243.13 258.092 238.247 246.629 229.49 238.545C198.037 209.515 196.498 191.692 196.454 191.515C195.95 189.481 195.525 187.561 195.171 185.757C192.872 173.975 193.491 166.687 194.508 158.806C196.595 142.495 207.678 133.128 211.676 126.088C215.834 129.024 234.559 135.853 239.627 139.231C240.582 139.868 241.635 140.364 242.466 141.107C255.84 153.03 244.271 180.202 244.492 188.587C244.713 197.132 258.609 192.771 282.535 200.723C318.384 212.646 321.887 228.125 321.887 228.125Z" fill="#FBE885" stroke="#433747" stroke-width="2.21128" stroke-linecap="round" stroke-linejoin="round"/>
<path d="M194.506 158.797C196.603 142.486 207.677 133.119 211.675 126.088C206.792 122.647 203.36 120.161 203.36 120.161C203.36 120.161 194.329 120.807 183.521 122.152C177.842 132.987 161.231 146.936 166.565 196.141L198.036 197.3C193.595 184.589 193.33 167.899 194.498 158.797H194.506Z" fill="white" stroke="#433747" stroke-width="2.21128" stroke-linecap="round" stroke-linejoin="round"/>
<path d="M239.627 136.401C239.627 136.401 218.372 130.581 208.262 145.662C196.436 163.317 195.313 185.014 195.171 185.739C192.872 173.966 193.491 166.678 194.508 158.797C196.595 142.486 207.678 133.119 211.676 126.079C213.357 125.291 236.407 126.149 239.627 136.401Z" fill="#FBE885" stroke="#433747" stroke-width="2.21128" stroke-linecap="round" stroke-linejoin="round"/>
<path d="M183.521 122.143C177.082 134.322 165.22 141.071 164.778 180.291C161.496 174.709 158.737 155.966 159.772 145.848C160.568 138.117 162.876 128.953 166.697 124.876C166.768 124.796 166.848 124.717 166.918 124.646C171.226 120.135 178.054 119.135 183.521 122.143Z" fill="#FBE885"/>
<path d="M162.142 147.378C162.938 139.647 164.088 129.652 170.713 124.982C174.817 122.089 178.585 121.391 183.291 122.567C183.37 122.426 183.45 122.293 183.521 122.151C178.054 119.144 171.226 120.144 166.918 124.655C166.848 124.734 166.768 124.805 166.697 124.885C162.876 128.962 160.568 138.126 159.772 145.856C158.737 155.975 161.496 174.718 164.778 180.299C164.804 177.849 161.434 154.268 162.142 147.387V147.378Z" fill="white"/>
<path d="M183.521 122.143C177.081 134.322 165.963 142.584 165.521 181.803C162.239 176.222 158.728 155.966 159.763 145.848C160.559 138.117 162.867 128.953 166.688 124.876C166.759 124.796 166.839 124.717 166.909 124.646C171.217 120.135 178.045 119.135 183.512 122.143H183.521Z" stroke="#433747" stroke-width="2.21128" stroke-linecap="round" stroke-linejoin="round"/>
<path d="M153.714 150.5C152.538 157.541 154.254 164.351 154.678 166.465" stroke="#433747" stroke-width="2.21128" stroke-linecap="round" stroke-linejoin="round"/>
<path d="M118.041 157.497L123.145 141.558" stroke="#433747" stroke-width="2.21128" stroke-linecap="round" stroke-linejoin="round"/>
<path d="M196.48 131.368C192.58 132.81 189.466 132.217 189.581 129.537C189.74 126.813 192.942 123.257 196.666 120.772C198.046 119.86 199.505 119.109 200.912 118.596C203.583 117.614 206.024 117.481 207.236 118.613C208.306 119.454 207.908 121.364 206.9 123.098C205.856 124.911 204.052 126.769 201.947 128.334C200.24 129.599 198.338 130.678 196.48 131.359V131.368Z" fill="#433747" stroke="#433747" stroke-width="2.21128" stroke-linecap="round" stroke-linejoin="round"/>
<path d="M186.254 120.374C186.361 120.604 186.467 120.825 186.582 121.028C186.697 121.24 186.821 121.453 186.944 121.647C187.033 121.798 187.13 121.939 187.227 122.09C187.307 122.213 187.387 122.319 187.466 122.417C187.608 122.611 187.749 122.797 187.908 122.974C188.068 123.169 188.245 123.354 188.421 123.531C188.598 123.708 188.775 123.876 188.961 124.053C189.138 124.212 189.333 124.372 189.536 124.522C189.731 124.672 189.934 124.814 190.137 124.955C190.137 124.947 190.137 124.938 190.12 124.92C193.207 127.052 197.302 127.662 201.15 126.521C201.291 126.477 201.442 126.441 201.583 126.379C201.592 126.379 201.618 126.379 201.627 126.371C201.848 126.3 202.07 126.22 202.299 126.141C202.583 126.026 202.857 125.911 203.131 125.778C203.334 125.681 203.555 125.575 203.768 125.468C203.927 125.38 204.104 125.291 204.263 125.203C204.75 124.938 205.227 124.637 205.678 124.319C205.873 124.186 206.068 124.044 206.244 123.903C206.333 123.832 206.412 123.779 206.483 123.708C206.669 123.576 206.828 123.434 206.979 123.301H206.987C207.138 123.16 207.279 123.045 207.412 122.903C207.589 122.735 207.766 122.567 207.934 122.381C208.049 122.266 208.164 122.143 208.27 122.028C208.288 122.01 208.296 122.001 208.305 121.983C208.544 121.727 208.756 121.462 208.978 121.187C209.199 120.913 209.393 120.639 209.597 120.347C209.765 120.099 209.933 119.843 210.083 119.586L210.34 119.153C210.375 119.082 210.41 119.011 210.455 118.941C210.552 118.764 210.649 118.578 210.729 118.41C210.729 118.41 210.735 118.404 210.747 118.392C210.87 118.145 210.985 117.888 211.092 117.64V117.614C211.136 117.508 211.189 117.402 211.224 117.304C211.268 117.198 211.304 117.083 211.348 116.959C211.463 116.676 211.56 116.384 211.631 116.093C211.631 116.066 211.658 116.022 211.658 115.995V115.933C211.72 115.774 211.773 115.615 211.799 115.447C211.799 115.447 211.808 115.447 211.799 115.429C211.861 115.217 211.914 114.996 211.95 114.783C211.994 114.553 212.038 114.332 212.056 114.094C212.082 113.934 212.1 113.766 212.118 113.598C212.153 113.28 212.179 112.953 212.188 112.616C212.188 112.404 212.188 112.201 212.188 111.988C212.188 111.865 212.171 111.723 212.171 111.599C212.153 111.343 212.144 111.077 212.109 110.812C212.082 110.555 212.038 110.299 211.994 110.025C211.967 109.848 211.932 109.68 211.896 109.503C211.879 109.423 211.861 109.353 211.843 109.273C211.799 109.105 211.755 108.946 211.72 108.769C211.72 108.742 211.711 108.725 211.702 108.698C211.649 108.512 211.596 108.318 211.525 108.132C211.454 107.928 211.383 107.743 211.313 107.557C211.171 107.194 211.021 106.841 210.826 106.496C210.8 106.451 210.782 106.407 210.747 106.354C210.729 106.301 210.694 106.239 210.649 106.177C210.605 106.089 210.552 105.991 210.49 105.894C210.437 105.823 210.402 105.744 210.357 105.673C210.331 105.646 210.313 105.611 210.295 105.576C210.189 105.408 210.083 105.257 209.968 105.107C209.889 104.983 209.8 104.877 209.703 104.78C209.588 104.62 209.464 104.488 209.331 104.346C209.331 104.337 209.314 104.329 209.305 104.329C209.305 104.302 209.287 104.302 209.278 104.293C209.278 104.284 209.261 104.267 209.252 104.258C209.128 104.134 208.986 104.001 208.854 103.869C208.827 103.842 208.801 103.824 208.783 103.807C208.783 103.807 208.783 103.804 208.783 103.798C208.783 103.798 208.712 103.745 208.677 103.718C208.65 103.683 208.624 103.665 208.588 103.639C208.456 103.524 208.314 103.409 208.181 103.311C208.013 103.152 207.828 103.028 207.651 102.896C207.615 102.869 207.589 102.851 207.545 102.825C207.439 102.745 207.324 102.666 207.217 102.595C207.182 102.577 207.155 102.551 207.111 102.533C207.058 102.489 207.005 102.462 206.961 102.436C206.943 102.436 206.917 102.409 206.899 102.391C206.846 102.356 206.784 102.33 206.722 102.294C206.696 102.276 206.669 102.25 206.634 102.25C206.306 102.055 205.961 101.87 205.616 101.71C205.59 101.693 205.563 101.693 205.537 101.675C205.077 101.463 204.608 101.286 204.122 101.135C204.042 101.109 203.945 101.082 203.856 101.056C203.715 101.012 203.564 100.967 203.423 100.932H203.414C203.255 100.888 203.087 100.844 202.91 100.826C202.883 100.808 202.839 100.799 202.812 100.799C202.547 100.746 202.273 100.702 202.008 100.667H201.937C201.884 100.64 201.822 100.64 201.769 100.631H201.725C201.53 100.605 201.344 100.596 201.15 100.578C201.052 100.578 200.955 100.56 200.858 100.569C200.752 100.569 200.645 100.552 200.539 100.552C200.442 100.552 200.354 100.552 200.256 100.552C200.079 100.552 199.885 100.552 199.708 100.569C199.664 100.569 199.619 100.569 199.584 100.569C199.531 100.569 199.478 100.569 199.434 100.569C199.168 100.587 198.903 100.605 198.646 100.64C198.452 100.658 198.275 100.684 198.089 100.711C197.983 100.729 197.877 100.746 197.762 100.764C197.505 100.808 197.24 100.852 197.001 100.923C196.754 100.985 196.488 101.056 196.232 101.118C196.214 101.118 196.196 101.135 196.179 101.135H196.17C195.922 101.215 195.666 101.295 195.436 101.374C195.179 101.463 194.931 101.56 194.684 101.666C194.436 101.772 194.18 101.887 193.941 102.002C193.941 102.002 193.932 102.002 193.914 102.002C193.799 102.055 193.675 102.117 193.552 102.188C193.428 102.25 193.304 102.321 193.189 102.383H193.18C192.703 102.639 192.243 102.931 191.791 103.249C191.561 103.409 191.34 103.577 191.128 103.745C190.907 103.913 190.695 104.09 190.491 104.275C190.164 104.558 189.854 104.868 189.562 105.178C189.262 105.487 188.97 105.823 188.696 106.159C188.28 106.655 187.9 107.185 187.555 107.725C187.201 108.273 186.891 108.848 186.608 109.423C186.511 109.618 186.422 109.804 186.343 110.016C186.175 110.405 186.024 110.803 185.892 111.21C184.91 114.155 184.883 117.357 186.228 120.365L186.254 120.374Z" fill="#FEFED6"/>
<path d="M210.87 106.504H210.861C206.589 103.621 201.079 103.816 196.736 106.186C195.754 106.726 194.843 107.362 194.011 108.105C189.571 112.086 187.218 118.507 189.748 124.186C189.872 124.46 190.013 124.708 190.146 124.964C189.943 124.823 189.739 124.681 189.545 124.531C189.341 124.38 189.155 124.221 188.97 124.062C188.784 123.894 188.607 123.726 188.43 123.54C188.253 123.363 188.076 123.177 187.917 122.983C187.758 122.806 187.616 122.62 187.475 122.426C187.386 122.328 187.316 122.222 187.236 122.098C187.139 121.957 187.041 121.806 186.953 121.656C186.82 121.453 186.705 121.24 186.59 121.037C186.475 120.825 186.369 120.604 186.263 120.382C184.919 117.375 184.945 114.182 185.927 111.228C186.068 110.821 186.21 110.423 186.378 110.034C186.458 109.83 186.546 109.636 186.643 109.441C186.918 108.866 187.236 108.291 187.59 107.752C187.944 107.185 188.324 106.672 188.731 106.177C189.005 105.841 189.297 105.505 189.598 105.195C189.898 104.886 190.208 104.576 190.526 104.293C190.73 104.107 190.942 103.93 191.163 103.762C191.384 103.594 191.605 103.426 191.827 103.267C192.278 102.94 192.738 102.648 193.215 102.391H193.224C193.454 102.268 193.702 102.135 193.941 102.02C193.949 102.02 193.967 102.02 193.967 102.02C194.206 101.905 194.462 101.799 194.71 101.684C194.958 101.587 195.205 101.48 195.462 101.392C195.701 101.312 195.948 101.233 196.196 101.153H196.205C196.205 101.153 196.24 101.144 196.258 101.135C196.506 101.074 196.771 101.003 197.028 100.941C197.275 100.87 197.532 100.826 197.788 100.782C197.894 100.764 198.001 100.746 198.116 100.729C198.213 100.711 198.31 100.693 198.416 100.684C198.505 100.667 198.584 100.667 198.673 100.658C198.832 100.631 199 100.622 199.177 100.605C199.274 100.587 199.372 100.587 199.46 100.587C199.504 100.587 199.557 100.587 199.61 100.587C199.655 100.587 199.699 100.587 199.734 100.587C199.911 100.587 200.097 100.569 200.283 100.569C200.477 100.569 200.681 100.569 200.884 100.587C200.981 100.587 201.079 100.587 201.176 100.596C201.362 100.614 201.556 100.622 201.751 100.64H201.795C201.848 100.658 201.91 100.658 201.954 100.667H202.025C202.29 100.711 202.565 100.755 202.83 100.808C202.857 100.808 202.901 100.817 202.927 100.835C203.104 100.852 203.272 100.897 203.431 100.941H203.44C203.591 100.985 203.741 101.02 203.874 101.065C203.962 101.091 204.059 101.118 204.139 101.144C204.626 101.286 205.094 101.472 205.554 101.684C205.581 101.702 205.598 101.702 205.634 101.719C205.979 101.878 206.324 102.055 206.651 102.259C206.678 102.259 206.704 102.294 206.74 102.303C206.81 102.338 206.863 102.365 206.916 102.4C206.961 102.436 207.014 102.462 207.049 102.498C207.076 102.498 207.111 102.515 207.138 102.542C207.288 102.63 207.429 102.728 207.562 102.834C207.597 102.86 207.624 102.878 207.668 102.904C207.845 103.028 208.031 103.161 208.199 103.311C208.34 103.417 208.473 103.532 208.606 103.647C208.641 103.674 208.668 103.692 208.694 103.727C208.739 103.754 208.774 103.78 208.809 103.824C208.827 103.851 208.853 103.86 208.88 103.886C209.013 104.019 209.154 104.143 209.278 104.275C209.305 104.311 209.331 104.337 209.358 104.364C209.49 104.505 209.605 104.638 209.729 104.797C209.826 104.895 209.906 105.01 209.995 105.125C210.11 105.275 210.224 105.425 210.322 105.593C210.348 105.629 210.357 105.664 210.384 105.691C210.437 105.761 210.472 105.841 210.516 105.912C210.569 106.009 210.631 106.098 210.676 106.195C210.72 106.257 210.746 106.31 210.773 106.372C210.808 106.416 210.826 106.469 210.853 106.513L210.87 106.504Z" fill="white"/>
<path d="M186.254 120.374C186.361 120.604 186.467 120.825 186.582 121.028C186.697 121.24 186.821 121.453 186.944 121.647C187.033 121.798 187.13 121.939 187.227 122.089C187.307 122.213 187.387 122.319 187.466 122.417C187.608 122.611 187.749 122.797 187.908 122.974C188.068 123.169 188.245 123.354 188.421 123.531C188.598 123.708 188.775 123.876 188.961 124.053C189.138 124.212 189.333 124.372 189.536 124.522C189.731 124.672 189.934 124.814 190.137 124.955C190.137 124.946 190.137 124.938 190.12 124.92C193.207 127.052 197.302 127.662 201.15 126.521C201.291 126.477 201.442 126.441 201.583 126.379C201.592 126.379 201.618 126.379 201.627 126.371C201.848 126.3 202.07 126.22 202.299 126.141C202.583 126.026 202.857 125.911 203.131 125.778C203.334 125.681 203.555 125.574 203.768 125.468C203.927 125.38 204.104 125.291 204.263 125.203C204.75 124.938 205.227 124.637 205.678 124.318C205.873 124.186 206.068 124.044 206.244 123.903C206.333 123.832 206.412 123.779 206.483 123.708C206.669 123.575 206.828 123.434 206.979 123.301H206.987C207.138 123.16 207.279 123.045 207.412 122.903C207.589 122.735 207.766 122.567 207.934 122.381C207.996 122.337 208.04 122.275 208.102 122.222C208.155 122.16 208.208 122.089 208.279 122.028C208.296 122.01 208.305 122.001 208.314 121.983C208.553 121.727 208.765 121.461 208.986 121.187C209.208 120.913 209.402 120.639 209.606 120.347C209.774 120.099 209.942 119.843 210.092 119.586L210.349 119.153C210.384 119.082 210.419 119.011 210.464 118.941C210.561 118.764 210.658 118.578 210.738 118.41C210.738 118.41 210.744 118.404 210.755 118.392C210.879 118.145 210.994 117.888 211.1 117.64C211.153 117.525 211.198 117.419 211.233 117.295C211.277 117.189 211.313 117.074 211.357 116.95C211.375 116.897 211.383 116.853 211.401 116.8C211.49 116.552 211.56 116.331 211.64 116.084C211.64 116.057 211.666 116.013 211.666 115.986V115.924C211.728 115.765 211.781 115.606 211.808 115.438C211.808 115.438 211.817 115.438 211.808 115.42C211.835 115.341 211.861 115.252 211.879 115.164C211.914 115.04 211.941 114.916 211.958 114.783C211.967 114.713 211.985 114.642 211.985 114.571C212.011 114.412 212.047 114.262 212.065 114.093C212.091 113.934 212.109 113.766 212.126 113.598C212.162 113.28 212.188 112.952 212.197 112.616C212.197 112.404 212.197 112.201 212.197 111.988C212.197 111.865 212.179 111.723 212.179 111.599C212.162 111.343 212.153 111.077 212.118 110.812C212.091 110.555 212.047 110.299 212.003 110.025C211.976 109.848 211.941 109.68 211.905 109.503C211.888 109.423 211.87 109.352 211.852 109.273C211.808 109.105 211.764 108.946 211.728 108.769C211.728 108.742 211.72 108.724 211.711 108.698C211.693 108.618 211.666 108.539 211.649 108.468C211.613 108.353 211.578 108.247 211.534 108.132C211.463 107.928 211.392 107.743 211.322 107.557C211.18 107.194 211.03 106.84 210.835 106.496H210.826C210.817 106.451 210.791 106.407 210.755 106.354C210.738 106.301 210.702 106.239 210.658 106.177C210.614 106.089 210.561 105.991 210.499 105.894C210.446 105.823 210.41 105.744 210.366 105.673C210.34 105.646 210.322 105.611 210.304 105.576C210.198 105.408 210.092 105.257 209.977 105.107C209.897 104.983 209.809 104.877 209.712 104.78C209.597 104.62 209.473 104.488 209.34 104.346C209.34 104.337 209.323 104.328 209.314 104.328C209.172 104.169 209.031 104.01 208.863 103.869C208.836 103.842 208.81 103.824 208.792 103.807C208.792 103.807 208.792 103.804 208.792 103.798C208.792 103.798 208.721 103.745 208.686 103.718C208.659 103.683 208.633 103.665 208.597 103.639C208.465 103.524 208.323 103.409 208.19 103.311C208.022 103.152 207.837 103.028 207.66 102.896C207.624 102.869 207.598 102.851 207.553 102.825C207.447 102.745 207.332 102.666 207.226 102.595C207.191 102.577 207.164 102.551 207.12 102.533C207.094 102.506 207.067 102.489 207.032 102.489C206.925 102.418 206.828 102.356 206.722 102.294C206.696 102.276 206.669 102.25 206.634 102.25C206.421 102.108 206.191 101.976 205.97 101.878C205.855 101.825 205.731 101.763 205.616 101.719C205.59 101.701 205.563 101.701 205.537 101.684C205.077 101.471 204.608 101.295 204.122 101.144C204.042 101.118 203.945 101.091 203.856 101.065C203.768 101.038 203.679 101.012 203.591 100.985C203.529 100.976 203.467 100.95 203.423 100.941H203.414C203.29 100.905 203.175 100.888 203.051 100.852C202.972 100.826 202.892 100.808 202.812 100.799C202.547 100.746 202.291 100.702 202.008 100.684H201.937C201.884 100.658 201.822 100.658 201.769 100.649H201.725C201.61 100.631 201.495 100.622 201.388 100.614C201.309 100.614 201.229 100.614 201.15 100.605C201.052 100.605 200.955 100.587 200.858 100.596C200.752 100.596 200.645 100.578 200.539 100.578C200.451 100.578 200.362 100.578 200.265 100.578C200.168 100.596 200.071 100.596 199.982 100.587C199.894 100.587 199.805 100.587 199.708 100.596C199.664 100.596 199.619 100.596 199.584 100.596C199.531 100.596 199.478 100.596 199.434 100.596C199.336 100.596 199.248 100.596 199.151 100.614C198.983 100.631 198.806 100.64 198.646 100.667C198.558 100.667 198.478 100.675 198.39 100.693C198.284 100.702 198.186 100.728 198.089 100.737C197.983 100.755 197.877 100.773 197.762 100.79C197.505 100.835 197.24 100.879 197.001 100.95C196.754 101.012 196.488 101.082 196.232 101.144C196.214 101.144 196.196 101.162 196.179 101.162H196.17C195.922 101.242 195.666 101.321 195.436 101.401C195.179 101.489 194.931 101.586 194.684 101.693C194.436 101.799 194.18 101.914 193.941 102.029C193.941 102.029 193.932 102.029 193.914 102.029C193.799 102.082 193.675 102.144 193.552 102.214C193.428 102.276 193.313 102.338 193.189 102.4H193.18C192.703 102.657 192.243 102.949 191.791 103.276C191.561 103.435 191.34 103.603 191.128 103.771C190.907 103.939 190.695 104.116 190.491 104.302C190.164 104.585 189.854 104.895 189.562 105.204C189.262 105.514 188.97 105.85 188.696 106.186C188.28 106.681 187.9 107.212 187.555 107.752C187.201 108.3 186.891 108.875 186.608 109.45C186.511 109.644 186.422 109.83 186.343 110.042C186.175 110.432 186.024 110.83 185.892 111.237C184.91 114.182 184.883 117.384 186.228 120.391L186.254 120.374Z" stroke="#433747" stroke-width="2.21128" stroke-linecap="round" stroke-linejoin="round"/>
<path d="M238.132 103.285C237.195 104.169 238.07 105.788 239.379 105.593C242.581 105.107 247.809 104.594 250.781 105.815C255.274 107.663 256.866 105.487 255.203 103.559C253.549 101.631 245.261 100.154 240.998 101.631C239.689 102.082 238.778 102.675 238.132 103.285Z" fill="#433747" stroke="#433747" stroke-width="2.21128" stroke-linecap="round" stroke-linejoin="round"/>
<path d="M231.215 109.149C232.046 109.344 232.833 108.866 232.966 108.097C233.099 107.318 232.524 106.54 231.692 106.345C230.861 106.151 230.074 106.628 229.941 107.398C229.808 108.176 230.383 108.955 231.215 109.149Z" fill="#433747" stroke="#433747" stroke-width="2.21128" stroke-linecap="round" stroke-linejoin="round"/>
<path d="M110.753 262.223L58.416 246.461L89.2501 189.03L126.117 204.287L110.753 262.223Z" fill="#FBE885" stroke="#433747" stroke-width="2.21128" stroke-linecap="round" stroke-linejoin="round"/>
<path d="M58.4161 246.461L46.8555 236.581L80.0955 184.607L89.2502 189.029L58.4161 246.461Z" fill="#FBE885"/>
<path d="M49.8717 238.916L83.1117 186.942L88.8787 189.728L89.2502 189.029L80.0955 184.607L46.8555 236.581L58.4161 246.461L58.5045 246.302L49.8717 238.916Z" fill="white"/>
<path d="M58.4161 246.461L46.8555 236.581L80.0955 184.607L89.2502 189.029L58.4161 246.461Z" stroke="#433747" stroke-width="2.21128" stroke-linecap="round" stroke-linejoin="round"/>
<path d="M109.24 197.3L116.591 182.015" stroke="#433747" stroke-width="2.21128" stroke-linecap="round" stroke-linejoin="round"/>
<path d="M84.9062 186.933L89.2492 179.379" stroke="#433747" stroke-width="2.21128" stroke-linecap="round" stroke-linejoin="round"/>
<path d="M116.59 209.196C116.59 209.196 129.123 176.107 129.123 138.559" stroke="#433747" stroke-width="2.21128" stroke-linecap="round" stroke-linejoin="round"/>
<path d="M93.168 198.529L118.04 157.497" stroke="#433747" stroke-width="2.21128" stroke-linecap="round" stroke-linejoin="round"/>
<path d="M268.098 222.216C267.975 227.656 272.141 250.255 276.43 252.281C280.72 254.306 281.738 241.472 280.446 236.997C282.666 244.789 284.046 250.556 288.026 250.202C292.007 249.849 292.272 246.151 293.316 243.622C294.36 241.092 295.607 245.709 300.463 242.799C303.452 241.003 302.904 239.332 302.807 236.997C304.266 237.678 307.035 240.313 308.547 235.634C310.069 230.938 298.614 213.884 287.133 213.371" fill="#FEFED6"/>
<path d="M268.098 222.216C267.975 227.656 272.141 250.255 276.43 252.281C280.72 254.306 281.738 241.472 280.446 236.997C282.666 244.789 284.046 250.556 288.026 250.202C292.007 249.849 292.272 246.151 293.316 243.622C294.36 241.092 295.607 245.709 300.463 242.799C303.452 241.003 302.904 239.332 302.807 236.997C304.266 237.678 307.035 240.313 308.547 235.634C310.069 230.938 298.614 213.884 287.133 213.371" stroke="#433747" stroke-width="2.21128" stroke-linecap="round" stroke-linejoin="round"/>
<path d="M223.537 172.613L250.055 195.371L268.656 232.937C266.746 226.427 277.97 230.301 286.329 224.375C291.273 220.863 296.757 218.183 302.56 216.432C301.817 216.662 288.496 183.218 282.782 173.321C277.554 164.254 247.401 140.877 232.612 136.251" fill="#FBE885"/>
<path d="M223.537 172.613L250.055 195.371L268.656 232.937C266.746 226.427 277.97 230.301 286.329 224.375C291.273 220.863 296.757 218.183 302.56 216.432C301.817 216.662 288.496 183.218 282.782 173.321C277.554 164.254 247.401 140.877 232.612 136.251" stroke="#433747" stroke-width="2.21128" stroke-linecap="round" stroke-linejoin="round"/>
<path d="M257.113 185.774C255.733 185.403 247.781 190.772 250.054 195.371" stroke="#433747" stroke-width="2.21128" stroke-linecap="round" stroke-linejoin="round"/>
<path d="M316.226 326.766L368.156 289.961L319.64 247.487L282.924 279.064L316.226 326.766Z" fill="#FEFDFE" stroke="#433747" stroke-width="2.21128" stroke-linecap="round" stroke-linejoin="round"/>
<path d="M368.155 289.961L369.429 272.333L319.596 239.898L319.64 247.487L368.155 289.961Z" fill="#FEFDFE" stroke="#433747" stroke-width="2.21128" stroke-linecap="round" stroke-linejoin="round"/>
<path d="M284.826 271.988L282.924 279.064L319.64 247.487L319.596 239.898L284.826 271.988Z" fill="#433747" stroke="#433747" stroke-width="2.21128" stroke-linecap="round" stroke-linejoin="round"/>
<path d="M280.941 243.109L284.824 271.988" stroke="#433747" stroke-width="2.21128" stroke-linecap="round" stroke-linejoin="round"/>
<path d="M308.557 235.635L318.552 243.109" stroke="#433747" stroke-width="2.21128" stroke-linecap="round" stroke-linejoin="round"/>
<path d="M272.168 244.285C275.786 244.612 278.713 246.434 279.589 250.379L272.168 244.285Z" fill="#FEFED6"/>
<path d="M272.168 244.285C275.786 244.612 278.713 246.434 279.589 250.379" stroke="#433747" stroke-width="2.21128" stroke-linecap="round" stroke-linejoin="round"/>
<path d="M209.024 234.14C209.024 234.14 197.277 284.636 195.252 297.665C193.217 310.694 188.078 342.139 179.578 361.527" fill="#FEFDFE"/>
<path d="M209.024 234.14C209.024 234.14 197.277 284.636 195.252 297.665C193.217 310.694 188.078 342.139 179.578 361.527" stroke="#433747" stroke-width="2.21128" stroke-linecap="round" stroke-linejoin="round"/>
<path d="M203.76 222.853C205.856 230.982 208.97 235.794 216.329 239.376L203.76 222.853Z" fill="#FEFDFE"/>
<path d="M203.76 222.853C205.856 230.982 208.97 235.794 216.329 239.376" stroke="#433747" stroke-width="2.21128" stroke-linecap="round" stroke-linejoin="round"/>
<path d="M226.181 254.616C226.181 254.616 211.092 294.225 210.809 302.212" stroke="#433747" stroke-width="2.21128" stroke-linecap="round" stroke-linejoin="round"/>
<path d="M255.088 300.991C261.182 315.223 260.28 324.475 258.706 331.931" stroke="#433747" stroke-width="2.21128" stroke-linecap="round" stroke-linejoin="round"/>
<path d="M269.435 123.027C269.382 119.692 265.958 117.481 262.863 118.711L261.173 119.383C258.617 120.4 255.68 119.347 254.424 116.906C252.841 113.837 250.577 110.502 245.04 110.502C235.292 110.502 229.853 120.011 222.228 117.835C214.268 115.562 213.162 105.248 205.997 101.878C205.971 101.861 205.935 101.852 205.9 101.834C206.183 99.8793 204.892 98.0395 202.937 97.668C201.716 97.438 200.54 97.8449 199.708 98.641C199.222 97.5972 198.267 96.7923 197.046 96.5712C195.038 96.1997 193.119 97.5176 192.738 99.5255C192.367 101.533 193.685 103.453 195.693 103.833C195.923 103.877 196.144 103.886 196.365 103.886C196.445 104.656 196.56 105.425 196.719 106.186C198.417 114.261 205.352 121.718 211.428 127.007C217.938 132.659 225.793 136.728 234.266 138.453C236.035 138.816 237.822 139.072 239.618 139.231C263.491 141.354 267.842 130.97 269.426 123.195C269.435 123.142 269.426 123.089 269.426 123.036L269.435 123.027Z" fill="#433747" stroke="#433747" stroke-width="2.21128" stroke-linecap="round" stroke-linejoin="round"/>
</g>
<defs>
<clipPath id="clip0_101_156">
<rect width="402.71" height="400.393" fill="white"/>
</clipPath>
</defs>
</svg>
