<svg width="103" height="72" viewBox="0 0 103 72" fill="none" xmlns="http://www.w3.org/2000/svg">
<g clip-path="url(#clip0_10_244)">
<path d="M26.7896 19.3101V62.4681C26.7896 63.1697 27.0921 63.8391 27.6199 64.3026L31.3532 69.3747C31.881 69.8317 32.5568 70.0827 33.2584 70.0634L80.4458 68.7825C81.2247 68.7632 81.8426 68.126 81.8426 67.3471V21.1638C81.8426 20.4558 74.0413 13.3561 73.3397 13.2725L59.6939 14.8816L29.3192 16.6775C27.9031 16.729 26.7896 17.8876 26.7896 19.3036V19.3101Z" fill="url(#paint0_linear_10_244)"/>
<path d="M29.332 16.9672C29.1325 16.8127 28.9393 16.6582 28.7527 16.4973C31.6814 16.6969 34.771 18.2867 37.7576 18.1773C42.5337 18.0035 47.3097 17.8233 52.0793 17.6495C54.8213 17.5465 57.5698 17.4499 60.3118 17.347L80.6131 19.78C81.3147 19.8637 81.7267 19.8959 81.7267 20.5975C81.7267 20.5975 67.1604 20.2177 60.9812 20.2628C52.2917 20.3207 45.9194 21.5308 37.2298 21.5887C35.7687 21.5952 34.3462 21.6338 33.0267 21.0223C31.7586 20.4366 30.4584 17.8426 29.332 16.9672Z" fill="url(#paint1_linear_10_244)"/>
<g style="mix-blend-mode:soft-light" opacity="0.5">
<path d="M47.1552 18.5957C48.3202 19.5934 50.1676 20.1791 50.2513 21.8076C50.2963 22.6508 50.2513 23.5069 50.2513 24.3437V69.5936L50.9657 69.5743C50.985 69.4713 50.9979 69.3684 50.9979 69.2654V21.0545C50.9979 20.4623 50.7726 20.3079 50.3735 19.941C49.9165 19.5162 49.4531 19.0849 48.9124 18.8017C48.3717 18.5185 47.7281 18.3897 47.1552 18.5957ZM44.8959 18.615C46.061 19.6127 47.9083 20.2049 47.992 21.8398C48.037 22.683 47.992 23.5391 47.992 24.3887V69.658L48.7193 69.6387C48.7322 69.555 48.7386 69.4713 48.7386 69.3877V21.0803C48.7386 20.4881 48.5133 20.3336 48.1143 19.9603C47.6573 19.5355 47.1938 19.1042 46.6531 18.821C46.1125 18.5378 45.4688 18.409 44.8959 18.615ZM49.408 18.5764C50.5731 19.5676 52.4204 20.1534 52.5041 21.7819C52.5492 22.6186 52.5041 23.4747 52.5041 24.3115V69.5357L53.2057 69.5164C53.2314 69.4005 53.2508 69.2782 53.2508 69.1495V21.0288C53.2508 20.4366 53.0255 20.2886 52.6264 19.9152C52.1694 19.4904 51.7059 19.0656 51.1653 18.7824C50.6246 18.4992 49.9809 18.3704 49.408 18.5764ZM79.7892 19.6835L78.2444 19.4968C78.9589 19.986 79.5447 20.546 79.5897 21.415C79.6348 22.2196 79.5897 23.0435 79.5897 23.8545V68.0875C79.5897 68.3514 79.5125 68.596 79.3966 68.8084L79.86 68.7955C80.1561 68.5251 80.3428 68.1389 80.3428 67.7013V20.6876C80.3428 20.1534 80.1433 19.9925 79.7892 19.6835ZM38.1245 18.6794C39.2896 19.6899 41.1369 20.2821 41.2206 21.9299C41.2656 22.7796 41.2206 23.6485 41.2206 24.4982V69.8382L41.9608 69.8189C41.9608 69.8189 41.9608 69.7739 41.9608 69.7481V21.1704C41.9608 20.5718 41.7355 20.4173 41.3364 20.044C40.8794 19.6127 40.416 19.1814 39.8753 18.8918C39.3346 18.6021 38.6909 18.4734 38.1181 18.6794H38.1245ZM77.3369 21.4472C77.3819 22.2582 77.3369 23.0821 77.3369 23.8931V68.2098C77.3369 68.4479 77.2789 68.6668 77.1759 68.8663L77.6651 68.8534C77.9226 68.5895 78.0835 68.2226 78.0835 67.8236V20.7198C78.0835 20.1469 77.8582 20.0053 77.4592 19.6449C77.3562 19.5548 77.2532 19.4582 77.1438 19.3681L75.4316 19.1621C76.3714 19.7479 77.2725 20.3594 77.3304 21.4472H77.3369ZM42.6366 18.6408C43.8017 19.6449 45.649 20.2371 45.7327 21.872C45.7778 22.7152 45.7327 23.5777 45.7327 24.4274V69.7224L46.4665 69.7031C46.4729 69.6387 46.4793 69.5808 46.4793 69.51V21.1125C46.4793 20.5203 46.2541 20.3658 45.855 19.9925C45.398 19.5676 44.9345 19.1364 44.3939 18.8467C43.8532 18.5635 43.2095 18.4348 42.6366 18.6408ZM35.8652 18.7051C37.0303 19.7157 38.8776 20.3143 38.9613 21.9685C39.0063 22.8246 38.9613 23.6936 38.9613 24.5432V69.909L39.7079 69.8897C39.7079 69.8897 39.7079 69.8833 39.7079 69.8769V21.1961C39.7079 20.5975 39.4827 20.443 39.0836 20.0633C38.6266 19.632 38.1631 19.1943 37.6225 18.9111C37.0818 18.6215 36.4381 18.4927 35.8652 18.6987V18.7051ZM40.3774 18.6665C41.5424 19.6706 43.3897 20.2628 43.4734 21.9106C43.5185 22.7602 43.4734 23.6228 43.4734 24.4724V69.7867L44.2136 69.7674C44.2136 69.7224 44.2265 69.6838 44.2265 69.6387V21.1382C44.2265 20.5396 44.0012 20.3851 43.6021 20.0118C43.1451 19.587 42.6817 19.1493 42.141 18.866C41.6003 18.5828 40.9567 18.4477 40.3838 18.6601L40.3774 18.6665ZM33.606 18.7309C34.771 19.7479 36.6183 20.3465 36.702 22.0007C36.7471 22.8568 36.702 23.7258 36.702 24.5883V69.9734L37.4487 69.9541V21.2219C37.4487 20.6168 37.2234 20.4623 36.8243 20.089C36.3673 19.6578 35.9039 19.2201 35.3632 18.9304C34.8225 18.6408 34.1788 18.512 33.606 18.718V18.7309ZM61.5348 21.666C61.5798 22.4963 61.5348 23.3395 61.5348 24.1634V69.0658C61.5348 69.1431 61.5219 69.2203 61.509 69.2976L62.1527 69.2782C62.2299 69.0916 62.2814 68.8856 62.2814 68.6668V20.9129C62.2814 20.3272 62.0562 20.1791 61.6571 19.8122C61.2001 19.3939 60.7366 18.969 60.1959 18.6923C59.6553 18.409 59.0116 18.2867 58.4387 18.4863C59.6038 19.4647 61.4511 20.044 61.5348 21.6531V21.666ZM63.7941 21.6338C63.8391 22.4577 63.7941 23.3009 63.7941 24.1248V68.9435C63.7941 69.0465 63.7812 69.1431 63.7619 69.2332L64.3862 69.2139C64.4828 69.0143 64.5407 68.7891 64.5407 68.5445V20.8872C64.5407 20.3079 64.3154 20.1534 63.9164 19.7929C63.4594 19.3745 62.9959 18.9562 62.4552 18.6794C61.9145 18.4026 61.2709 18.2739 60.698 18.4734C61.8631 19.4518 63.7104 20.0311 63.7941 21.6274V21.6338ZM59.2819 21.6918C59.327 22.5221 59.2819 23.3653 59.2819 24.2021V69.1881C59.2819 69.2461 59.2691 69.304 59.2626 69.3555L59.932 69.3362C59.9964 69.1688 60.0286 68.9822 60.0286 68.7891V20.9451C60.0286 20.3594 59.8033 20.2113 59.4042 19.8444C58.9472 19.426 58.4838 19.0012 57.9431 18.718C57.4024 18.4348 56.7587 18.3125 56.1859 18.512C57.3509 19.4968 59.1983 20.0761 59.2819 21.6853V21.6918ZM54.7698 21.7497C54.8149 22.5865 54.7698 23.4361 54.7698 24.2729V69.4263C54.7698 69.4263 54.7698 69.4585 54.7698 69.4778L55.4585 69.4585C55.4972 69.3233 55.5229 69.1817 55.5229 69.0272V20.9966C55.5229 20.4109 55.2976 20.2564 54.8985 19.8895C54.4415 19.4711 53.9781 19.0398 53.4374 18.7566C52.8967 18.4734 52.2531 18.3447 51.6802 18.5506C52.8452 19.5419 54.6926 20.1276 54.7762 21.7432L54.7698 21.7497ZM57.0291 21.7175C57.0741 22.5478 57.0291 23.3975 57.0291 24.2343V69.304C57.0291 69.3426 57.0227 69.3748 57.0162 69.4134L57.6985 69.3941C57.75 69.2396 57.7757 69.0787 57.7757 68.9049V20.9708C57.7757 20.3851 57.5505 20.2306 57.1514 19.8637C56.6944 19.4453 56.2309 19.0205 55.6903 18.7373C55.1496 18.4541 54.5059 18.3318 53.933 18.5313C55.0981 19.5162 56.9454 20.1019 57.0291 21.7175ZM72.8312 21.5051C72.8762 22.3226 72.8312 23.1529 72.8312 23.9639V68.4479C72.8312 68.641 72.7926 68.8148 72.7282 68.9822L73.2753 68.9693C73.4684 68.7183 73.5843 68.4029 73.5843 68.0553V20.7713C73.5843 20.1984 73.359 20.0504 72.9599 19.6899C72.5608 19.3359 72.1553 18.9755 71.7048 18.7116L69.8703 18.4927C71.0418 19.3939 72.7539 19.986 72.8376 21.5051H72.8312ZM70.5719 21.5373C70.617 22.3547 70.5719 23.1851 70.5719 24.0025V68.5702C70.5719 68.7376 70.5397 68.8985 70.4882 69.0465L71.0546 69.0336C71.2156 68.7891 71.3186 68.4994 71.3186 68.184V20.8035C71.3186 20.2306 71.0933 20.0826 70.6942 19.7157C70.2372 19.3037 69.7737 18.8854 69.2331 18.6086C68.6924 18.3318 68.0487 18.2095 67.4758 18.409C68.6409 19.3745 70.4882 19.9474 70.5719 21.5373ZM75.084 21.4793C75.1291 22.2904 75.084 23.1207 75.084 23.9317V68.3321C75.084 68.5445 75.039 68.744 74.9617 68.9307L75.4831 68.9178C75.7019 68.6603 75.8371 68.3192 75.8371 67.9458V20.7456C75.8371 20.1727 75.6118 20.0247 75.2128 19.6706C74.9746 19.4582 74.7364 19.2458 74.4854 19.0463L72.6252 18.821C73.7323 19.5483 75.0261 20.1598 75.0905 21.4729L75.084 21.4793ZM66.0533 21.6016C66.0984 22.4255 66.0533 23.2623 66.0533 24.0862V68.8212C66.0533 68.9435 66.034 69.0594 66.0083 69.1753L66.6198 69.1559C66.7356 68.9371 66.8064 68.6925 66.8064 68.4286V20.8614C66.8064 20.2821 66.5811 20.1341 66.1821 19.7672C65.7251 19.3552 65.2616 18.9304 64.7209 18.6536C64.1803 18.3769 63.5366 18.2481 62.9637 18.4541C64.1288 19.426 65.9761 20.0053 66.0598 21.6016H66.0533ZM68.3126 21.5695C68.3577 22.3869 68.3126 23.2237 68.3126 24.0476V68.6989C68.3126 68.847 68.2869 68.9822 68.2482 69.1109L68.8404 69.098C68.9756 68.8663 69.0593 68.6024 69.0593 68.3063V20.8292C69.0593 20.2499 68.834 20.1019 68.4349 19.7414C67.9779 19.3295 67.5145 18.9111 66.9738 18.6343C66.4331 18.3575 65.7894 18.2288 65.2166 18.4348C66.3816 19.4067 68.2289 19.9796 68.3126 21.5695Z" fill="white"/>
</g>
<path d="M27.6262 64.2961C27.0984 63.8326 26.7959 63.1632 26.7959 62.4616V19.31C26.7959 17.8939 27.9159 16.7353 29.3255 16.6838H29.377L32.9558 21.2796L34.6358 28.006L34.1852 36.5282L34.4105 60.4469L33.2519 70.0569C32.5503 70.0762 31.8745 69.8316 31.3466 69.3682L27.6134 64.2961H27.6262Z" fill="url(#paint2_linear_10_244)"/>
<g style="mix-blend-mode:soft-light">
<path opacity="0.1" d="M35.9747 36.2708C35.9554 36.6827 35.9296 37.1011 35.9103 37.5131L36.1356 61.4318C35.9425 63.0281 35.7494 64.6309 35.5563 66.2272C35.4469 67.1476 35.4275 68.1517 35.2151 69.0593C35.0864 69.6129 34.8997 70.0699 34.1595 70.0119C33.1811 69.9347 33.5416 69.1623 33.606 68.3834C33.7733 66.3881 33.6188 64.3734 33.8634 62.3844C33.9986 61.3224 33.9986 55.6967 33.96 50.0775C33.9214 44.4583 33.8248 38.8326 33.7733 37.7641C33.6896 36.1485 33.6896 34.5329 33.7283 32.9173C33.7604 31.4304 33.8184 29.9435 33.9793 28.4631C34.0179 28.1219 34.0565 27.7679 33.96 27.4332C33.8506 27.047 33.5673 26.738 33.3421 26.4098C32.4409 25.0967 32.3959 22.7988 32.6405 21.2668C33.2198 21.5114 33.8184 21.7239 34.2368 22.2323C34.5264 22.5864 34.7066 23.0112 34.8804 23.4296C35.022 23.7707 35.1701 24.1054 35.3117 24.4466C35.7623 25.5022 36.3544 26.5964 36.4832 27.7486C36.6119 28.9008 36.3673 30.0594 36.245 31.1987C36.0583 32.8722 36.0648 34.5908 35.9811 36.2772L35.9747 36.2708Z" fill="#C6ADA8"/>
<path opacity="0.15" d="M32.6728 21.3311C32.6728 21.3311 32.7115 21.3505 32.7308 21.3569C33.2586 21.5757 33.8314 21.8847 34.2112 22.3481C34.4815 22.6828 34.6746 23.1592 34.842 23.5582C34.9772 23.8801 35.1252 24.247 35.2604 24.5624C35.6852 25.5601 36.2774 26.7315 36.4061 27.8193C36.5284 28.9136 36.2903 30.1494 36.168 31.2308C35.9942 32.8206 35.9877 34.6551 35.9041 36.2514C35.8847 36.644 35.859 37.0882 35.8397 37.4808V38.4849L35.9877 53.6176L36.0585 61.1292C35.8783 62.6418 35.6981 64.3604 35.5114 65.8731C35.4084 66.7485 35.3891 67.817 35.1896 68.673C35.0673 69.2008 34.8613 69.851 34.1661 69.793C33.3294 69.7222 33.4967 69.3424 33.5933 68.6795C33.5997 68.6087 33.5868 68.5379 33.5933 68.4671C33.7156 66.9544 33.6834 65.1779 33.7671 63.6653C33.7864 63.2855 33.8314 62.8414 33.8765 62.4616C33.9344 62.0239 33.9859 60.5821 33.9988 58.8699C34.0181 56.6364 33.9988 53.1606 33.9795 50.1482C33.973 49.1312 33.9602 47.9533 33.9473 46.9621C33.9022 42.7782 33.8314 38.6459 33.7928 37.8284C33.7478 36.9659 33.7285 35.9553 33.7285 35.0928C33.7285 34.4234 33.7413 33.651 33.7542 32.9816C33.7864 31.5719 33.8508 29.9306 34.0052 28.5274C34.0374 28.1991 34.0825 27.8129 33.9924 27.4975C33.9151 27.2336 33.7542 26.9568 33.5868 26.7315C33.5289 26.6479 33.4581 26.5513 33.4002 26.4676C32.9947 25.8819 32.7436 24.9614 32.6471 24.1375C32.5377 23.2107 32.5441 22.0907 32.6664 21.3247L32.6728 21.3311Z" fill="#C5ACA6"/>
<path opacity="0.19" d="M32.7048 21.3954C32.7048 21.3954 32.7435 21.4148 32.7628 21.4212C33.2648 21.6272 33.8248 22.0262 34.1853 22.4639C34.4427 22.7793 34.6423 23.3136 34.8032 23.6869C34.9319 23.9894 35.08 24.3821 35.2087 24.6846C35.6078 25.6308 36.2064 26.8731 36.3223 27.9029C36.4381 28.9328 36.2 30.2588 36.0905 31.2758C35.9232 32.7755 35.9103 34.7323 35.8266 36.2385C35.8073 36.6118 35.7816 37.0881 35.7623 37.455V38.4527L35.9039 53.4116L35.9747 60.8331C35.8009 62.262 35.6335 64.0965 35.4597 65.5254C35.3632 66.3493 35.3503 67.4822 35.1572 68.2932C35.0414 68.7888 34.8225 69.632 34.1595 69.5805C33.3678 69.5162 33.503 69.3874 33.5867 68.7631C33.5931 68.6987 33.548 68.6343 33.5545 68.5635C33.6703 67.1346 33.6703 65.1907 33.754 63.7618C33.7733 63.4013 33.8184 62.9186 33.8634 62.5581C33.9149 62.1462 33.9922 60.582 34.0051 58.9664C34.0244 56.8616 34.0051 53.0897 33.9857 50.2383C33.9793 49.2792 33.9664 47.9854 33.9536 47.0521C33.9085 43.1 33.8441 38.6844 33.7991 37.912C33.7605 37.0945 33.7347 35.9874 33.7347 35.17C33.7347 34.5392 33.754 33.6895 33.7669 33.0587C33.7926 31.7263 33.8763 29.9241 34.0115 28.6045C34.0437 28.2956 34.0887 27.8708 33.9986 27.5747C33.9278 27.3236 33.7798 27.0147 33.6188 26.8023C33.5609 26.725 33.4966 26.6156 33.4386 26.5319C33.0589 25.9784 32.7821 24.9742 32.692 24.1954C32.589 23.32 32.5568 22.1099 32.6727 21.3826L32.7048 21.3954Z" fill="#C4ABA5"/>
<path opacity="0.24" d="M32.7369 21.46C32.7369 21.46 32.7819 21.4793 32.7948 21.4857C33.2647 21.6788 33.8247 22.168 34.1658 22.58C34.4104 22.8761 34.6164 23.4618 34.7644 23.8158C34.8867 24.099 35.0412 24.5239 35.1635 24.8071C35.5433 25.6953 36.1419 27.0149 36.2513 27.9804C36.3607 28.9523 36.129 30.3555 36.026 31.3146C35.8715 32.7242 35.8458 34.8033 35.7685 36.2193C35.7492 36.5669 35.7235 37.0754 35.7042 37.423V38.4078L35.8458 53.1865L35.9166 60.5178C35.7557 61.8631 35.6012 63.807 35.4338 65.1587C35.3373 65.9375 35.3309 67.1348 35.1506 67.8943C35.0412 68.3577 34.803 69.4005 34.1851 69.349C33.4449 69.2911 33.535 69.4069 33.6187 68.8212C33.6251 68.7568 33.5543 68.6989 33.5608 68.6345C33.6702 67.2892 33.7024 65.178 33.7796 63.8328C33.7989 63.498 33.8504 62.9702 33.8955 62.6291C33.947 62.2429 34.0435 60.5565 34.0564 59.0374C34.0757 57.0549 34.0564 52.9869 34.0306 50.3093C34.0242 49.4081 34.0113 48.0049 33.9985 47.1295C33.9598 43.4091 33.889 38.7168 33.8504 37.983C33.8118 37.217 33.7925 36.0134 33.786 35.2409C33.786 34.6488 33.8118 33.7219 33.8247 33.1297C33.8504 31.881 33.9405 29.9178 34.0693 28.6691C34.1014 28.3794 34.1401 27.9224 34.0693 27.6392C33.9985 27.4011 33.8633 27.0599 33.7152 26.8604C33.6638 26.7896 33.5929 26.6673 33.5415 26.59C33.181 26.0687 32.8913 24.9809 32.8012 24.2471C32.7047 23.4232 32.6339 22.123 32.7433 21.4407L32.7369 21.46Z" fill="#C3AAA3"/>
<path opacity="0.29" d="M32.7691 21.5242C32.7691 21.5242 32.8142 21.5435 32.8271 21.5564C33.2712 21.743 33.8248 22.3159 34.1402 22.7021C34.3654 22.9789 34.5843 23.6161 34.7259 23.9508C34.8418 24.2147 34.9962 24.6653 35.1121 24.9356C35.4661 25.7724 36.0647 27.1627 36.1677 28.0703C36.2707 28.9779 36.0454 30.4647 35.9489 31.3659C35.8008 32.6854 35.7622 34.8867 35.6914 36.2127C35.6721 36.541 35.6463 37.0817 35.627 37.4035V38.3754L35.7622 52.9803L35.833 60.228C35.6785 61.4896 35.5369 63.5494 35.3824 64.8109C35.2923 65.5383 35.2859 66.7999 35.1185 67.5144C35.0155 67.952 34.7645 69.1879 34.1788 69.1428C33.4836 69.0849 33.5415 69.4582 33.6123 68.9111C33.6188 68.8532 33.5158 68.7953 33.5222 68.7373C33.6252 67.4757 33.6896 65.1971 33.7668 63.9356C33.7861 63.6202 33.8441 63.0473 33.8827 62.7319C33.9277 62.365 34.0436 60.5627 34.0565 59.1402C34.0758 57.28 34.05 52.9224 34.0307 50.4056C34.0243 49.5624 34.0114 48.0434 33.9985 47.2259C33.9599 43.7372 33.8891 38.7616 33.8569 38.0793C33.8183 37.3584 33.799 36.0582 33.799 35.3373C33.799 34.7838 33.8312 33.7796 33.8376 33.2261C33.8634 32.0546 33.9599 29.9305 34.0822 28.7655C34.108 28.4951 34.153 27.9995 34.0822 27.7356C34.0179 27.5103 33.8956 27.137 33.7539 26.9503C33.7025 26.8795 33.6381 26.7443 33.5866 26.68C33.2519 26.1908 32.9365 25.0193 32.8528 24.3306C32.7627 23.5582 32.6533 22.1678 32.7563 21.5242H32.7691Z" fill="#C1A8A1"/>
<path opacity="0.34" d="M32.8013 21.5886C32.8013 21.5886 32.8463 21.6144 32.8592 21.6208C33.2712 21.7946 33.8183 22.4576 34.1144 22.818C34.3268 23.0755 34.5521 23.7707 34.6872 24.0796C34.7902 24.3307 34.9576 24.807 35.0606 25.0516C35.3888 25.8304 35.9939 27.298 36.0904 28.1412C36.187 28.9908 35.9681 30.5614 35.878 31.3981C35.7428 32.634 35.6913 34.9512 35.627 36.187C35.6141 36.4896 35.5819 37.0624 35.5626 37.3714V38.3369L35.6913 52.7615L35.7557 59.9191C35.6141 61.0971 35.4789 63.2727 35.3373 64.4506C35.2537 65.1329 35.2472 66.4588 35.0927 67.1282C34.9962 67.5338 34.7258 68.9691 34.1852 68.9241C33.5351 68.8726 33.5544 69.4969 33.6252 68.982C33.6316 68.9305 33.5029 68.879 33.5093 68.8211C33.6059 67.6432 33.7024 65.1972 33.7732 64.0193C33.7925 63.7232 33.8505 63.1117 33.8891 62.8157C33.9341 62.4745 34.0693 60.5564 34.0822 59.224C34.095 57.4861 34.0693 52.8323 34.05 50.4894C34.05 49.6977 34.0307 48.0756 34.0178 47.3097C33.9856 44.0527 33.9084 38.7939 33.8762 38.1567C33.844 37.4873 33.8183 36.0841 33.8183 35.4146C33.8183 34.8933 33.8505 33.8183 33.8633 33.3034C33.8891 32.2092 33.9921 29.9306 34.1079 28.8428C34.1337 28.5917 34.1787 28.0575 34.1079 27.8129C34.05 27.6069 33.9341 27.195 33.8054 27.0212C33.7603 26.9568 33.6895 26.8088 33.6445 26.7444C33.3291 26.2874 33.0008 25.0323 32.9236 24.3886C32.8399 23.6677 32.6918 22.1872 32.7884 21.5886H32.8013Z" fill="#C0A79F"/>
<path opacity="0.38" d="M32.8335 21.6529C32.8335 21.6529 32.8786 21.6787 32.8915 21.6851C33.2712 21.846 33.8184 22.5991 34.0951 22.9338C34.2947 23.172 34.5328 23.9186 34.6487 24.2083C34.7452 24.44 34.9126 24.9421 35.0091 25.1738C35.3181 25.8947 35.9167 27.4331 36.0068 28.2248C36.097 29.0101 35.8845 30.6643 35.7944 31.4431C35.6657 32.5889 35.6078 35.0219 35.5434 36.1741C35.5305 36.4573 35.4983 37.0624 35.479 37.3456V38.2982L35.6078 52.5491L35.6721 59.6165C35.5434 60.7108 35.4211 63.0022 35.2859 64.0965C35.2087 64.7273 35.2023 66.1176 35.0606 66.742C34.9705 67.1217 34.6873 68.7502 34.1788 68.7052C33.5738 68.6537 33.5609 69.5355 33.6253 69.0592C33.6317 69.0077 33.4772 68.9626 33.4772 68.9111C33.5673 67.8169 33.7025 65.2036 33.7669 64.1094C33.7797 63.8326 33.8505 63.1825 33.8892 62.9057C33.9278 62.5903 34.0887 60.5499 34.1016 59.314C34.1144 57.7048 34.0823 52.755 34.0694 50.573C34.0694 49.8392 34.0501 48.1013 34.0372 47.3933C34.005 44.368 33.9342 38.8325 33.902 38.2403C33.8699 37.6159 33.8505 36.1226 33.8441 35.4983C33.8441 35.0155 33.8827 33.8698 33.8956 33.387C33.9149 32.37 34.0308 29.9369 34.1402 28.9199C34.1659 28.6882 34.211 28.1218 34.1402 27.8901C34.0823 27.697 33.9793 27.2528 33.8634 27.0855C33.8184 27.0276 33.7476 26.8666 33.7089 26.8087C33.4193 26.3839 33.0653 25.0451 32.9945 24.4464C32.9172 23.777 32.7306 22.2 32.8207 21.6465L32.8335 21.6529Z" fill="#BFA69E"/>
<path opacity="0.43" d="M32.8724 21.7236C32.8724 21.7236 32.9174 21.7494 32.9303 21.7558C33.2843 21.9039 33.825 22.7471 34.076 23.056C34.2563 23.2749 34.5073 24.0795 34.6167 24.3434C34.7068 24.5558 34.8742 25.09 34.9707 25.3024C35.254 25.9719 35.859 27.581 35.9427 28.3084C36.0264 29.0357 35.8139 30.7672 35.7367 31.4881C35.6208 32.5437 35.5436 35.0991 35.4921 36.1611C35.4792 36.425 35.4471 37.0558 35.4342 37.3197L35.4213 38.2595L35.5565 52.3366L35.6208 59.3204C35.4985 60.3309 35.3891 62.7383 35.2668 63.7488C35.196 64.3346 35.196 65.7892 35.0609 66.3621C34.9772 66.7097 34.6746 68.5377 34.2112 68.4991C33.6512 68.454 33.5997 69.5869 33.6577 69.1428C33.6577 69.0977 33.4774 69.0527 33.4839 69.0076C33.5675 67.997 33.7349 65.2164 33.7928 64.2058C33.8057 63.9548 33.8829 63.2596 33.9151 63.0022C33.9537 62.7125 34.134 60.5498 34.1404 59.4105C34.1533 57.9236 34.1147 52.6777 34.1018 50.6695C34.1018 49.9936 34.076 48.1463 34.0696 47.4897C34.0374 44.7026 33.9666 38.8774 33.9344 38.3303C33.9022 37.7574 33.8829 36.1611 33.8829 35.5883C33.8829 35.1441 33.928 33.9212 33.9409 33.477C33.9602 32.5373 34.0825 29.9433 34.1855 29.01C34.2112 28.7911 34.2563 28.1925 34.1919 27.9801C34.1404 27.7999 34.0503 27.3236 33.9409 27.1691C33.9022 27.1111 33.8314 26.9438 33.7928 26.8859C33.5225 26.4997 33.1492 25.0707 33.0848 24.5172C33.014 23.8992 32.7887 22.2321 32.8724 21.7236Z" fill="#BEA59C"/>
<path opacity="0.48" d="M32.9042 21.7883C32.9042 21.7883 32.9493 21.814 32.9621 21.8204C33.284 21.9556 33.8182 22.8889 34.0564 23.1722C34.2237 23.3781 34.4812 24.2278 34.5842 24.4724C34.6678 24.6655 34.8416 25.2255 34.9253 25.425C35.1828 26.0365 35.7943 27.7229 35.8651 28.3859C35.9423 29.0553 35.7363 30.864 35.6655 31.527C35.5561 32.4989 35.4724 35.1702 35.4209 36.1421C35.4081 36.3803 35.3759 37.0432 35.363 37.2878L35.3501 38.2211L35.4789 52.118L35.5432 59.0117C35.4338 59.9386 35.3373 62.4617 35.2214 63.3886C35.157 63.9229 35.157 65.4484 35.0347 65.9697C34.9575 66.2916 34.6421 68.3063 34.2108 68.2741C33.7023 68.2355 33.6058 69.6193 33.6637 69.2138C33.6637 69.1688 33.4578 69.1366 33.4642 69.0915C33.5414 68.1646 33.741 65.2166 33.7989 64.2898C33.8118 64.058 33.8954 63.3178 33.9212 63.0861C33.9534 62.8158 34.1594 60.5372 34.1658 59.488C34.1787 58.1234 34.14 52.5814 34.1207 50.7405C34.1207 50.1226 34.095 48.1594 34.0885 47.5608C34.0628 45.0054 33.9856 38.897 33.9598 38.4014C33.9341 37.8736 33.9083 36.1872 33.9083 35.6529C33.9083 35.2474 33.9598 33.9472 33.9663 33.5417C33.9856 32.6792 34.1207 29.9307 34.2108 29.0746C34.2302 28.8751 34.2816 28.2378 34.2237 28.0447C34.1787 27.8838 34.095 27.3689 33.9984 27.2273C33.9598 27.1758 33.889 26.9955 33.8568 26.9441C33.6122 26.59 33.2196 25.0774 33.1552 24.5689C33.0844 24.0025 32.827 22.2453 32.9042 21.7754V21.7883Z" fill="#BDA49A"/>
<path opacity="0.53" d="M32.9365 21.8526C32.9365 21.8526 32.9816 21.8848 32.9945 21.8848C33.2905 22.0071 33.8184 23.0305 34.0308 23.288C34.1852 23.4747 34.4491 24.3823 34.5393 24.6011C34.6165 24.7813 34.7903 25.3671 34.8675 25.5473C35.1057 26.1008 35.7107 27.8645 35.7815 28.4696C35.8523 29.0746 35.6528 30.9734 35.5884 31.572C35.4919 32.4539 35.3953 35.2474 35.3503 36.1357C35.3374 36.3545 35.3052 37.0497 35.2924 37.2685L35.2795 38.189L35.4082 51.912L35.4726 58.7156C35.3696 59.5588 35.2859 62.1978 35.1829 63.0346C35.125 63.5174 35.125 65.1072 35.0156 65.5835C34.9448 65.8732 34.6101 68.0874 34.2239 68.0552C33.7604 68.0166 33.6317 69.658 33.6832 69.2911C33.6832 69.2525 33.4515 69.2203 33.4515 69.1817C33.5223 68.3449 33.754 65.2231 33.8055 64.3799C33.8184 64.1675 33.902 63.3886 33.9278 63.1762C33.96 62.9316 34.1788 60.5307 34.1917 59.5781C34.2046 58.3358 34.1595 52.5042 34.1466 50.8306C34.1466 50.2642 34.1209 48.198 34.1144 47.6509C34.0887 45.3273 34.0115 38.9421 33.9921 38.485C33.9664 38.0023 33.9471 36.2193 33.9471 35.7366C33.9471 35.3633 34.005 33.9922 34.0115 33.6253C34.0308 32.8401 34.1724 29.9307 34.256 29.1518C34.2754 28.9716 34.3204 28.3022 34.2754 28.122C34.2303 27.9739 34.1659 27.4268 34.0694 27.2981C34.0372 27.253 33.9664 27.0599 33.9342 27.0149C33.7089 26.693 33.297 25.0903 33.2455 24.6333C33.1811 24.1183 32.885 22.271 32.9494 21.8462L32.9365 21.8526Z" fill="#BCA398"/>
<path opacity="0.57" d="M32.9687 21.9168C32.9687 21.9168 33.0202 21.949 33.0266 21.949C33.2905 22.0584 33.8184 23.172 34.005 23.4037C34.1402 23.5711 34.417 24.5301 34.5006 24.7297C34.5714 24.8906 34.7517 25.5021 34.816 25.663C35.0285 26.1651 35.6399 27.9995 35.6979 28.5402C35.7622 29.0873 35.5691 31.0634 35.5112 31.6041C35.4211 32.3958 35.3181 35.3116 35.273 36.1097C35.2602 36.3093 35.2216 37.0302 35.2151 37.2297L35.1958 38.1373L35.3245 51.6866L35.3889 58.4065C35.2988 59.166 35.228 61.9145 35.1314 62.674C35.0799 63.1117 35.0799 64.7659 34.9834 65.1907C34.919 65.4546 34.5714 67.862 34.2174 67.8362C33.799 67.804 33.6317 69.6964 33.6767 69.3617C33.6767 69.3295 33.4128 69.2974 33.4193 69.2652C33.4836 68.5121 33.754 65.2165 33.799 64.4634C33.8119 64.2703 33.902 63.4528 33.9278 63.2597C33.9535 63.0409 34.1981 60.5177 34.2046 59.6616C34.2174 58.5481 34.1659 52.4139 34.1531 50.9077C34.1531 50.3992 34.1273 48.2172 34.1209 47.728C34.1016 45.6361 34.0179 38.9676 33.9986 38.5557C33.9793 38.1244 33.9535 36.2385 33.9535 35.8072C33.9535 35.4725 34.0179 34.0307 34.0243 33.696C34.0372 32.9944 34.1917 29.9241 34.2689 29.2225C34.2882 29.0616 34.3333 28.3535 34.2882 28.1991C34.2496 28.0639 34.1917 27.4846 34.108 27.3687C34.0758 27.3301 34.005 27.1241 33.9793 27.0791C33.7797 26.7894 33.3485 25.103 33.297 24.6911C33.2391 24.2276 32.9043 22.2902 32.9623 21.9104L32.9687 21.9168Z" fill="#BAA197"/>
<path opacity="0.62" d="M33.001 21.9812C33.001 21.9812 33.0525 22.0134 33.0589 22.0198C33.2971 22.1164 33.812 23.32 33.9858 23.526C34.1081 23.6741 34.3913 24.691 34.4685 24.8648C34.5265 25.0064 34.7131 25.6501 34.7775 25.7917C34.9642 26.2359 35.5757 28.1476 35.6336 28.6303C35.6915 29.1131 35.5049 31.1728 35.4469 31.6556C35.3697 32.3636 35.2474 35.3953 35.2152 36.1033C35.2088 36.2771 35.1637 37.0366 35.1573 37.2104L35.138 38.1116L35.2603 51.4806L35.3246 58.1104C35.2409 58.7862 35.183 61.6506 35.0993 62.3264C35.0543 62.7126 35.0607 64.4312 34.9706 64.8174C34.9127 65.0491 34.5458 67.656 34.2368 67.6302C33.8635 67.5981 33.664 69.7415 33.7026 69.4518C33.7026 69.4196 33.4129 69.4003 33.4129 69.3681C33.4709 68.6987 33.7734 65.2358 33.812 64.5664C33.8249 64.399 33.9214 63.5301 33.9407 63.3627C33.9665 63.1696 34.2304 60.5241 34.2368 59.7646C34.2433 58.7733 34.1918 52.3495 34.1853 51.0107C34.1853 50.5601 34.1596 48.2687 34.1531 47.831C34.1338 45.9708 34.0566 39.0191 34.0373 38.6587C34.018 38.2725 33.9922 36.2964 33.9922 35.9102C33.9922 35.6141 34.0566 34.0951 34.063 33.799C34.0759 33.1746 34.2368 29.9434 34.3076 29.3255C34.3205 29.1839 34.372 28.4372 34.3334 28.302C34.3012 28.1862 34.2561 27.5683 34.1789 27.4653C34.1531 27.4266 34.0823 27.2142 34.0566 27.1756C33.8764 26.9181 33.4258 25.1481 33.3807 24.7812C33.3292 24.3692 32.9559 22.3417 33.0074 22.0005L33.001 21.9812Z" fill="#B9A095"/>
<path opacity="0.67" d="M33.033 22.0457C33.033 22.0457 33.0845 22.0778 33.0909 22.0843C33.2969 22.168 33.8118 23.4617 33.9599 23.642C34.0629 23.7707 34.359 24.8392 34.4233 24.9937C34.4748 25.116 34.6679 25.7854 34.7194 25.9141C34.8868 26.3003 35.4983 28.2828 35.5433 28.7076C35.5884 29.1325 35.4081 31.2759 35.3631 31.6943C35.2923 32.3122 35.1635 35.4597 35.1314 36.0841C35.1249 36.2386 35.0799 37.0238 35.0734 37.1783L35.0477 38.0666L35.17 51.2618L35.2344 57.8015C35.1635 58.3937 35.1121 61.3739 35.0412 61.966C35.0026 62.3072 35.0091 64.0901 34.9318 64.4249C34.8868 64.6308 34.5006 67.4308 34.2302 67.405C33.902 67.3793 33.6638 69.7737 33.7024 69.5163C33.7024 69.4905 33.3806 69.4712 33.387 69.4455C33.4385 68.8597 33.7732 65.2294 33.8054 64.6437C33.8118 64.4957 33.9148 63.5881 33.9341 63.44C33.9534 63.2727 34.2431 60.5049 34.2495 59.8419C34.256 58.973 34.2045 52.2531 34.1916 51.0816C34.1916 50.6889 34.1659 48.2881 34.1594 47.9019C34.1401 46.2734 34.0629 39.045 34.0436 38.7231C34.0243 38.3884 34.0049 36.3094 34.0049 35.9747C34.0049 35.7172 34.0757 34.1209 34.0822 33.8634C34.0951 33.3163 34.2624 29.9306 34.3203 29.3835C34.3332 29.2548 34.3847 28.4823 34.3461 28.3601C34.3139 28.2571 34.2817 27.607 34.2174 27.5168C34.1916 27.4847 34.1208 27.2594 34.0951 27.2272C33.9406 27.0019 33.4643 25.1481 33.4256 24.8263C33.3806 24.4659 32.9686 22.3482 33.0137 22.0521L33.033 22.0457Z" fill="#B89F93"/>
<path opacity="0.72" d="M33.0652 22.1099C33.0652 22.1099 33.1167 22.142 33.1231 22.1485C33.2969 22.2193 33.8118 23.6032 33.9341 23.7577C34.0242 23.8671 34.3268 24.9935 34.3847 25.1222C34.4298 25.2317 34.6229 25.9268 34.6679 26.0362C34.8095 26.371 35.4274 28.4243 35.4661 28.7912C35.5047 29.158 35.3309 31.3787 35.2923 31.7392C35.2343 32.267 35.0927 35.5368 35.067 36.0711C35.0606 36.1998 35.0155 37.0237 35.0091 37.1524L34.9833 38.0278L35.1056 51.0428L35.1635 57.4988C35.1056 58.0009 35.067 61.1034 35.0026 61.6119C34.9704 61.9015 34.9769 63.7488 34.9125 64.0385C34.8739 64.2123 34.4684 67.2053 34.2367 67.186C33.9599 67.1603 33.6831 69.8122 33.7088 69.5934C33.7088 69.5676 33.3613 69.5547 33.3613 69.5354C33.3999 69.0334 33.7732 65.2357 33.8054 64.7337C33.8118 64.6049 33.9213 63.6587 33.9406 63.53C33.9599 63.382 34.2688 60.4983 34.2688 59.9319C34.2753 59.1852 34.2173 52.1757 34.2109 51.1715C34.2109 50.8304 34.1852 48.3201 34.1787 47.9918C34.1659 46.5951 34.0822 39.0834 34.0693 38.8131C34.0564 38.5234 34.0307 36.3478 34.0307 36.0646C34.0307 35.8393 34.1079 34.1722 34.1144 33.9534C34.1272 33.4835 34.3075 29.9433 34.3525 29.4734C34.3654 29.364 34.4169 28.553 34.3847 28.45C34.359 28.3599 34.3396 27.6776 34.2817 27.6004C34.2624 27.5746 34.1852 27.3365 34.1659 27.3043C34.0307 27.1112 33.5415 25.1737 33.5093 24.897C33.4707 24.588 33.0201 22.3802 33.0587 22.1227L33.0652 22.1099Z" fill="#B79E91"/>
<path opacity="0.76" d="M33.0975 22.1743C33.0975 22.1743 33.149 22.2129 33.1555 22.2129C33.3035 22.2773 33.8056 23.7449 33.915 23.8736C33.9922 23.9637 34.3076 25.1416 34.3527 25.2511C34.3913 25.3412 34.5844 26.0685 34.623 26.1522C34.7389 26.429 35.3568 28.5595 35.389 28.862C35.4212 29.1646 35.2538 31.4689 35.2216 31.7714C35.1702 32.2091 35.0221 35.6013 34.9964 36.0454C34.9964 36.1548 34.9449 37.0045 34.9384 37.1139L34.9062 37.9828L35.0285 50.824L35.0865 57.1899C35.035 57.6083 35.0092 60.8267 34.9577 61.2451C34.9256 61.4897 34.9384 63.4013 34.8805 63.6395C34.8483 63.7875 34.4299 66.9737 34.2368 66.9608C34.0051 66.9415 33.6897 69.8445 33.7155 69.6578C33.7155 69.6385 33.3421 69.6321 33.3421 69.6063C33.3743 69.1879 33.7863 65.2229 33.8056 64.8045C33.8056 64.7016 33.9279 63.7103 33.9407 63.6009C33.9536 63.4786 34.2819 60.4727 34.2883 60.0028C34.2883 59.3848 34.2304 52.0728 34.224 51.236C34.224 50.9528 34.1982 48.333 34.1918 48.0563C34.1789 46.8912 34.0952 39.0964 34.0888 38.8711C34.0759 38.6329 34.0502 36.3608 34.0502 36.1226C34.0502 35.936 34.1338 34.1916 34.1403 34.0114C34.1467 33.6188 34.3398 29.9177 34.3784 29.5315C34.3849 29.4413 34.4364 28.5917 34.4106 28.508C34.3913 28.4308 34.3784 27.7163 34.3334 27.6519C34.3141 27.6262 34.2433 27.3752 34.224 27.3559C34.1145 27.1949 33.5996 25.1738 33.5739 24.9421C33.5417 24.6846 33.046 22.3867 33.0847 22.1743H33.0975Z" fill="#B69D90"/>
<path opacity="0.81" d="M33.1297 22.2389C33.1297 22.2389 33.1812 22.2775 33.1876 22.2775C33.3035 22.329 33.8055 23.8867 33.8892 23.9896C33.9471 24.0604 34.2754 25.2963 34.3076 25.38C34.3398 25.4508 34.5393 26.2039 34.5715 26.2747C34.668 26.5 35.286 28.7013 35.3117 28.9459C35.3374 29.1905 35.1765 31.5785 35.1508 31.8167C35.1122 32.1707 34.9448 35.6787 34.9319 36.0327C34.9319 36.1228 34.8804 37.0046 34.874 37.0883L34.8418 37.9444L34.9577 50.6118L35.0156 56.894C34.977 57.2287 34.9641 60.5629 34.9191 60.8977C34.8933 61.0908 34.9062 63.0733 34.8611 63.2599C34.8354 63.3758 34.3977 66.7615 34.2432 66.7486C34.0565 66.7357 33.7025 69.8897 33.7283 69.7417C33.7283 69.7288 33.3228 69.7224 33.3292 69.7031C33.3549 69.3683 33.7991 65.236 33.8184 64.9013C33.8184 64.8176 33.9471 63.7813 33.9536 63.6976C33.9664 63.6011 34.314 60.4793 34.3204 60.0995C34.3204 59.6039 34.2561 52.0021 34.2496 51.3327C34.2496 51.1074 34.2239 48.3718 34.2175 48.153C34.2046 47.2261 34.1273 39.1481 34.1145 38.9614C34.1016 38.7683 34.0823 36.3996 34.0823 36.2065C34.0823 36.0584 34.1724 34.2433 34.1724 34.0953C34.1788 33.7799 34.3784 29.9243 34.4106 29.6089C34.417 29.5381 34.4685 28.6562 34.4492 28.5854C34.4299 28.5275 34.4299 27.7744 34.3977 27.7229C34.3848 27.7036 34.3076 27.4397 34.2947 27.4204C34.2046 27.2917 33.6768 25.1869 33.651 25.0002C33.6253 24.7942 33.091 22.4062 33.1232 22.2324L33.1297 22.2389Z" fill="#B59C8E"/>
<path opacity="0.86" d="M33.1683 22.3031C33.1683 22.3031 33.2198 22.3417 33.2262 22.3417C33.3163 22.3803 33.812 24.0281 33.8699 24.1054C33.9149 24.1633 34.2497 25.4442 34.2754 25.5086C34.3011 25.5601 34.5007 26.3453 34.5264 26.3968C34.5972 26.5642 35.2152 28.8428 35.2409 29.023C35.2602 29.2032 35.0993 31.6749 35.08 31.8551C35.0478 32.1191 34.874 35.7493 34.8611 36.0133C34.8611 36.0776 34.8096 36.9916 34.8032 37.056L34.771 37.8992L34.8869 50.3864L34.9448 56.5785C34.9126 56.8295 34.9126 60.2796 34.8869 60.5306C34.8676 60.6787 34.8869 62.7191 34.8483 62.8607C34.829 62.9508 34.3784 66.5296 34.2625 66.5168C34.1209 66.5039 33.7347 69.9153 33.7476 69.8059C33.7476 69.793 33.3163 69.793 33.3163 69.7802C33.3356 69.5291 33.812 65.2294 33.8248 64.9719C33.8248 64.9076 33.9536 63.8326 33.9664 63.7683C33.9729 63.6975 34.3462 60.4534 34.3462 60.1637C34.3462 59.7904 34.2754 51.8926 34.2754 51.3905C34.2754 51.2232 34.2497 48.3781 34.2432 48.2108C34.2368 47.5156 34.1531 39.1544 34.1467 39.0192C34.1402 38.8776 34.1145 36.4123 34.1145 36.2643C34.1145 36.1549 34.211 34.2625 34.211 34.1466C34.211 33.9149 34.4234 29.892 34.4492 29.6602C34.4492 29.6087 34.5071 28.6883 34.4942 28.6368C34.4814 28.5917 34.4942 27.8065 34.4685 27.7678C34.4556 27.755 34.3848 27.4782 34.372 27.4653C34.3076 27.3688 33.754 25.1803 33.7347 25.0387C33.7154 24.8842 33.1425 22.4061 33.1619 22.2773L33.1683 22.3031Z" fill="#B39A8C"/>
<path opacity="0.91" d="M33.2004 22.3675C33.2004 22.3675 33.2519 22.4061 33.2583 22.4061C33.3163 22.4318 33.8054 24.1697 33.8505 24.2212C33.8827 24.2598 34.2238 25.5987 34.2431 25.6373C34.256 25.6759 34.4684 26.4805 34.4813 26.5191C34.5264 26.6285 35.1507 28.9844 35.1636 29.1002C35.1765 29.2225 35.022 31.7715 35.0091 31.8938C34.9898 32.0676 34.8031 35.8201 34.7903 35.9939C34.7903 36.039 34.7388 36.9788 34.7388 37.0238L34.7001 37.8606L34.816 50.174L34.8739 56.276C34.8546 56.4433 34.8675 60.0092 34.8482 60.1766C34.8353 60.2732 34.8482 62.3844 34.8289 62.4809C34.816 62.5389 34.3461 66.3172 34.2689 66.3108C34.1788 66.3043 33.7475 69.9668 33.7604 69.8896C33.7604 69.8831 33.3034 69.8896 33.3034 69.8767C33.3163 69.7093 33.8248 65.2423 33.8376 65.0685C33.8376 65.0234 33.9728 63.9099 33.9792 63.8648C33.9792 63.8133 34.3783 60.4534 34.3783 60.2603C34.3783 60.0093 34.3075 51.8218 34.3011 51.4806C34.3011 51.3648 34.2753 48.4103 34.2689 48.3009C34.2689 47.8375 34.1788 39.193 34.1723 39.1029C34.1723 39.0063 34.1402 36.4445 34.1402 36.348C34.1402 36.2707 34.2431 34.3075 34.2431 34.2303C34.2431 34.0758 34.462 29.8984 34.4813 29.7439C34.4813 29.7053 34.5392 28.7527 34.5264 28.7205C34.5199 28.6883 34.5392 27.8708 34.5264 27.8451C34.5199 27.8386 34.4427 27.549 34.4362 27.5426C34.3912 27.4782 33.8183 25.206 33.8119 25.1095C33.799 25.0065 33.1875 22.4383 33.2004 22.3481V22.3675Z" fill="#B2998A"/>
<path opacity="0.95" d="M33.2327 22.4319L33.2906 22.4769C33.3228 22.4898 33.8055 24.3178 33.8248 24.3436C33.8377 24.3629 34.1917 25.7532 34.1982 25.779C34.2046 25.7983 34.417 26.635 34.4235 26.6479C34.4492 26.7059 35.0736 29.1325 35.08 29.1904C35.0864 29.2483 34.9384 31.881 34.932 31.9453C34.9191 32.0354 34.726 35.8975 34.7195 35.9876C34.7195 36.0069 34.668 36.9853 34.668 37.0046L34.6294 37.8285L34.7453 49.9681L34.8032 55.9864C34.7903 56.0701 34.8161 59.7454 34.8032 59.8355C34.8032 59.887 34.8161 62.0562 34.8032 62.1077C34.7968 62.1399 34.314 66.1049 34.2754 66.1049C34.2304 66.1049 33.7669 70.0119 33.7733 69.9798H33.2842C33.2906 69.8961 33.8377 65.2552 33.8377 65.1715C33.8377 65.1522 33.9793 63.9936 33.9793 63.9679C33.9793 63.9421 34.3977 60.4599 34.3977 60.3633C34.3977 60.241 34.3205 51.751 34.3205 51.5837C34.3205 51.5257 34.2883 48.4619 34.2883 48.4039C34.2883 48.1722 34.1982 39.251 34.1982 39.2059C34.1982 39.1609 34.1724 36.4961 34.1724 36.451C34.1724 36.4124 34.2754 34.372 34.2818 34.3333C34.2818 34.2561 34.5136 29.9242 34.52 29.847C34.52 29.8276 34.5779 28.8364 34.5715 28.8235C34.5715 28.8107 34.6037 27.9546 34.5908 27.9417C34.5908 27.9417 34.5136 27.6392 34.5071 27.6327C34.4878 27.6006 33.8956 25.2447 33.8892 25.1932C33.8892 25.1417 33.2327 22.4769 33.2391 22.4383L33.2327 22.4319Z" fill="#B19889"/>
<path d="M34.1916 36.5219L34.6422 27.9997L33.9535 25.2512L33.2647 22.4963L33.3227 22.5414L34.1594 25.9014L35.0026 29.2677L34.5521 37.7899L34.6679 49.7493L34.7774 61.7087L34.2753 65.8732L33.7732 70.0442L33.2583 70.0571L33.8376 65.2489L34.4169 60.4407L34.301 48.4813L34.1916 36.5219Z" fill="#B09787"/>
</g>
<g style="mix-blend-mode:multiply" opacity="0.3">
<path d="M54.8599 16.967C54.8599 16.967 60.8074 18.19 61.3352 19.5288C61.863 20.8677 61.4382 45.2628 61.1228 47.8246C60.8074 50.3864 60.2731 69.2974 60.2731 69.2974L52.3882 69.7479C52.3882 69.7479 52.3367 69.9668 52.4397 67.405C52.5427 64.8432 53.7077 20.3077 53.0769 19.7541C52.4397 19.1941 49.5818 17.1923 49.5818 17.1923L54.8534 16.9735L54.8599 16.967Z" fill="#005400"/>
</g>
<g style="mix-blend-mode:multiply" opacity="0.3">
<path d="M55.3169 17.3276C55.3169 17.3276 61.2644 18.5313 61.7922 19.8508C62.32 21.1703 61.8952 45.1921 61.5798 47.7153C61.2644 50.2385 60.7302 69.143 60.7302 69.143L52.8452 69.5807C52.8452 69.5807 52.7937 69.7996 52.8967 67.2764C52.9997 64.7532 54.1647 20.6168 53.5339 20.0697C52.8967 19.5226 50.0388 17.5465 50.0388 17.5465L55.3105 17.3276H55.3169Z" fill="#005400"/>
</g>
<path d="M55.4973 17.2375C55.4973 17.2375 61.4448 18.4605 61.9726 19.7994C62.5005 21.1382 62.0756 45.5333 61.7602 48.0951C61.4448 50.6569 60.9106 69.5679 60.9106 69.5679L53.0256 70.0184C53.0256 70.0184 52.9741 70.2373 53.0771 67.6755C53.1801 65.1137 54.3452 20.5782 53.7144 20.0246C53.0771 19.4646 50.2192 17.4628 50.2192 17.4628L55.4909 17.244L55.4973 17.2375Z" fill="url(#paint3_linear_10_244)"/>
<path opacity="0.5" d="M61.3866 48.301C61.1742 50.0261 60.8781 69.2138 60.6978 69.5807L60.9167 69.5679C60.9167 69.5679 61.4445 50.6569 61.7663 48.0951C62.0817 45.5333 62.5066 21.1382 61.9787 19.7993C61.9079 19.6256 61.747 19.4518 61.5153 19.2844C61.5539 19.3359 61.5797 19.3874 61.599 19.4389C62.1268 20.8035 61.702 45.6877 61.3866 48.301ZM50.2253 17.4564C50.2253 17.4564 52.4074 18.9883 53.3858 19.7479C53.3729 19.7092 53.36 19.677 53.3471 19.6642C52.8901 19.2522 51.2681 18.0743 50.4056 17.45H50.2253V17.4564Z" fill="#4AE88F"/>
<path opacity="0.3" d="M53.6628 68.7569C53.9139 65.9569 54.255 20.9129 53.8302 19.4518C53.8109 19.3938 53.7916 19.3424 53.7594 19.2844C53.9396 19.4647 54.0748 19.6513 54.1263 19.838C54.5511 21.2734 54.21 65.7896 53.9589 68.538C53.9074 69.1045 53.8431 69.5808 53.7851 69.9798L53.5212 69.9927C53.5727 69.6387 53.6178 69.2332 53.6628 68.7633V68.7569Z" fill="#4AE88F"/>
<g opacity="0.7">
<g style="mix-blend-mode:multiply" opacity="0.1">
<path d="M50.8629 17.926C50.8629 17.926 50.1613 18.7757 55.079 19.709C56.9842 20.0695 59.1084 19.9407 60.621 21.3439C60.9621 21.6593 61.2582 22.0262 61.5479 22.3931C61.992 22.9467 62.4297 23.5002 62.7773 24.1181C62.9768 24.4722 63.1377 24.8455 63.3308 25.2059C63.5046 25.5342 63.6913 25.8496 63.8844 26.165C64.129 26.5705 64.38 26.9825 64.6246 27.388C64.9464 27.9287 65.2747 28.4629 65.6287 28.9843C65.9699 29.4863 66.3689 29.982 66.9161 30.2459C67.3795 30.4647 67.9073 30.4905 68.4223 30.4647C68.8664 30.4454 69.317 30.381 69.7225 30.2008C70.8038 29.7181 71.1385 28.6303 71.0098 27.5489C70.9583 27.1241 71.042 26.6671 71.0227 26.2294C70.8939 23.6998 69.5101 21.5177 67.1735 20.4685C64.8499 19.4258 61.683 17.5656 58.6449 16.5808C55.6068 15.596 52.6845 15.4801 50.8629 17.9196V17.926Z" fill="#129739"/>
</g>
<g style="mix-blend-mode:multiply" opacity="0.15">
<path d="M50.9078 17.939C50.9464 17.9583 50.4701 18.5956 53.5662 19.3615C53.9974 19.4709 54.4995 19.5804 55.0724 19.6898C55.6323 19.7992 56.2181 19.8636 56.7974 19.9344C58.1491 20.1017 59.4879 20.327 60.5435 21.2668C60.8847 21.5693 61.1808 21.9233 61.4704 22.2773C61.9146 22.8052 62.3587 23.3458 62.7063 23.938C62.7513 24.0088 62.79 24.0861 62.835 24.1633C62.9831 24.4401 63.1182 24.7168 63.2727 24.9936C63.4465 25.309 63.6396 25.618 63.8327 25.9269C64.0773 26.326 64.3283 26.7251 64.5729 27.1242C64.8948 27.652 65.223 28.1734 65.577 28.6819C65.9182 29.171 66.3044 29.6667 66.8451 29.9241C67.1669 30.0851 67.5209 30.1494 67.8749 30.1687C68.0165 30.1752 68.1646 30.1816 68.3062 30.1687C68.4156 30.1687 68.525 30.1623 68.6345 30.1494C68.9627 30.1237 69.2846 30.0529 69.5871 29.9177C70.6298 29.4414 70.9452 28.3922 70.8165 27.343C70.765 26.9311 70.8423 26.4869 70.8165 26.0686C70.7779 25.4313 70.6556 24.8198 70.4689 24.247C70.263 23.6419 69.9733 23.0755 69.6129 22.567C68.9821 21.6916 68.1324 20.9707 67.0768 20.4879C66.3366 20.1468 65.5062 19.722 64.6244 19.2714C62.8221 18.351 60.801 17.334 58.8249 16.6903C57.3252 16.2011 55.8448 15.9179 54.5059 16.0273C53.9266 16.0724 53.3731 16.1947 52.8517 16.4071C52.6972 16.4714 52.5427 16.5422 52.3947 16.6259C52.2788 16.6903 52.163 16.774 52.06 16.8576C52.0342 16.877 52.0085 16.8963 51.9827 16.922C51.6416 17.1988 51.2103 17.5464 50.9271 17.9454L50.9078 17.939Z" fill="#119236"/>
</g>
<g style="mix-blend-mode:multiply" opacity="0.19">
<path d="M50.9465 17.9583C51.0173 17.9905 50.6118 18.602 53.5727 19.3422C53.9975 19.4516 54.4867 19.5611 55.0531 19.6705C55.6067 19.7799 56.1796 19.8507 56.746 19.9151C58.0784 20.076 59.3979 20.2949 60.4407 21.196C60.7818 21.4856 61.0779 21.8268 61.374 22.1615C61.8181 22.67 62.2622 23.1849 62.6227 23.7578C62.6678 23.8286 62.7064 23.8994 62.7514 23.9702C62.9059 24.2341 63.0411 24.5045 63.1956 24.7684C63.3694 25.0773 63.5625 25.3734 63.7556 25.6759C64.0066 26.0621 64.2512 26.4548 64.4958 26.841C64.8176 27.3559 65.1459 27.8708 65.4935 28.3665C65.8346 28.8492 66.2144 29.332 66.7357 29.5959C67.0511 29.7568 67.3923 29.8276 67.7399 29.8598C67.8815 29.8727 68.0231 29.8791 68.1647 29.8791C68.2677 29.8791 68.3771 29.8791 68.4865 29.8662C68.8084 29.8469 69.1302 29.7761 69.4198 29.6409C70.4175 29.1775 70.7136 28.1605 70.5913 27.1435C70.5398 26.7444 70.6106 26.3132 70.5849 25.9077C70.5398 25.2897 70.424 24.6976 70.2309 24.144C70.0313 23.5583 69.7481 23.0176 69.3941 22.522C68.7826 21.6723 67.9587 20.9771 66.9417 20.5008C66.2272 20.1661 65.4291 19.7477 64.5795 19.31C62.8415 18.4089 60.8848 17.4241 58.9667 16.7997C57.454 16.2977 55.9543 16.0145 54.5897 16.0917C54.004 16.1303 53.4375 16.2333 52.9097 16.4264C52.7488 16.4843 52.5943 16.5487 52.4398 16.6324C52.3175 16.6967 52.2017 16.7869 52.1051 16.8705C52.0794 16.8898 52.0601 16.9156 52.0343 16.9349C51.7254 17.2117 51.2104 17.5593 50.9465 17.939V17.9583Z" fill="#108E33"/>
</g>
<g style="mix-blend-mode:multiply" opacity="0.24">
<path d="M50.9915 17.9777C51.1009 18.0292 50.7597 18.6149 53.5919 19.3294C54.0103 19.4324 54.493 19.5483 55.0466 19.6641C55.5937 19.7735 56.1537 19.8444 56.7137 19.9152C58.0268 20.0696 59.3205 20.282 60.3633 21.1381C60.7044 21.4149 61.0005 21.7367 61.2966 22.0586C61.7407 22.5478 62.1913 23.0434 62.5518 23.5905C62.5968 23.6613 62.6419 23.7257 62.6805 23.7965C62.835 24.0475 62.9766 24.3114 63.1311 24.5689C63.3113 24.865 63.5044 25.1546 63.6975 25.4443C63.9485 25.8176 64.1931 26.1974 64.4441 26.5771C64.766 27.0792 65.0943 27.5813 65.4418 28.0704C65.7765 28.5403 66.1563 29.0166 66.6648 29.2805C66.9673 29.4415 67.302 29.5187 67.6432 29.5573C67.7784 29.5702 67.92 29.5831 68.0551 29.5895C68.1581 29.5895 68.2611 29.5895 68.3705 29.5895C68.6859 29.5766 69.0013 29.5058 69.291 29.3707C70.25 28.9201 70.5268 27.9353 70.3981 26.9505C70.3466 26.5643 70.411 26.1523 70.3788 25.7597C70.3337 25.1611 70.2114 24.5882 70.0248 24.0604C69.8252 23.494 69.5484 22.9726 69.2009 22.4963C68.6087 21.6788 67.8105 21.003 66.8386 20.5331C66.1499 20.1984 65.3839 19.7929 64.56 19.368C62.88 18.4862 60.9941 17.54 59.1403 16.9285C57.6148 16.4265 56.0958 16.1239 54.7054 16.1819C54.1068 16.2076 53.5404 16.3042 52.9933 16.4715C52.8324 16.523 52.665 16.5809 52.5105 16.6646C52.3882 16.729 52.2724 16.8191 52.1758 16.9157C52.1565 16.9414 52.1372 16.9607 52.1114 16.9865C51.8347 17.2632 51.2296 17.6173 50.9915 17.9777Z" fill="#0F8930"/>
</g>
<g style="mix-blend-mode:multiply" opacity="0.29">
<path d="M51.0301 17.9907C51.1782 18.0551 50.9014 18.6215 53.6048 19.3102C54.0167 19.4132 54.4931 19.5355 55.0337 19.6449C55.568 19.7608 56.1215 19.8316 56.6687 19.8959C57.956 20.044 59.2369 20.25 60.2668 21.0674C60.6079 21.3313 60.904 21.6403 61.2001 21.9493C61.6507 22.4127 62.0948 22.889 62.4681 23.4233C62.5132 23.4876 62.5582 23.552 62.6033 23.6228C62.7642 23.8674 62.9058 24.1184 63.0667 24.3695C63.247 24.6591 63.4401 24.9359 63.6396 25.2191C63.8906 25.586 64.1352 25.9529 64.3863 26.3262C64.7081 26.8154 65.0299 27.311 65.3775 27.7873C65.7122 28.2508 66.0856 28.7142 66.5812 28.9846C66.8773 29.1455 67.2055 29.2356 67.5274 29.2807C67.6625 29.3 67.7913 29.3128 67.9264 29.3193C68.0294 29.3193 68.126 29.3257 68.229 29.3193C68.5379 29.3128 68.8533 29.242 69.1301 29.1069C70.0441 28.6627 70.308 27.7165 70.1793 26.7575C70.1278 26.3841 70.1793 25.9851 70.1535 25.6053C70.102 25.026 69.9798 24.4724 69.7995 23.9704C69.6064 23.4297 69.3296 22.9212 68.9949 22.4642C68.4156 21.6725 67.6497 21.0224 66.7163 20.5589C66.0534 20.2307 65.3131 19.8316 64.5279 19.4132C62.9058 18.5507 61.0907 17.6431 59.2948 17.0445C57.7565 16.5296 56.2245 16.2206 54.802 16.2528C54.197 16.2657 53.6177 16.3493 53.0641 16.4974C52.8968 16.5424 52.7294 16.5939 52.5685 16.6776C52.4398 16.742 52.3239 16.8385 52.2338 16.9351C52.2145 16.9608 52.1952 16.9866 52.1759 17.0059C51.9313 17.2827 51.2425 17.6431 51.0237 17.9843L51.0301 17.9907Z" fill="#0E842D"/>
</g>
<g style="mix-blend-mode:multiply" opacity="0.34">
<path d="M51.0753 18.0098C51.2619 18.0935 51.056 18.6342 53.6178 19.2971C54.0233 19.4001 54.4932 19.5224 55.021 19.6318C55.5488 19.7477 56.0959 19.8185 56.6302 19.8829C57.8982 20.0245 59.1533 20.224 60.1832 21.0029C60.5179 21.2539 60.8204 21.55 61.1165 21.8396C61.5671 22.2838 62.0177 22.7408 62.391 23.2493C62.4361 23.3136 62.4811 23.378 62.5262 23.4424C62.6871 23.6741 62.8351 23.9187 62.996 24.1568C63.1827 24.4336 63.3758 24.704 63.5689 24.9807C63.8199 25.3348 64.071 25.6952 64.3156 26.0557C64.6374 26.532 64.9592 27.0147 65.3004 27.4846C65.6351 27.9352 66.002 28.3922 66.4783 28.669C66.7679 28.8363 67.0833 28.9264 67.3987 28.9844C67.5275 29.0101 67.6562 29.023 67.7849 29.0359C67.8815 29.0423 67.9845 29.0487 68.081 29.0487C68.3836 29.0487 68.6925 28.9844 68.9693 28.8492C69.8383 28.4179 70.0828 27.4975 69.9606 26.577C69.9091 26.2166 69.9606 25.8304 69.9219 25.4699C69.864 24.9099 69.7417 24.3757 69.5679 23.8994C69.3748 23.378 69.1109 22.8952 68.7826 22.4511C68.2226 21.6916 67.4824 21.0544 66.5877 20.6038C65.9505 20.2819 65.2425 19.8893 64.4894 19.4838C62.9252 18.6406 61.1809 17.7652 59.4494 17.1859C57.8917 16.6645 56.3469 16.3491 54.8987 16.3556C54.2872 16.3556 53.7015 16.4264 53.135 16.5551C52.9677 16.5937 52.7939 16.6388 52.633 16.7225C52.5042 16.7868 52.3819 16.8898 52.3047 16.9928C52.2854 17.0185 52.2725 17.0443 52.2532 17.07C52.0344 17.3468 51.2619 17.7073 51.0688 18.0355L51.0753 18.0098Z" fill="#0D802A"/>
</g>
<g style="mix-blend-mode:multiply" opacity="0.38">
<path d="M51.1139 18.0291C51.3327 18.1256 51.1975 18.647 53.6306 19.2778C54.0361 19.3808 54.4931 19.5031 55.0081 19.6189C55.5294 19.7348 56.0637 19.812 56.5915 19.87C57.8402 19.9987 59.0696 20.1982 60.093 20.932C60.4278 21.1702 60.7303 21.447 61.0264 21.7302C61.4769 22.155 61.9275 22.5863 62.3073 23.0754C62.3523 23.1334 62.3974 23.1977 62.4424 23.2557C62.6034 23.481 62.7578 23.7127 62.9188 23.9444C63.1054 24.2083 63.305 24.4722 63.4981 24.7426C63.7491 25.0837 64.0001 25.4377 64.2447 25.7853C64.5666 26.2487 64.8884 26.7186 65.2295 27.1756C65.5578 27.6198 65.9183 28.0639 66.3881 28.3407C66.6714 28.508 66.9739 28.6046 67.2828 28.6754C67.4051 28.7011 67.5339 28.7269 67.6626 28.7397C67.7592 28.7526 67.8557 28.759 67.9523 28.759C68.2483 28.759 68.5573 28.7011 68.8212 28.5659C69.6515 28.1476 69.8768 27.2593 69.7481 26.371C69.6966 26.0235 69.7417 25.6501 69.703 25.3025C69.6451 24.7619 69.5228 24.2469 69.349 23.7899C69.1624 23.2879 68.8985 22.8244 68.5831 22.3996C68.0424 21.6658 67.3279 21.0543 66.4783 20.6102C65.8668 20.2884 65.1845 19.9086 64.4636 19.5095C62.9574 18.6856 61.2838 17.8424 59.6103 17.2824C58.0397 16.7546 56.4756 16.4263 55.0016 16.407C54.3837 16.4006 53.7851 16.4521 53.2122 16.5615C53.0384 16.5937 52.8646 16.6323 52.6973 16.716C52.5621 16.7804 52.4463 16.8898 52.369 16.9992C52.3497 17.025 52.3368 17.0507 52.324 17.0764C52.0922 17.3082 51.2812 17.7201 51.1074 18.0226L51.1139 18.0291Z" fill="#0C7B27"/>
</g>
<g style="mix-blend-mode:multiply" opacity="0.43">
<path d="M51.1589 18.0484C51.4164 18.1643 51.3456 18.6599 53.6499 19.265C54.049 19.368 54.4996 19.4903 55.0016 19.6061C55.5101 19.722 56.0379 19.8057 56.5529 19.8571C57.7759 19.9794 58.986 20.1725 60.0094 20.8677C60.3441 21.093 60.6466 21.3569 60.9491 21.6208C61.4062 22.0199 61.8567 22.4383 62.2429 22.9017C62.288 22.9596 62.3395 23.0176 62.3845 23.0755C62.5519 23.2879 62.7064 23.5132 62.8737 23.732C63.0604 23.9895 63.2599 24.2405 63.4595 24.498C63.7105 24.8327 63.9615 25.1674 64.2061 25.515C64.5279 25.9656 64.8498 26.429 65.1845 26.8731C65.5128 27.3044 65.8668 27.7421 66.3238 28.0253C66.5941 28.1927 66.8902 28.3021 67.1863 28.3729C67.3086 28.4051 67.4309 28.4308 67.5532 28.4501C67.6433 28.463 67.7399 28.4759 67.8364 28.4759C68.1261 28.4888 68.4286 28.4244 68.6925 28.2892C69.4778 27.8837 69.6902 27.0276 69.5614 26.1651C69.51 25.8304 69.5421 25.4764 69.5035 25.1417C69.4391 24.6203 69.3169 24.1247 69.1495 23.6934C68.9628 23.2107 68.7054 22.773 68.4028 22.361C67.875 21.6594 67.1927 21.0672 66.3817 20.6296C65.796 20.3142 65.1459 19.9408 64.4571 19.5546C63.0153 18.7436 61.4062 17.9454 59.797 17.3983C58.1878 16.8512 56.6301 16.5294 55.1304 16.4843C54.506 16.465 53.8945 16.5036 53.3152 16.6002C53.135 16.6259 52.9548 16.6581 52.7874 16.7418C52.6522 16.8062 52.5299 16.9156 52.4591 17.0314C52.4398 17.0572 52.427 17.0894 52.4205 17.1151C52.2081 17.334 51.3199 17.7652 51.1718 18.0484H51.1589Z" fill="#0B7624"/>
</g>
<g style="mix-blend-mode:multiply" opacity="0.48">
<path d="M51.1975 18.0613C51.4936 18.19 51.4872 18.6663 53.6628 19.2456C54.0554 19.3486 54.4931 19.4709 54.9887 19.5868C55.4844 19.7026 56.0057 19.7863 56.5142 19.8378C57.7179 19.9537 58.9087 20.1403 59.9193 20.7904C60.254 21.0028 60.5565 21.2539 60.859 21.5049C61.316 21.8847 61.7666 22.2773 62.1592 22.7214C62.2107 22.7794 62.2558 22.8309 62.3008 22.8888C62.4682 23.0948 62.6291 23.3072 62.7965 23.5196C62.9896 23.7642 63.1891 24.0088 63.3822 24.2598C63.6332 24.5816 63.8843 24.9099 64.1353 25.2446C64.4571 25.6823 64.779 26.1329 65.1137 26.5706C65.4355 26.9954 65.7895 27.4202 66.2272 27.7034C66.4911 27.8772 66.7743 27.9867 67.064 28.0703C67.1798 28.1025 67.2957 28.1347 67.418 28.1604C67.5081 28.1798 67.5982 28.1926 67.6948 28.1991C67.978 28.2184 68.2805 28.154 68.5316 28.0188C69.2718 27.6262 69.4649 26.8023 69.3361 25.972C69.2846 25.6501 69.3104 25.309 69.2653 24.9872C69.1945 24.4851 69.0722 24.0088 68.9113 23.6033C68.7311 23.1463 68.4736 22.7214 68.1775 22.3288C67.669 21.6594 67.0189 21.0865 66.2401 20.6553C65.6737 20.3399 65.0557 19.9794 64.3992 19.6061C63.0153 18.8144 61.4769 18.0484 59.9257 17.5206C58.3744 16.9928 56.7267 16.6323 55.2012 16.5615C54.5704 16.5358 53.9524 16.5615 53.3538 16.6323C53.1736 16.6516 52.9869 16.6774 52.8131 16.7611C52.678 16.8254 52.5492 16.9413 52.4913 17.0636C52.4784 17.0958 52.4656 17.1215 52.4591 17.1473C52.2725 17.3597 51.307 17.7974 51.1782 18.0677L51.1975 18.0613Z" fill="#0A7221"/>
</g>
<g style="mix-blend-mode:multiply" opacity="0.53">
<path d="M51.2425 18.0806C51.5772 18.2287 51.6352 18.6793 53.6756 19.2328C54.0618 19.3358 54.4931 19.4645 54.9758 19.574C55.4586 19.6834 55.9799 19.7799 56.4691 19.825C57.647 19.9344 58.8185 20.1082 59.8226 20.7261C60.1573 20.9257 60.4599 21.1574 60.7624 21.3955C61.2194 21.756 61.6764 22.1293 62.0755 22.5477C62.127 22.5992 62.172 22.6507 62.2235 22.7086C62.3973 22.9017 62.5582 23.1077 62.7256 23.3137C62.9187 23.5518 63.1182 23.7836 63.3178 24.0281C63.5752 24.3371 63.8263 24.6589 64.0709 24.9872C64.3927 25.412 64.7145 25.8497 65.0428 26.281C65.3646 26.6929 65.7122 27.1113 66.137 27.401C66.3945 27.5748 66.6713 27.6906 66.9481 27.7872C67.0639 27.8258 67.1733 27.858 67.2892 27.8837C67.3793 27.903 67.4694 27.9223 67.5595 27.9288C67.8363 27.9545 68.1324 27.8902 68.3834 27.755C69.085 27.3752 69.2588 26.5835 69.1301 25.7854C69.0786 25.4764 69.0979 25.1481 69.0529 24.8456C68.9821 24.3629 68.8533 23.9059 68.6988 23.5196C68.5186 23.082 68.274 22.6764 67.9844 22.3031C67.4887 21.6594 66.8708 21.1123 66.137 20.6875C65.5964 20.3785 65.0106 20.0245 64.3863 19.6576C63.0603 18.8852 61.5927 18.1514 60.1058 17.6429C58.4967 17.0894 56.8746 16.7418 55.3234 16.6453C54.6862 16.6066 54.0554 16.6195 53.4503 16.671C53.2636 16.6903 53.077 16.7096 52.8968 16.7933C52.7551 16.8577 52.6328 16.98 52.5749 17.1023C52.562 17.1344 52.5492 17.1602 52.5492 17.1924C52.3818 17.3984 51.3391 17.8489 51.2361 18.0935L51.2425 18.0806Z" fill="#096D1E"/>
</g>
<g style="mix-blend-mode:multiply" opacity="0.57">
<path d="M51.281 18.1001C51.6479 18.2674 51.7831 18.6923 53.6883 19.2136C54.0681 19.3166 54.4929 19.4454 54.9628 19.5612C55.4327 19.6771 55.9476 19.7672 56.4304 19.8122C57.589 19.9152 58.7411 20.0826 59.7388 20.6555C60.0671 20.8421 60.3761 21.061 60.6786 21.2862C61.1356 21.621 61.5926 21.975 61.9981 22.3805C62.0496 22.432 62.0947 22.477 62.1462 22.5285C62.3199 22.7152 62.4873 22.9083 62.6546 23.1014C62.8542 23.3267 63.0537 23.552 63.2533 23.7901C63.5107 24.0926 63.7618 24.4016 64.0064 24.717C64.3282 25.1354 64.65 25.5602 64.9783 25.9786C65.3001 26.3841 65.6348 26.7896 66.0532 27.0793C66.3043 27.2531 66.5682 27.3818 66.8321 27.4783C66.9415 27.517 67.0509 27.5556 67.1603 27.5878C67.244 27.6135 67.3341 27.6264 67.4242 27.6393C67.6946 27.6714 67.9907 27.6135 68.2353 27.4719C68.8918 27.105 69.0527 26.3455 68.924 25.5731C68.8725 25.277 68.8854 24.968 68.8339 24.672C68.7566 24.2085 68.6279 23.7708 68.4799 23.4104C68.3061 22.992 68.0615 22.6122 67.7847 22.2518C67.3084 21.6403 66.7162 21.1125 66.021 20.6941C65.5061 20.3915 64.9525 20.044 64.3604 19.6899C63.0923 18.9369 61.6956 18.2353 60.2666 17.7461C58.6446 17.1861 57.0032 16.8256 55.4262 16.7033C54.7826 16.6518 54.1453 16.6518 53.5274 16.684C53.3408 16.6969 53.1412 16.7098 52.9674 16.7934C52.8258 16.8578 52.6971 16.9865 52.6456 17.1153C52.6327 17.1475 52.6263 17.1796 52.6263 17.2118C52.4847 17.4114 51.3647 17.8748 51.2874 18.1001H51.281Z" fill="#09681B"/>
</g>
<g style="mix-blend-mode:multiply" opacity="0.62">
<path d="M51.3262 18.1192C51.7317 18.2994 51.9312 18.7113 53.7078 19.2005C54.0811 19.3035 54.4995 19.4323 54.9565 19.5481C55.4135 19.664 55.922 19.7605 56.3983 19.7991C57.5376 19.8957 58.664 20.0566 59.6553 20.5909C59.9835 20.7647 60.2925 20.9706 60.6015 21.1766C61.0649 21.492 61.5219 21.8267 61.9274 22.2065C61.9789 22.2515 62.0304 22.303 62.0755 22.3481C62.2557 22.5219 62.423 22.7085 62.5968 22.8952C62.7964 23.114 62.9959 23.3265 63.1954 23.5517C63.4529 23.8414 63.7039 24.1439 63.9485 24.4464C64.2704 24.852 64.5922 25.2639 64.914 25.6694C65.2294 26.0621 65.5641 26.4611 65.9632 26.7572C66.2014 26.931 66.4588 27.0662 66.7163 27.1756C66.8193 27.2207 66.9287 27.2657 67.0381 27.2979C67.1218 27.3236 67.2055 27.343 67.2956 27.3558C67.5595 27.3944 67.8492 27.3365 68.0873 27.1949C68.7052 26.8409 68.8404 26.1135 68.7117 25.3733C68.6602 25.0901 68.6666 24.794 68.6151 24.5172C68.5315 24.0731 68.4027 23.6547 68.2611 23.32C68.0873 22.9209 67.8492 22.5605 67.5853 22.2193C67.1283 21.6336 66.5618 21.1251 65.9117 20.7196C65.4225 20.4171 64.8947 20.0759 64.3347 19.7348C63.1246 19.001 61.7987 18.338 60.4341 17.8617C58.7992 17.2953 57.1385 16.9284 55.5358 16.7803C54.8792 16.7224 54.2356 16.7031 53.6112 16.716C53.4181 16.716 53.2186 16.7288 53.0383 16.8125C52.8903 16.8769 52.7616 17.0121 52.7229 17.1408C52.7101 17.173 52.7036 17.2052 52.7036 17.2373C52.5813 17.4304 51.3841 17.9003 51.3326 18.1127L51.3262 18.1192Z" fill="#086318"/>
</g>
<g style="mix-blend-mode:multiply" opacity="0.67">
<path d="M51.3647 18.1321C51.8089 18.3316 52.0728 18.7178 53.7141 19.1813C54.081 19.2843 54.493 19.413 54.9371 19.5289C55.407 19.6512 55.8833 19.7413 56.3467 19.7799C57.4603 19.87 58.5738 20.0245 59.5587 20.5137C59.8869 20.6746 60.1959 20.8613 60.5049 21.0608C60.9683 21.3569 61.4253 21.6658 61.8437 22.0263C61.8952 22.0713 61.9467 22.1164 61.9982 22.1615C62.1784 22.3288 62.3522 22.5026 62.526 22.6764C62.7255 22.8824 62.9315 23.0948 63.131 23.3072C63.3885 23.584 63.6395 23.8736 63.8906 24.1761C64.2124 24.5688 64.5342 24.9679 64.8561 25.3669C65.1715 25.7531 65.4997 26.1393 65.8859 26.4354C66.1176 26.6157 66.3622 26.7508 66.6133 26.8731C66.7163 26.9246 66.8128 26.9697 66.9222 27.0083C66.9995 27.034 67.0832 27.0598 67.1733 27.0727C67.4307 27.1177 67.7204 27.0598 67.9521 26.9246C68.525 26.5835 68.6473 25.8883 68.5185 25.1803C68.467 24.9099 68.4606 24.6267 68.4091 24.3628C68.3254 23.938 68.1967 23.5389 68.0487 23.2235C67.8813 22.8502 67.6431 22.509 67.3921 22.1872C66.948 21.6337 66.4137 21.1445 65.8023 20.7454C65.3388 20.4493 64.8432 20.1146 64.3154 19.7863C63.1696 19.0654 61.9081 18.4411 60.6014 17.984C58.9536 17.4047 57.2736 17.0314 55.6451 16.8576C54.9822 16.7868 54.3321 16.7546 53.6948 16.7546C53.5017 16.7546 53.2958 16.7546 53.1091 16.8383C52.961 16.9027 52.8323 17.0443 52.7937 17.1795C52.7873 17.2116 52.7808 17.2503 52.7808 17.2824C52.6843 17.4627 51.4098 17.9519 51.3776 18.1385L51.3647 18.1321Z" fill="#075F15"/>
</g>
<g style="mix-blend-mode:multiply" opacity="0.72">
<path d="M51.4034 18.1515C51.8862 18.3639 52.2144 18.7308 53.7271 19.1685C54.0875 19.2715 54.493 19.4003 54.9243 19.5161C55.3813 19.6384 55.8512 19.735 56.3082 19.7671C57.4024 19.8444 58.4902 19.9989 59.4686 20.4494C59.7969 20.5975 60.1058 20.7713 60.4148 20.9515C60.8782 21.2218 61.3417 21.5179 61.7601 21.8526C61.8115 21.8913 61.863 21.9363 61.9145 21.9814C62.1012 22.1358 62.275 22.3032 62.4488 22.4706C62.6548 22.6637 62.8607 22.8696 63.0603 23.0756C63.3177 23.3459 63.5688 23.6227 63.8198 23.9124C64.1416 24.2921 64.4635 24.6848 64.7789 25.071C65.0878 25.4507 65.4161 25.8241 65.783 26.1266C66.0083 26.3068 66.24 26.4549 66.4782 26.5836C66.5747 26.6351 66.6713 26.6866 66.7742 26.7316C66.8515 26.7638 66.9352 26.7896 67.0188 26.8025C67.2699 26.8539 67.5531 26.8025 67.7784 26.6608C68.3126 26.3326 68.4156 25.6696 68.2869 24.9873C68.2418 24.7298 68.2225 24.4659 68.171 24.2149C68.0809 23.8094 67.9522 23.4296 67.8105 23.14C67.6432 22.786 67.4179 22.4641 67.1669 22.1616C66.7421 21.6402 66.2336 21.1703 65.6607 20.7777C65.223 20.4816 64.7596 20.1598 64.2575 19.8444C63.1697 19.1428 61.9789 18.5506 60.7366 18.1129C59.076 17.5272 57.3831 17.1474 55.7224 16.9479C55.053 16.8642 54.39 16.8191 53.7464 16.7998C53.5468 16.7934 53.3409 16.787 53.1478 16.8706C52.9933 16.935 52.8645 17.0766 52.8324 17.2182C52.8259 17.2504 52.8195 17.289 52.8324 17.3212C52.7551 17.495 51.4034 17.9906 51.397 18.1644L51.4034 18.1515Z" fill="#065A12"/>
</g>
<g style="mix-blend-mode:multiply" opacity="0.76">
<path d="M51.4484 18.1708C51.9634 18.4025 52.3624 18.7501 53.7463 19.1491C54.1003 19.2521 54.4994 19.3873 54.9178 19.5032C55.3684 19.6255 55.8318 19.722 56.2695 19.7542C57.3444 19.825 58.4129 19.973 59.3849 20.3786C59.7131 20.5137 60.0221 20.6746 60.3311 20.8356C60.7945 21.0866 61.2579 21.3634 61.6892 21.6723C61.7407 21.7109 61.7922 21.7496 61.8437 21.7882C62.0303 21.9298 62.2106 22.0907 62.3908 22.2516C62.5968 22.4383 62.8027 22.6314 63.0023 22.8309C63.2598 23.0884 63.5172 23.3587 63.7618 23.6355C64.0836 24.0024 64.3991 24.3822 64.7209 24.7619C65.0298 25.1288 65.3452 25.4957 65.7057 25.7983C65.9245 25.9785 66.1498 26.133 66.3751 26.2681C66.4652 26.3261 66.5618 26.3776 66.6583 26.4226C66.7356 26.4548 66.8128 26.487 66.8965 26.5063C67.1475 26.5642 67.4243 26.5063 67.6431 26.3711C68.1388 26.0557 68.216 25.4249 68.0873 24.7748C68.0422 24.5302 68.0165 24.2792 67.9585 24.041C67.862 23.6548 67.7333 23.2944 67.5981 23.0305C67.4307 22.6958 67.2119 22.3932 66.9737 22.11C66.5618 21.6144 66.0919 21.1703 65.5577 20.7841C65.1457 20.4944 64.708 20.179 64.2446 19.8701C63.2147 19.1878 62.0947 18.6278 60.9168 18.2094C59.2433 17.6172 57.5311 17.231 55.8447 17.0057C55.1688 16.9156 54.4994 16.8577 53.8364 16.8126C53.6305 16.7998 53.418 16.7869 53.2249 16.8706C53.0705 16.9349 52.9417 17.083 52.9095 17.231C52.9031 17.2696 52.9031 17.3018 52.9095 17.3404C52.8581 17.5078 51.4291 18.0163 51.442 18.1708H51.4484Z" fill="#05550F"/>
</g>
<g style="mix-blend-mode:multiply" opacity="0.81">
<path d="M51.4873 18.1901C52.0409 18.4347 52.5043 18.7694 53.7595 19.1363C54.107 19.2393 54.4932 19.3744 54.9052 19.4903C55.3493 19.619 55.7999 19.7156 56.2311 19.7413C57.2803 19.8057 58.3295 19.9409 59.295 20.3142C59.6233 20.4365 59.9322 20.5781 60.2412 20.7326C60.7111 20.9643 61.1745 21.2153 61.6058 21.5114C61.6573 21.55 61.7152 21.5822 61.7667 21.6209C61.9598 21.756 62.14 21.9041 62.3203 22.0521C62.5262 22.2259 62.7386 22.4126 62.9382 22.5992C63.2021 22.8438 63.4531 23.1077 63.6977 23.3781C64.0195 23.7321 64.3349 24.099 64.6503 24.4723C64.9593 24.8328 65.2683 25.1932 65.6158 25.4957C65.8218 25.676 66.0407 25.8369 66.2531 25.9849C66.3432 26.0429 66.4333 26.1072 66.5299 26.1523C66.6007 26.1909 66.6779 26.2231 66.7616 26.2424C67.0062 26.3068 67.2765 26.2553 67.4889 26.1137C67.9395 25.8176 68.0039 25.2061 67.8751 24.5946C67.8301 24.3629 67.7979 24.1247 67.74 23.9059C67.6434 23.539 67.5082 23.1978 67.3795 22.9532C67.2186 22.6379 66.9997 22.3611 66.7745 22.0907C66.3818 21.6273 65.9377 21.196 65.4421 20.8291C65.0559 20.5395 64.6503 20.237 64.2191 19.9409C63.2471 19.2779 62.198 18.7501 61.078 18.351C59.3916 17.746 57.6601 17.3533 55.9479 17.1023C55.2656 16.9993 54.5834 16.9285 53.9139 16.8641C53.708 16.8448 53.4891 16.8255 53.2896 16.9092C53.1351 16.9736 52.9999 17.128 52.9806 17.2825C52.9806 17.3211 52.9806 17.3598 52.9871 17.3919C52.9613 17.5529 51.4487 18.0742 51.4873 18.203V18.1901Z" fill="#04510C"/>
</g>
<g style="mix-blend-mode:multiply" opacity="0.86">
<path d="M51.5323 18.2029C52.1245 18.4668 52.6523 18.7758 53.7723 19.1169C54.1199 19.2199 54.4932 19.3551 54.8923 19.4709C55.3235 19.5997 55.7677 19.6962 56.1925 19.7219C57.2223 19.7799 58.2458 19.9086 59.2113 20.2369C59.5331 20.3463 59.8485 20.475 60.1639 20.6102C60.6338 20.8162 61.0972 21.0543 61.5349 21.3247C61.5864 21.3569 61.6444 21.3891 61.6959 21.4277C61.889 21.55 62.0756 21.6916 62.2558 21.8332C62.4683 22.0005 62.6742 22.1743 62.8802 22.3546C63.1441 22.5927 63.3951 22.8437 63.6397 23.1012C63.9616 23.4424 64.277 23.8028 64.5924 24.1568C64.8949 24.5044 65.2038 24.8584 65.5321 25.161C65.7317 25.3476 65.9376 25.515 66.1436 25.6695C66.2273 25.7338 66.3174 25.7982 66.4075 25.8497C66.4783 25.8883 66.5491 25.9205 66.6264 25.9462C66.8645 26.017 67.1349 25.9655 67.3408 25.8239C67.7528 25.5407 67.7978 24.9614 67.6691 24.3821C67.624 24.1633 67.5854 23.938 67.5211 23.732C67.4181 23.3844 67.2829 23.0626 67.1606 22.8437C66.9997 22.5541 66.7937 22.2902 66.5749 22.0392C66.2015 21.6015 65.7832 21.196 65.3261 20.8355C64.9657 20.5523 64.5859 20.2562 64.1869 19.9665C63.2793 19.3164 62.3009 18.8272 61.2388 18.4475C59.5396 17.836 57.7888 17.4434 56.0509 17.1601C55.3621 17.0507 54.6734 16.9606 53.9911 16.8769C53.7787 16.8512 53.5599 16.8319 53.3603 16.9091C53.1994 16.9735 53.0642 17.1344 53.0514 17.2889C53.0514 17.3275 53.0514 17.3661 53.0642 17.4047C53.0642 17.5528 51.4744 18.087 51.5323 18.2029Z" fill="#034C09"/>
</g>
<g style="mix-blend-mode:multiply" opacity="0.91">
<path d="M51.5707 18.2224C52.2015 18.4992 52.7937 18.7953 53.785 19.1043C54.1261 19.2072 54.493 19.3424 54.8792 19.4583C55.304 19.587 55.7353 19.69 56.1472 19.7093C57.1578 19.7608 58.1619 19.8831 59.1145 20.1727C59.4364 20.2693 59.7518 20.3852 60.0672 20.5075C60.5371 20.6941 61.0069 20.9065 61.4511 21.1576C61.509 21.1897 61.5605 21.2219 61.612 21.2541C61.8051 21.37 61.9982 21.4923 62.1849 21.6274C62.3973 21.7819 62.6097 21.9493 62.8092 22.1231C63.0731 22.3484 63.3241 22.5865 63.5752 22.8375C63.897 23.1658 64.2124 23.5134 64.5214 23.861C64.8239 24.2021 65.1264 24.5433 65.4418 24.8522C65.6349 25.0389 65.828 25.2127 66.0276 25.38C66.1112 25.4444 66.1885 25.5152 66.2786 25.5731C66.343 25.6182 66.4138 25.6504 66.491 25.6761C66.7227 25.7534 66.9866 25.7083 67.1862 25.5603C67.5595 25.2899 67.5788 24.7428 67.4501 24.1892C67.405 23.9833 67.3535 23.7773 67.2892 23.5778C67.1797 23.2431 67.0446 22.9534 66.9287 22.7539C66.7678 22.4835 66.5682 22.2389 66.3623 22.0072C66.0018 21.6017 65.6156 21.2155 65.2037 20.8615C64.869 20.5783 64.5214 20.295 64.1545 20.0183C63.3048 19.3875 62.3973 18.9305 61.3931 18.57C59.681 17.9457 57.9109 17.5466 56.1472 17.2376C55.4521 17.1153 54.7505 17.0123 54.0617 16.9093C53.8493 16.8772 53.624 16.8514 53.4181 16.9287C53.2572 16.993 53.122 17.1604 53.1091 17.3213C53.1091 17.3599 53.1155 17.3985 53.1284 17.4372C53.1606 17.5788 51.4806 18.1259 51.5643 18.2224H51.5707Z" fill="#024706"/>
</g>
<g style="mix-blend-mode:multiply" opacity="0.95">
<path d="M51.6157 18.2415C52.2787 18.5376 52.9417 18.8144 53.8042 19.0847C54.1389 19.1877 54.4994 19.3293 54.8727 19.4452C55.2911 19.5739 55.7159 19.6833 56.115 19.6962C57.0998 19.7413 58.0846 19.8571 59.0372 20.1017C59.3591 20.1854 59.6745 20.2819 59.9899 20.3914C60.4662 20.5587 60.9296 20.7518 61.3802 20.9771C61.4381 21.0029 61.4896 21.035 61.5475 21.0608C61.7471 21.1638 61.9402 21.2796 62.1268 21.4084C62.3457 21.55 62.5517 21.7109 62.7576 21.8782C63.0215 22.0907 63.2726 22.3224 63.5236 22.567C63.8454 22.8824 64.1608 23.2171 64.4698 23.5582C64.7659 23.8865 65.062 24.2212 65.3709 24.5302C65.5576 24.7168 65.7378 24.8971 65.9245 25.0708C66.0017 25.1416 66.079 25.2124 66.1627 25.2768C66.227 25.3219 66.2978 25.3605 66.3686 25.3862C66.5939 25.4699 66.8578 25.4249 67.0509 25.2833C67.3856 25.0322 67.3856 24.5108 67.2569 23.9895C67.2118 23.7964 67.1539 23.6033 67.0895 23.423C66.9737 23.1076 66.8385 22.8373 66.7291 22.6571C66.5746 22.4061 66.3751 22.1872 66.1755 21.9684C65.8344 21.5886 65.4804 21.2217 65.1006 20.8806C64.7916 20.5973 64.4762 20.3206 64.1351 20.0631C63.3434 19.4452 62.5066 19.0268 61.5669 18.6856C59.8483 18.0484 58.0524 17.6493 56.263 17.3146C55.555 17.1859 54.8534 17.0636 54.1518 16.9477C53.9329 16.9091 53.7012 16.8769 53.4952 16.9542C53.3279 17.0185 53.1927 17.1859 53.1927 17.3532C53.1927 17.3919 53.1991 17.4369 53.2185 17.4755C53.27 17.6107 51.5192 18.1707 51.6222 18.2415H51.6157Z" fill="#014303"/>
</g>
<g style="mix-blend-mode:multiply">
<path d="M53.2506 17.3791C53.2506 17.4242 53.2635 17.4628 53.2828 17.5079C53.3471 17.6366 51.5256 18.203 51.6607 18.261C52.3623 18.5699 53.0897 18.8338 53.817 19.072C54.5122 19.3037 55.3361 19.6577 56.0699 19.6835C57.9236 19.7543 59.771 20.089 61.4638 20.8871C63.2146 21.711 64.4698 23.4103 65.8022 24.7749C65.9309 24.9036 66.0596 25.0388 66.2334 25.1096C66.4523 25.1997 66.7162 25.1611 66.8964 25.0131C67.4821 24.5432 66.832 23.0499 66.5038 22.5671C66.3493 22.3418 66.1562 22.1359 65.9695 21.9363C65.3773 21.2991 64.7787 20.6619 64.1029 20.1083C63.3755 19.5097 62.6031 19.1235 61.7213 18.8017C59.9898 18.158 58.1747 17.746 56.366 17.3856C55.6515 17.244 54.937 17.1088 54.2225 16.9736C54.0037 16.9286 53.7655 16.89 53.5531 16.9736C53.3858 17.038 53.2442 17.2118 53.2506 17.3856V17.3791Z" fill="#003E00"/>
</g>
</g>
<path d="M37.6675 21.653L35.3181 21.7431L32.9558 21.2732L34.6422 27.9995L37.6675 21.653Z" fill="url(#paint4_linear_10_244)"/>
<path d="M56.8683 20.4688C56.8683 20.4688 57.7823 21.6596 60.6595 18.3704C62.7578 15.9696 67.6562 16.5553 71.5439 15.7958C75.4381 15.0362 78.1093 13.9871 78.1093 13.9871L73.4621 7.90438C73.4621 7.90438 72.96 7.78208 70.3982 8.54805C66.8644 9.59723 64.367 9.9255 61.7923 12.2685C59.2176 14.6114 55.6968 18.4477 56.8683 20.4688Z" fill="url(#paint5_linear_10_244)"/>
<path d="M77.06 20.3013C77.06 20.3013 78.5019 23.8801 82.66 24.1955C86.8181 24.5109 92.7785 22.5412 96.692 23.2557C100.612 23.9702 101.635 24.8005 101.635 24.8005L103 32.1384C103 32.1384 101.88 30.3811 98.0244 31.0055C94.1752 31.6363 88.144 30.6322 83.1556 26.9954C78.1672 23.3587 77.0085 21.4727 77.0085 21.4727L77.0536 20.3077L77.06 20.3013Z" fill="url(#paint6_linear_10_244)"/>
<path d="M74.0541 17.4629C74.0541 17.4629 73.8159 18.7566 75.3994 20.7263C76.9828 22.6895 84.5073 28.0319 84.5073 28.0319C84.5073 28.0319 81.6301 25.8241 81.5528 22.5993C81.4756 19.3681 81.9648 15.6413 81.6623 14.7144C81.3662 13.7875 80.4779 13.4914 79.0361 12.2234C77.5943 10.9554 73.4619 7.91724 73.4619 7.91724C73.4619 7.91724 74.0155 8.55447 74.1313 11.1935C74.2472 13.8261 73.8674 15.9052 74.0477 17.4757L74.0541 17.4629Z" fill="url(#paint7_linear_10_244)"/>
<path opacity="0.3" d="M56.8682 20.4687C56.8682 20.4687 57.7822 21.6594 60.6594 18.3703C62.7578 15.9694 67.6561 16.5551 71.5439 15.7956C72.4514 15.6218 73.2882 15.4287 74.0413 15.2356C73.9962 16.066 73.9769 16.8126 74.0477 17.4627C74.0477 17.4627 73.8096 18.7565 75.393 20.7261C76.9764 22.6893 84.5009 28.0318 84.5009 28.0318C84.5009 28.0318 84.3979 27.9545 84.2306 27.8001C86.1551 29.1389 87.2944 29.3577 90.2618 29.1582C91.1307 29.1003 92.064 29.0102 92.9909 28.8943C92.3215 28.9587 91.6585 29.0102 91.0277 29.0423C88.0347 29.1968 86.8761 28.9587 84.9064 27.5555C85.0802 27.7099 85.1832 27.7936 85.1832 27.7936C85.1832 27.7936 77.4849 22.2066 75.85 20.1661C74.2151 18.1257 74.4404 16.8062 74.4404 16.8062C74.3567 16.1368 74.3631 15.3708 74.3953 14.5276C73.6358 14.7078 72.7926 14.8945 71.8786 15.0618C67.9522 15.7763 62.9895 15.1005 60.9104 17.5207C58.0525 20.842 57.1128 19.6061 57.1128 19.6061C56.9712 19.3615 56.9132 19.0912 56.9261 18.8016C56.6493 19.4323 56.5978 20.0052 56.8682 20.4815V20.4687Z" fill="#4AE88F"/>
<path d="M66.15 16.1111C66.15 16.1111 66.1371 17.5722 61.8567 16.8578C58.7349 16.3364 55.1754 19.7865 51.6159 21.6016C48.05 23.4232 45.2822 24.2728 45.2822 24.2728L45.3144 16.8384C45.3144 16.8384 45.6427 16.4394 48.1466 15.4417C51.6031 14.0642 53.798 12.7769 57.2609 12.9571C60.7303 13.1373 65.8539 13.8711 66.1436 16.1111H66.15Z" fill="url(#paint8_linear_10_244)"/>
<path d="M49.9295 28.3858C49.9295 28.3858 50.9401 31.9646 47.8119 34.7582C44.6836 37.5452 38.7361 39.7209 36.0456 42.6624C33.3486 45.604 33.0332 46.8591 33.0332 46.8591L36.3738 53.225C36.3738 53.225 36.2065 51.2104 39.6566 49.318C43.1066 47.4256 47.3162 42.9714 49.0992 37.1655C50.8822 31.3596 50.6633 29.229 50.6633 29.229L49.9231 28.3794L49.9295 28.3858Z" fill="url(#paint9_linear_10_244)"/>
<path d="M50.6181 24.4015C50.6181 24.4015 51.59 25.2318 51.5192 27.6842C51.442 30.1366 48.6613 38.7811 48.6613 38.7811C48.6613 38.7811 49.6268 35.3503 47.7344 32.8722C45.8421 30.3941 43.203 27.8773 42.8812 26.9955C42.5593 26.1137 43.0871 25.3477 43.4669 23.5068C43.8467 21.6659 45.3142 16.8384 45.3142 16.8384C45.3142 16.8384 45.2563 17.6558 46.7561 19.7156C48.2558 21.7753 49.8135 23.1013 50.6181 24.3951V24.4015Z" fill="url(#paint10_linear_10_244)"/>
<path opacity="0.3" d="M66.1498 16.1112C66.1498 16.1112 66.1369 17.5723 61.8565 16.8578C58.7347 16.3364 55.1753 19.7865 51.6158 21.6017C50.7854 22.0265 50.0002 22.3934 49.2857 22.7152C49.8199 23.3138 50.2898 23.8609 50.6245 24.4016C50.6245 24.4016 51.5965 25.232 51.5256 27.6843C51.4484 30.1367 48.6678 38.7812 48.6678 38.7812C48.6678 38.7812 48.6999 38.6589 48.745 38.4401C48.0177 40.6285 47.2388 41.4975 44.7542 43.1646C44.0205 43.6538 43.2287 44.1558 42.4177 44.6386C42.9906 44.2717 43.5506 43.9048 44.072 43.5444C46.5565 41.8258 47.3354 40.9311 48.0563 38.6653C48.0112 38.8906 47.979 39.0194 47.979 39.0194C47.979 39.0194 50.7468 30.0788 50.8176 27.5427C50.8884 25.0067 49.91 24.1442 49.91 24.1442C49.5753 23.5842 49.1054 23.0177 48.5712 22.3998C49.2921 22.0715 50.071 21.6918 50.9013 21.2541C54.4608 19.381 58.0138 15.8215 61.1356 16.3686C65.4225 17.1217 65.4289 15.6091 65.4289 15.6091C65.3967 15.3388 65.2744 15.1006 65.0942 14.8882C65.6928 15.1971 66.0854 15.5962 66.1563 16.1176L66.1498 16.1112Z" fill="#4AE88F"/>
<path d="M56.0893 15.0168C56.0893 15.0168 55.2267 16.6067 60.2538 18.1515C63.9163 19.2779 65.6799 24.9486 68.422 28.8493C71.164 32.7563 73.6228 35.1765 73.6228 35.1765L78.0255 27.0921C78.0255 27.0921 77.9097 26.4806 75.8177 24.0346C72.9277 20.6682 71.3442 18.0807 67.508 16.4007C63.6717 14.7207 57.737 12.7318 56.0828 15.0104L56.0893 15.0168Z" fill="url(#paint11_linear_10_244)"/>
<path d="M66.1692 37.114C66.1692 37.114 62.9444 40.4547 64.6372 45.1728C66.3301 49.8909 71.4151 55.4715 72.5479 60.1252C73.6808 64.7789 73.2688 66.3109 73.2688 66.3109L65.8795 71.4087C65.8795 71.4087 67.2634 69.3168 64.6823 65.3904C62.1076 61.464 60.2474 54.3515 61.8051 47.0909C63.3563 39.8239 64.8625 37.6354 64.8625 37.6354L66.1692 37.114Z" fill="url(#paint12_linear_10_244)"/>
<path d="M67.817 32.4216C67.817 32.4216 66.2787 32.795 64.8883 35.4984C63.5045 38.2018 61.3289 49.0862 61.3289 49.0862C61.3289 49.0862 62.3394 44.8444 65.8539 43.1773C69.3683 41.5102 73.7002 40.2165 74.5756 39.4312C75.4445 38.6523 75.3415 37.5324 76.0303 35.3246C76.719 33.1168 78.0321 27.092 78.0321 27.092C78.0321 27.092 77.6008 28.0125 74.7622 29.435C71.9237 30.8575 69.4584 31.4561 67.817 32.4216Z" fill="url(#paint13_linear_10_244)"/>
<path opacity="0.3" d="M56.0893 15.0169C56.0893 15.0169 55.2267 16.6068 60.2538 18.1516C63.9163 19.278 65.6799 24.9488 68.422 28.8494C69.0592 29.757 69.6836 30.5809 70.2629 31.3211C69.3295 31.6815 68.4992 32.0227 67.8169 32.4218C67.8169 32.4218 66.2785 32.7951 64.8882 35.4985C63.5043 38.2019 61.3287 49.0864 61.3287 49.0864C61.3287 49.0864 61.3673 48.9319 61.451 48.6744C60.9232 51.4422 61.245 52.8068 62.9186 55.9608C63.4078 56.8876 63.9678 57.866 64.5471 58.8315C64.148 58.1235 63.7682 57.4283 63.4271 56.746C61.7857 53.5341 61.4896 52.1438 62.0625 49.2923C61.9724 49.5563 61.9338 49.7172 61.9338 49.7172C61.9338 49.7172 64.3025 38.5173 65.7379 35.7238C67.1797 32.9303 68.7374 32.5248 68.7374 32.5248C69.4325 32.0999 70.2757 31.7395 71.2219 31.3597C70.6491 30.6131 70.0311 29.7763 69.4003 28.8558C66.6969 24.8973 65.0041 19.1107 61.3223 18.01C56.2695 16.5038 57.1642 14.856 57.1642 14.856C57.3637 14.5792 57.6341 14.3861 57.9559 14.251C57.1256 14.2574 56.469 14.4763 56.0828 15.0105L56.0893 15.0169Z" fill="#4AE88F"/>
<path d="M48.2494 8.94039L38.0473 12.1845C38.0473 12.1845 36.4767 4.44114 39.7273 2.81909C42.9778 1.19704 48.2494 8.94039 48.2494 8.94039Z" fill="url(#paint14_linear_10_244)"/>
<path d="M57.4668 8.18735L66.4717 9.6871C66.4717 9.6871 65.7959 1.19066 62.7771 0.0899879C59.7583 -1.01069 57.4668 8.18735 57.4668 8.18735Z" fill="url(#paint15_linear_10_244)"/>
<path d="M55.7352 16.8063C55.7352 16.8063 57.7692 18.9755 59.3655 12.4616C60.9618 5.94121 60.6271 5.32328 60.8975 2.46539C61.1742 -0.392502 62.32 0.0323203 62.32 0.0323203L55.3748 0.418522C55.3748 0.418522 54.2355 0.830471 53.7592 4.84697C53.2828 8.8699 54.0102 15.9567 54.0102 15.9567L55.7288 16.8063H55.7352Z" fill="url(#paint16_linear_10_244)"/>
<path d="M56.2825 19.368C56.2825 19.368 55.4972 17.5721 54.7119 16.3427C53.9266 15.1069 52.5814 13.4269 56.2825 12.1911C59.9836 10.9552 58.973 6.24999 64.0194 3.33417C69.0657 0.418345 71.9816 0.534206 72.8763 0.978338C73.771 1.42891 75.6762 9.04995 75.6762 10.0605C75.6762 11.0711 69.9604 12.8605 65.8088 14.0963C61.6571 15.3322 56.276 19.368 56.276 19.368H56.2825Z" fill="url(#paint17_linear_10_244)"/>
<path d="M52.6908 16.2847C52.6908 16.2847 50.8949 18.6598 47.1938 13.1629C43.4927 7.66598 43.718 7.04162 42.598 4.54418C41.478 2.04674 40.2422 2.6711 40.2422 2.6711L48.5391 1.54468C48.5391 1.54468 49.9938 1.66697 51.6802 5.16854C53.3602 8.66366 54.4802 15.1583 54.4802 15.1583L52.6843 16.2847H52.6908Z" fill="url(#paint18_linear_10_244)"/>
<path d="M61.329 15.1071C64.5795 12.1912 68.7312 10.5113 74.5564 9.83541C74.9619 9.79035 75.3159 9.75817 75.6442 9.73242C75.6635 9.87403 75.6763 9.98345 75.6763 10.0607C75.6763 11.0713 69.9606 12.8607 65.8089 14.0965C63.7298 14.7144 61.6444 15.5319 60.0867 16.1949C60.4664 15.8666 60.8719 15.5126 61.3225 15.1071H61.329Z" fill="url(#paint19_linear_10_244)"/>
<path d="M34.9961 14.283C34.9961 14.283 27.5231 17.4885 26.8859 34.2819C26.6349 40.9825 23.8478 42.5144 21.9232 44.1944C19.9987 45.8743 17.1665 45.3787 17.1665 45.3787C17.1665 45.3787 19.5288 44.0335 20.0566 40.1071C20.5844 36.1807 20.5007 26.442 22.3416 23.4167C24.1825 20.3915 26.4353 18.9175 28.9714 16.6711C31.5139 14.4311 34.9961 14.2766 34.9961 14.2766V14.283Z" fill="url(#paint20_linear_10_244)"/>
<path d="M52.2467 17.2377C52.2467 17.2377 46.2155 18.0358 38.1374 18.5958C30.0658 19.1558 30.8511 18.5121 27.7872 19.7222C24.4208 21.0482 22.3418 23.4233 22.3418 23.4233L27.3238 17.2055C29.6024 14.3669 32.7628 12.378 36.3159 11.5605C38.1825 11.1293 40.2616 10.698 42.1604 10.4019C47.2068 9.61663 51.2426 12.7577 51.2426 12.7577L52.2531 17.2441L52.2467 17.2377Z" fill="url(#paint21_linear_10_244)"/>
<path d="M7.02887 29.8663C6.73278 28.8815 8.033 38.3113 12.1718 41.903C16.5487 45.707 20.0503 45.1535 21.1059 44.7029C22.1551 44.2524 14.1865 48.404 14.1865 48.404C14.1865 48.404 10.4918 50.8435 6.72635 47.7024C2.96088 44.5613 0 35.5178 0 35.5178L7.02887 29.8663Z" fill="url(#paint22_linear_10_244)"/>
<path style="mix-blend-mode:multiply" d="M20.1663 42.4372C20.4495 41.8192 20.6555 41.182 20.7713 40.3967C21.0288 38.7039 21.2348 37.0046 21.6789 35.3439C22.5479 32.0934 23.1722 25.3284 26.4421 21.6788C27.3625 20.649 28.7915 18.9368 30.3041 18.866C30.7675 18.8467 30.0659 19.8894 29.9629 20.0954C29.7377 20.546 29.5317 21.003 29.3386 21.4664C28.8816 22.5735 28.5018 23.7128 28.1929 24.8714C27.3754 27.9353 27.0021 31.115 26.8862 34.2819C26.8025 36.5476 26.4228 38.9099 25.1998 40.8602C24.2214 42.4243 22.8053 43.4349 21.2927 44.4132C20.7456 44.7673 20.0826 45.0118 19.4454 44.8702C19.3488 44.8509 19.2458 44.8123 19.175 44.7415C19.0013 44.5548 19.1364 44.2587 19.2652 44.0399C19.6192 43.467 19.9217 42.9585 20.1599 42.4436L20.1663 42.4372Z" fill="url(#paint23_linear_10_244)"/>
<path d="M56.1988 18.6794C56.1988 18.6794 56.0572 16.7484 56.1666 15.3259C56.2696 13.9034 56.643 11.8501 53.0513 12.2298C49.4596 12.616 48.2238 7.97517 42.7783 7.39586C37.3329 6.81013 34.977 8.09103 34.4364 8.85699C33.8957 9.62296 35.6722 17.2376 36.1163 18.1451C36.5605 19.0527 42.0638 18.3576 46.0289 17.7911C49.9939 17.2247 56.2053 18.6794 56.2053 18.6794H56.1988Z" fill="url(#paint24_linear_10_244)"/>
<path d="M50.1675 16.8833C46.2025 15.5766 42.0444 15.7375 36.9401 17.4883C36.5861 17.6106 36.2771 17.7265 35.9939 17.8359C36.039 17.9711 36.0776 18.0741 36.1098 18.1449C36.5539 19.0524 42.0573 18.3573 46.0223 17.7908C48.0112 17.5076 50.0903 17.3982 51.6608 17.366C51.2038 17.2244 50.7082 17.0699 50.1611 16.8897L50.1675 16.8833Z" fill="url(#paint25_linear_10_244)"/>
<path d="M57.3832 11.9465C57.3832 11.9465 56.9327 10.6849 54.2228 11.0647C51.513 11.4444 50.1612 12.8283 51.0624 15.4738C51.9635 18.1193 52.266 18.8724 54.6734 19.5032C57.0807 20.134 59.1855 21.2668 59.6361 19.1234C60.0866 16.98 57.6793 12.8283 57.3832 11.9465Z" fill="url(#paint26_linear_10_244)"/>
<g style="mix-blend-mode:multiply" opacity="0.2">
<path d="M56.746 17.4885C56.9005 17.3405 57.0614 17.1602 57.055 16.9478C57.055 16.832 56.9906 16.729 56.9391 16.626C56.4242 15.6734 55.9929 14.6757 55.6647 13.6458C55.5745 13.369 55.4909 13.0794 55.5681 12.7962C55.5939 12.6996 55.6389 12.6031 55.6132 12.5065C55.581 12.3713 55.4265 12.3005 55.3235 12.204C55.0854 11.998 55.0532 11.6054 55.2463 11.3672C55.6453 11.4123 56.3341 11.6247 56.701 11.4766C56.392 11.1934 55.8578 11.1805 55.4522 11.1934C54.815 11.2127 54.1778 11.3028 53.5534 11.4509C53.3989 11.4895 53.2445 11.5346 53.1415 11.6504C53.0385 11.7663 53.0192 11.9658 53.1415 12.0559C53.238 12.1267 53.3861 12.1074 53.4633 12.1975C53.5727 12.3198 53.4633 12.5065 53.4891 12.661C53.5341 12.8991 53.8431 12.9635 54.0748 13.0472C54.6541 13.2532 54.9695 13.8646 55.1626 14.4375C55.3557 15.0104 55.4973 15.6412 55.9221 16.0789C56.1281 16.2913 56.392 16.4458 56.5851 16.671C56.7782 16.8963 56.9005 17.2246 56.7525 17.4821L56.746 17.4885ZM52.5879 15.8665C52.575 16.3235 53.0256 16.6389 53.3346 16.98C53.753 17.4499 53.9461 18.0678 54.152 18.66C54.2228 18.866 54.2936 19.0719 54.4288 19.2393C54.609 19.4646 54.8858 19.5997 55.1626 19.7027C55.4844 19.825 57.5957 20.6296 57.6085 19.9988C57.6085 19.8508 57.5184 19.7156 57.4219 19.5997C56.4499 18.409 55.0146 17.6816 53.9268 16.5938C53.5856 16.2527 53.2445 15.8536 52.7746 15.7249C52.736 15.712 52.6909 15.7055 52.6587 15.7249C52.6137 15.7506 52.6008 15.8085 52.5944 15.8665H52.5879Z" fill="#03A44F"/>
</g>
<g style="mix-blend-mode:multiply" opacity="0.2">
<path d="M56.8747 17.4433C57.0292 17.2953 57.1901 17.1151 57.1836 16.9027C57.1836 16.7868 57.1193 16.6838 57.0678 16.5808C56.5529 15.6282 56.1216 14.6305 55.7933 13.6006C55.7032 13.3239 55.6195 13.0342 55.6968 12.751C55.7225 12.6544 55.7676 12.5579 55.7418 12.4613C55.7096 12.3262 55.5552 12.2554 55.4522 12.1588C55.214 11.9528 55.1818 11.5602 55.3749 11.322C55.774 11.3671 56.4627 11.5795 56.8296 11.4315C56.5207 11.1483 55.9864 11.1354 55.5809 11.1483C54.9437 11.1676 54.3064 11.2577 53.6821 11.4057C53.5276 11.4443 53.3731 11.4894 53.2701 11.6053C53.1671 11.7211 53.1478 11.9207 53.2701 12.0108C53.3667 12.0816 53.5147 12.0623 53.592 12.1524C53.7014 12.2747 53.592 12.4613 53.6177 12.6158C53.6628 12.854 53.9717 12.9183 54.2035 13.002C54.7828 13.208 55.0982 13.8195 55.2913 14.3923C55.4844 14.9652 55.626 15.596 56.0508 16.0337C56.2568 16.2461 56.5207 16.4006 56.7138 16.6259C56.9069 16.8512 57.0292 17.1794 56.8811 17.4369L56.8747 17.4433ZM52.7166 15.8213C52.7037 16.2783 53.1543 16.5937 53.4632 16.9348C53.8816 17.4047 54.0747 18.0226 54.2807 18.6148C54.3515 18.8208 54.4223 19.0268 54.5575 19.1941C54.7377 19.4194 55.0145 19.5546 55.2913 19.6576C55.6131 19.7799 57.7243 20.5844 57.7372 19.9537C57.7372 19.8056 57.6471 19.6704 57.5505 19.5546C56.5786 18.3638 55.1432 17.6364 54.0554 16.5486C53.7143 16.2075 53.3731 15.8084 52.9032 15.6797C52.8646 15.6668 52.8196 15.6604 52.7874 15.6797C52.7423 15.7054 52.7295 15.7634 52.723 15.8213H52.7166Z" fill="#03A44F"/>
</g>
<g style="mix-blend-mode:multiply" opacity="0.2">
<path d="M56.1666 17.2631C56.3082 17.1151 56.4563 16.9413 56.4434 16.7353C56.4434 16.6259 56.3855 16.5229 56.334 16.4199C55.8641 15.493 55.4715 14.5275 55.1689 13.5298C55.0853 13.2659 55.0145 12.9763 55.0788 12.7059C55.1046 12.6158 55.1432 12.5193 55.1239 12.4292C55.0917 12.294 54.9565 12.2296 54.8536 12.1395C54.6347 11.94 54.6025 11.5602 54.7827 11.3285C55.1496 11.3736 55.7804 11.5795 56.1087 11.4315C55.8255 11.1547 55.3363 11.1483 54.9694 11.1611C54.3837 11.1804 53.8044 11.2641 53.2379 11.4122C53.1028 11.4508 52.9547 11.4958 52.8582 11.6053C52.7616 11.7147 52.7488 11.9142 52.8582 12.0043C52.9483 12.0687 53.077 12.0558 53.1543 12.1395C53.2508 12.2554 53.1543 12.4356 53.18 12.5901C53.2186 12.8218 53.5018 12.8797 53.7143 12.9634C54.2421 13.163 54.5317 13.7551 54.7055 14.3151C54.8793 14.8751 55.008 15.4802 55.3942 15.905C55.5809 16.111 55.8191 16.2654 55.9993 16.4778C56.1795 16.6967 56.2825 17.0185 56.1538 17.2631H56.1666ZM52.369 15.6861C52.3626 16.1303 52.7681 16.4392 53.0448 16.7675C53.431 17.2245 53.6048 17.8231 53.7915 18.4024C53.8559 18.602 53.9202 18.8015 54.049 18.9624C54.2163 19.1813 54.4674 19.31 54.7184 19.413C55.008 19.5353 56.9455 20.3141 56.9519 19.7026C56.9519 19.5546 56.8682 19.4259 56.7781 19.3164C55.8963 18.1578 54.5768 17.4562 53.5855 16.4006C53.2701 16.0659 52.9676 15.6797 52.5299 15.5574C52.4913 15.5445 52.4527 15.5381 52.4205 15.5574C52.3754 15.5831 52.3625 15.6411 52.3625 15.6926L52.369 15.6861Z" fill="#03A44F"/>
</g>
<path opacity="0.5" d="M55.3298 12.7768C55.4521 12.9313 55.5937 13.0729 55.6903 13.2531C55.8576 13.575 55.8254 13.9547 55.8834 14.3152C56.0121 15.1069 56.5979 15.7763 56.688 16.5745C56.7395 17.0057 56.6429 17.4499 56.733 17.8747C56.9132 18.7179 57.9367 19.265 58.7348 18.9496C58.8764 18.8917 59.018 18.808 59.1146 18.6922C59.2948 18.4733 59.3206 18.1579 59.3013 17.8747C59.2562 17.1216 58.9794 16.4007 58.7091 15.6927L57.7822 13.2789C57.5698 12.7253 57.3509 12.1589 56.9841 11.6826C56.8875 11.5539 55.922 11.6826 55.7611 11.7212C55.5165 11.7856 55.1496 11.9465 55.1238 12.2297C55.1045 12.4292 55.2075 12.6159 55.3298 12.7704V12.7768ZM51.2425 13.4656C51.2425 14.0384 51.3841 14.6563 51.8089 15.0361C52.1887 15.3708 52.723 15.4545 53.1735 15.6798C53.7657 15.9694 54.2098 16.4844 54.757 16.8513C54.9629 16.9864 55.2976 17.0765 55.4135 16.8577C55.4521 16.7869 55.4521 16.6968 55.4521 16.6131C55.4392 16.066 55.3813 15.4867 55.0466 15.0554C54.9179 14.8945 54.757 14.7593 54.6282 14.592C54.4802 14.3989 54.3836 14.1672 54.2871 13.9483C54.1004 13.5428 53.8687 13.1566 53.6112 12.7897C53.5275 12.6738 53.4374 12.558 53.3023 12.5001C53.1993 12.455 53.0834 12.455 52.9676 12.455C52.4784 12.455 51.6287 12.2748 51.3519 12.809C51.249 13.0085 51.2361 13.2338 51.2361 13.4591L51.2425 13.4656Z" fill="#4AE88F"/>
<path opacity="0.3" d="M54.9565 12.5388C55.0788 12.6933 55.2269 12.8349 55.317 13.0151C55.4843 13.3369 55.4522 13.7167 55.5101 14.0772C55.6388 14.8689 56.2246 15.5383 56.3147 16.3364C56.3662 16.7677 56.2696 17.2118 56.3597 17.6367C56.54 18.4799 57.5634 19.027 58.3615 18.7116C58.5096 18.6537 58.6448 18.57 58.7413 18.4541C58.9215 18.2353 58.9473 17.9199 58.928 17.6367C58.8765 16.8836 58.6061 16.1627 58.3358 15.4546L57.4089 13.0409C57.1965 12.4873 56.9777 11.9209 56.6108 11.4446C56.5142 11.3158 55.5487 11.4446 55.3878 11.4832C55.1432 11.5475 54.7763 11.7085 54.7506 11.9917C54.7312 12.1912 54.8342 12.3779 54.9565 12.5324V12.5388ZM50.8692 13.2275C50.8692 13.8004 51.0108 14.4183 51.4357 14.7981C51.8154 15.1328 52.3497 15.2165 52.8002 15.4417C53.3924 15.7314 53.8365 16.2463 54.3837 16.6132C54.5896 16.7484 54.9244 16.8385 55.0402 16.6197C55.0788 16.5489 55.0788 16.4587 55.0788 16.3751C55.066 15.8279 55.008 15.2486 54.6733 14.8174C54.5446 14.6565 54.3837 14.5213 54.2549 14.3539C54.1069 14.1608 54.0103 13.9291 53.9138 13.7103C53.7271 13.3048 53.4954 12.9186 53.2379 12.5517C53.1543 12.4358 53.0641 12.3199 52.929 12.262C52.826 12.217 52.7101 12.217 52.5943 12.217C52.1051 12.217 51.2554 12.0367 50.9787 12.571C50.8757 12.7705 50.8628 12.9958 50.8628 13.2211L50.8692 13.2275Z" fill="#4AE88F"/>
</g>
<defs>
<linearGradient id="paint0_linear_10_244" x1="54.3193" y1="14.0706" x2="54.3193" y2="71.576" gradientUnits="userSpaceOnUse">
<stop stop-color="#BE2727"/>
<stop offset="0.63" stop-color="#D46856"/>
<stop offset="0.66" stop-color="#D05D4E"/>
<stop offset="0.75" stop-color="#C63F38"/>
<stop offset="0.83" stop-color="#C02D2B"/>
<stop offset="0.88" stop-color="#BE2727"/>
</linearGradient>
<linearGradient id="paint1_linear_10_244" x1="55.3942" y1="19.9409" x2="54.6346" y2="12.7318" gradientUnits="userSpaceOnUse">
<stop stop-color="#D78077"/>
<stop offset="1" stop-color="#C34033"/>
</linearGradient>
<linearGradient id="paint2_linear_10_244" x1="33.3678" y1="43.9304" x2="27.3366" y2="42.4242" gradientUnits="userSpaceOnUse">
<stop stop-color="#D78077"/>
<stop offset="1" stop-color="#C34033"/>
</linearGradient>
<linearGradient id="paint3_linear_10_244" x1="56.0959" y1="13.9806" x2="57.0679" y2="69.5614" gradientUnits="userSpaceOnUse">
<stop stop-color="#008141"/>
<stop offset="0.06" stop-color="#018242"/>
<stop offset="0.09" stop-color="#068947"/>
<stop offset="0.1" stop-color="#0E9550"/>
<stop offset="0.12" stop-color="#1AA65D"/>
<stop offset="0.13" stop-color="#2ABC6D"/>
<stop offset="0.14" stop-color="#3DD682"/>
<stop offset="0.15" stop-color="#4AE88F"/>
<stop offset="0.16" stop-color="#3DD880"/>
<stop offset="0.18" stop-color="#27BB66"/>
<stop offset="0.21" stop-color="#15A551"/>
<stop offset="0.24" stop-color="#099543"/>
<stop offset="0.28" stop-color="#028B3A"/>
<stop offset="0.32" stop-color="#008938"/>
<stop offset="0.86" stop-color="#0AAB54"/>
<stop offset="0.9" stop-color="#09A851"/>
<stop offset="0.93" stop-color="#089F49"/>
<stop offset="0.96" stop-color="#06913C"/>
<stop offset="0.98" stop-color="#037C2A"/>
<stop offset="1" stop-color="#006818"/>
</linearGradient>
<linearGradient id="paint4_linear_10_244" x1="33.4707" y1="24.7297" x2="35.7686" y2="24.0603" gradientUnits="userSpaceOnUse">
<stop stop-color="#D78077"/>
<stop offset="1" stop-color="#C34033"/>
</linearGradient>
<linearGradient id="paint5_linear_10_244" x1="75.0234" y1="9.51185" x2="57.5932" y2="21.5272" gradientUnits="userSpaceOnUse">
<stop stop-color="#007437"/>
<stop offset="0.34" stop-color="#02833F"/>
<stop offset="1" stop-color="#0AAB54"/>
</linearGradient>
<linearGradient id="paint6_linear_10_244" x1="103.688" y1="25.6765" x2="77.3418" y2="26.6441" gradientUnits="userSpaceOnUse">
<stop stop-color="#008141"/>
<stop offset="0.12" stop-color="#2ABC6E"/>
<stop offset="0.21" stop-color="#4AE88F"/>
<stop offset="0.32" stop-color="#43DE87"/>
<stop offset="0.5" stop-color="#32C674"/>
<stop offset="0.72" stop-color="#179E56"/>
<stop offset="0.88" stop-color="#007C3C"/>
</linearGradient>
<linearGradient id="paint7_linear_10_244" x1="82.3315" y1="13.6833" x2="74.4216" y2="23.6547" gradientUnits="userSpaceOnUse">
<stop stop-color="#008141"/>
<stop offset="0.04" stop-color="#088C49"/>
<stop offset="0.1" stop-color="#1DAA60"/>
<stop offset="0.19" stop-color="#40DA84"/>
<stop offset="0.21" stop-color="#4AE88F"/>
<stop offset="0.28" stop-color="#44DE86"/>
<stop offset="0.38" stop-color="#36C66E"/>
<stop offset="0.51" stop-color="#209D47"/>
<stop offset="0.67" stop-color="#006510"/>
<stop offset="0.76" stop-color="#006612"/>
<stop offset="0.81" stop-color="#006A1B"/>
<stop offset="0.85" stop-color="#007229"/>
<stop offset="0.88" stop-color="#007C3C"/>
</linearGradient>
<linearGradient id="paint8_linear_10_244" x1="63.1215" y1="16.0925" x2="84.255" y2="12.1871" gradientUnits="userSpaceOnUse">
<stop stop-color="#007437"/>
<stop offset="0.34" stop-color="#02833F"/>
<stop offset="1" stop-color="#0AAB54"/>
</linearGradient>
<linearGradient id="paint9_linear_10_244" x1="-23.9263" y1="137.972" x2="-2.32907" y2="129.172" gradientUnits="userSpaceOnUse">
<stop stop-color="#008141"/>
<stop offset="0.12" stop-color="#2ABC6E"/>
<stop offset="0.21" stop-color="#4AE88F"/>
<stop offset="0.32" stop-color="#43DE87"/>
<stop offset="0.5" stop-color="#32C674"/>
<stop offset="0.72" stop-color="#179E56"/>
<stop offset="0.88" stop-color="#007C3C"/>
</linearGradient>
<linearGradient id="paint10_linear_10_244" x1="59.0715" y1="23.5569" x2="77.8178" y2="27.7349" gradientUnits="userSpaceOnUse">
<stop stop-color="#008141"/>
<stop offset="0.04" stop-color="#088C49"/>
<stop offset="0.1" stop-color="#1DAA60"/>
<stop offset="0.19" stop-color="#40DA84"/>
<stop offset="0.21" stop-color="#4AE88F"/>
<stop offset="0.28" stop-color="#44DE86"/>
<stop offset="0.38" stop-color="#36C66E"/>
<stop offset="0.51" stop-color="#209D47"/>
<stop offset="0.67" stop-color="#006510"/>
<stop offset="0.76" stop-color="#006612"/>
<stop offset="0.81" stop-color="#006A1B"/>
<stop offset="0.85" stop-color="#007229"/>
<stop offset="0.88" stop-color="#007C3C"/>
</linearGradient>
<linearGradient id="paint11_linear_10_244" x1="76.9787" y1="29.6843" x2="55.2364" y2="16.418" gradientUnits="userSpaceOnUse">
<stop stop-color="#007437"/>
<stop offset="0.34" stop-color="#02833F"/>
<stop offset="1" stop-color="#0AAB54"/>
</linearGradient>
<linearGradient id="paint12_linear_10_244" x1="73.2544" y1="68.9622" x2="59.2851" y2="40.4934" gradientUnits="userSpaceOnUse">
<stop stop-color="#008141"/>
<stop offset="0.12" stop-color="#2ABC6E"/>
<stop offset="0.21" stop-color="#4AE88F"/>
<stop offset="0.32" stop-color="#43DE87"/>
<stop offset="0.5" stop-color="#32C674"/>
<stop offset="0.72" stop-color="#179E56"/>
<stop offset="0.88" stop-color="#007C3C"/>
</linearGradient>
<linearGradient id="paint13_linear_10_244" x1="75.9755" y1="39.7567" x2="61.1451" y2="35.9483" gradientUnits="userSpaceOnUse">
<stop stop-color="#008141"/>
<stop offset="0.04" stop-color="#088C49"/>
<stop offset="0.1" stop-color="#1DAA60"/>
<stop offset="0.19" stop-color="#40DA84"/>
<stop offset="0.21" stop-color="#4AE88F"/>
<stop offset="0.28" stop-color="#44DE86"/>
<stop offset="0.38" stop-color="#36C66E"/>
<stop offset="0.51" stop-color="#209D47"/>
<stop offset="0.67" stop-color="#006510"/>
<stop offset="0.76" stop-color="#006612"/>
<stop offset="0.81" stop-color="#006A1B"/>
<stop offset="0.85" stop-color="#007229"/>
<stop offset="0.88" stop-color="#007C3C"/>
</linearGradient>
<linearGradient id="paint14_linear_10_244" x1="41.1111" y1="4.05493" x2="42.7396" y2="9.27509" gradientUnits="userSpaceOnUse">
<stop stop-color="#00541E"/>
<stop offset="0.23" stop-color="#016327"/>
<stop offset="0.69" stop-color="#068B40"/>
<stop offset="1" stop-color="#0AAB54"/>
</linearGradient>
<linearGradient id="paint15_linear_10_244" x1="60.2448" y1="1.85635" x2="59.0892" y2="7.5472" gradientUnits="userSpaceOnUse">
<stop stop-color="#007437"/>
<stop offset="0.34" stop-color="#02833F"/>
<stop offset="1" stop-color="#0AAB54"/>
</linearGradient>
<linearGradient id="paint16_linear_10_244" x1="55.5303" y1="-0.558281" x2="55.57" y2="14.275" gradientUnits="userSpaceOnUse">
<stop stop-color="#008141"/>
<stop offset="0.03" stop-color="#088C49"/>
<stop offset="0.1" stop-color="#1DAA60"/>
<stop offset="0.18" stop-color="#40DA84"/>
<stop offset="0.2" stop-color="#4AE88F"/>
<stop offset="0.76" stop-color="#41DF86"/>
<stop offset="0.77" stop-color="#3CDA81"/>
<stop offset="0.82" stop-color="#26C56D"/>
<stop offset="0.87" stop-color="#16B65F"/>
<stop offset="0.92" stop-color="#0CAD56"/>
<stop offset="1" stop-color="#0AAB54"/>
</linearGradient>
<linearGradient id="paint17_linear_10_244" x1="74.9296" y1="6.48815" x2="54.0554" y2="12.8733" gradientUnits="userSpaceOnUse">
<stop stop-color="#008141"/>
<stop offset="0.02" stop-color="#088C49"/>
<stop offset="0.06" stop-color="#1DAA60"/>
<stop offset="0.1" stop-color="#40DA84"/>
<stop offset="0.11" stop-color="#4AE88F"/>
<stop offset="0.46" stop-color="#46E48B"/>
<stop offset="0.66" stop-color="#1ABA63"/>
<stop offset="0.77" stop-color="#0AAB54"/>
<stop offset="0.85" stop-color="#09A852"/>
<stop offset="0.91" stop-color="#079F4E"/>
<stop offset="0.96" stop-color="#049146"/>
<stop offset="1" stop-color="#007C3C"/>
</linearGradient>
<linearGradient id="paint18_linear_10_244" x1="46.106" y1="0.965375" x2="48.2494" y2="14.4696" gradientUnits="userSpaceOnUse">
<stop stop-color="#008141"/>
<stop offset="0.03" stop-color="#088C49"/>
<stop offset="0.1" stop-color="#1DAA60"/>
<stop offset="0.18" stop-color="#40DA84"/>
<stop offset="0.2" stop-color="#4AE88F"/>
<stop offset="0.76" stop-color="#41DF86"/>
<stop offset="0.77" stop-color="#3CDA81"/>
<stop offset="0.82" stop-color="#26C56D"/>
<stop offset="0.87" stop-color="#16B65F"/>
<stop offset="0.92" stop-color="#0CAD56"/>
<stop offset="1" stop-color="#0AAB54"/>
</linearGradient>
<linearGradient id="paint19_linear_10_244" x1="68.5895" y1="12.5131" x2="62.9832" y2="15.9889" gradientUnits="userSpaceOnUse">
<stop stop-color="#004B17"/>
<stop offset="0.22" stop-color="#015A20"/>
<stop offset="0.63" stop-color="#05823A"/>
<stop offset="1" stop-color="#0AAB54"/>
</linearGradient>
<linearGradient id="paint20_linear_10_244" x1="34.9961" y1="29.8663" x2="17.1665" y2="29.8663" gradientUnits="userSpaceOnUse">
<stop stop-color="#007437"/>
<stop offset="0.34" stop-color="#02833F"/>
<stop offset="1" stop-color="#0AAB54"/>
</linearGradient>
<linearGradient id="paint21_linear_10_244" x1="52.2467" y1="16.845" x2="22.3418" y2="16.845" gradientUnits="userSpaceOnUse">
<stop stop-color="#008141"/>
<stop offset="0.04" stop-color="#088C49"/>
<stop offset="0.1" stop-color="#1DAA60"/>
<stop offset="0.19" stop-color="#40DA84"/>
<stop offset="0.21" stop-color="#4AE88F"/>
<stop offset="0.46" stop-color="#46E48B"/>
<stop offset="0.66" stop-color="#1ABA63"/>
<stop offset="0.77" stop-color="#0AAB54"/>
<stop offset="0.85" stop-color="#09A852"/>
<stop offset="0.91" stop-color="#079F4E"/>
<stop offset="0.96" stop-color="#049146"/>
<stop offset="1" stop-color="#007C3C"/>
</linearGradient>
<linearGradient id="paint22_linear_10_244" x1="2.92226" y1="29.6089" x2="14.341" y2="47.1939" gradientUnits="userSpaceOnUse">
<stop stop-color="#008141"/>
<stop offset="0.04" stop-color="#088C49"/>
<stop offset="0.1" stop-color="#1DAA60"/>
<stop offset="0.19" stop-color="#40DA84"/>
<stop offset="0.21" stop-color="#4AE88F"/>
<stop offset="0.46" stop-color="#46E48B"/>
<stop offset="0.66" stop-color="#1ABA63"/>
<stop offset="0.77" stop-color="#0AAB54"/>
<stop offset="0.85" stop-color="#09A852"/>
<stop offset="0.91" stop-color="#079F4E"/>
<stop offset="0.96" stop-color="#049146"/>
<stop offset="1" stop-color="#007C3C"/>
</linearGradient>
<linearGradient id="paint23_linear_10_244" x1="26.8669" y1="32.2865" x2="22.535" y2="31.3596" gradientUnits="userSpaceOnUse">
<stop stop-color="#007437"/>
<stop offset="0.18" stop-color="#098342"/>
<stop offset="0.54" stop-color="#23AB61"/>
<stop offset="1" stop-color="#4AE88F"/>
</linearGradient>
<linearGradient id="paint24_linear_10_244" x1="35.1647" y1="14.6369" x2="55.0522" y2="11.0075" gradientUnits="userSpaceOnUse">
<stop stop-color="#008141"/>
<stop offset="0.02" stop-color="#088C49"/>
<stop offset="0.06" stop-color="#1DAA60"/>
<stop offset="0.1" stop-color="#40DA84"/>
<stop offset="0.11" stop-color="#4AE88F"/>
<stop offset="0.46" stop-color="#46E48B"/>
<stop offset="0.66" stop-color="#1ABA63"/>
<stop offset="0.77" stop-color="#0AAB54"/>
<stop offset="0.85" stop-color="#09A852"/>
<stop offset="0.91" stop-color="#079F4E"/>
<stop offset="0.96" stop-color="#049146"/>
<stop offset="1" stop-color="#007C3C"/>
</linearGradient>
<linearGradient id="paint25_linear_10_244" x1="43.0512" y1="17.4864" x2="49.2411" y2="17.8801" gradientUnits="userSpaceOnUse">
<stop stop-color="#004B17"/>
<stop offset="0.22" stop-color="#015A20"/>
<stop offset="0.63" stop-color="#05823A"/>
<stop offset="1" stop-color="#0AAB54"/>
</linearGradient>
<linearGradient id="paint26_linear_10_244" x1="55.6196" y1="11.541" x2="55.0081" y2="19.2586" gradientUnits="userSpaceOnUse">
<stop stop-color="#13B165"/>
<stop offset="0.1" stop-color="#22C070"/>
<stop offset="0.28" stop-color="#4AE88F"/>
<stop offset="0.63" stop-color="#44E289"/>
<stop offset="0.87" stop-color="#1ABA63"/>
<stop offset="1" stop-color="#0AAB54"/>
</linearGradient>
<clipPath id="clip0_10_244">
<rect width="103" height="71.4151" fill="white"/>
</clipPath>
</defs>
</svg>
