<svg width="140" height="71" viewBox="0 0 140 71" fill="none" xmlns="http://www.w3.org/2000/svg">
<g clip-path="url(#clip0_10_184)">
<path opacity="0.3" d="M64.9068 63.8392C65.1748 63.731 65.4228 63.6231 65.653 63.52C65.6802 64.0741 65.7227 64.6099 65.7868 65.1069C65.3002 64.4186 64.9094 63.8617 64.9091 63.8414L64.9068 63.8392Z" fill="#A8DFF6"/>
<path opacity="0.3" d="M67.6844 62.3179C67.2779 62.6787 66.6379 63.0795 65.6529 63.5199C65.5785 62.0199 65.6155 60.385 65.6736 59.0721C65.7417 57.5561 65.8413 56.4567 65.8413 56.4567C66.2413 57.426 66.5923 58.4029 66.9011 59.3872C67.2052 60.3581 67.4649 61.3366 67.6843 62.3157L67.6844 62.3179Z" fill="#A8DFF6"/>
<path opacity="0.3" d="M65.7867 65.1072C66.5727 66.2187 67.603 67.6666 67.6035 67.7004C67.5925 67.7051 67.5792 67.7098 67.5703 67.7144C67.526 67.7332 67.4839 67.7497 67.4418 67.7662C67.4374 67.7663 67.4351 67.7663 67.433 67.7686C67.433 67.7686 67.4315 67.7686 67.4285 67.7687C66.4871 68.1498 66.0088 66.8978 65.7844 65.105L65.7867 65.1072Z" fill="#A8DFF6"/>
<path opacity="0.3" d="M76.8016 61.9365L68.0187 59.6752C68.0489 59.2193 68.4719 58.7794 70.0447 58.2839C71.0208 57.9766 71.5754 57.8005 71.5754 57.8005L76.8016 61.9365Z" fill="#A8DFF6"/>
<path opacity="0.42" d="M30.3234 68.3414C30.2523 68.3606 30.1813 68.3776 30.1124 68.3945C30.1435 68.385 30.2168 68.368 30.3234 68.3414Z" fill="#ED6992"/>
<path d="M70.5954 27.3697C95.4558 3.76533 103.287 24.1505 117.285 1.26621L109.428 24.901L70.5954 27.3697Z" fill="#A6ACC8"/>
<path d="M70.9341 27.3483L70.5954 27.3698C95.2166 3.99265 103.693 23.3435 116.698 0.841195" stroke="white" stroke-width="5.79005" stroke-miterlimit="10"/>
<path d="M70.6061 28.0235C42.1202 2.85236 26.3096 28.9434 15.0234 8.14551L24.2851 27.7829L70.606 28.0212L70.6061 28.0235Z" fill="#A6ACC8"/>
<path d="M70.606 28.0233C42.1202 2.85216 26.9205 28.5361 15.6321 7.73828" stroke="white" stroke-width="5.79005" stroke-miterlimit="10"/>
<path d="M61.3818 37.2454L64.2885 66.185C66.8063 70.1391 73.7897 70.3096 76.4463 65.9795L78.114 37.312L61.3841 37.2453L61.3818 37.2454Z" fill="#910F3E"/>
<path d="M9.39057 39.4632C9.71982 39.6785 23.3892 30.2031 23.3892 30.2031C56.5116 27.3937 92.5265 27.7476 132.27 30.1664L135.451 37.9955C116.097 36.1721 92.3995 35.4072 77.2483 34.4031C76.7906 34.3725 76.5266 34.9834 76.1751 35.2959C72.4552 38.6025 66.4948 38.1329 62.6735 35.3032C62.3709 35.0783 62.1221 34.6114 61.7571 34.6582C50.7109 36.1094 27.4426 37.2623 9.3928 39.4631L9.39057 39.4632Z" fill="#472634"/>
<path d="M69.7433 28.5811C44.0995 5.83032 25.0871 28.5356 8.02119 23.7611L11.8303 29.1654L69.7433 28.5811Z" fill="#A6ACC8"/>
<path d="M69.7434 28.5813C44.0996 5.83048 25.3066 27.7927 8.24066 23.0182" stroke="white" stroke-width="5.79005" stroke-miterlimit="10"/>
<path d="M61.7548 33.5942C55.4528 34.6813 33.3457 37.1152 3.55998 38.225L3.9556 37.3527C3.96897 37.3524 3.98243 37.3567 3.99584 37.3588C5.32409 37.5662 6.68645 37.6807 8.02065 37.7123C8.49143 37.7246 8.95983 37.728 9.42358 37.7201C15.8358 37.6117 22.0732 35.7368 28.1509 33.9097C38.7907 30.7115 49.7878 27.4081 61.7548 33.592L61.7548 33.5942Z" fill="#6C7A87"/>
<path d="M3.99585 37.3608C5.31284 37.5617 6.68415 37.6783 8.02066 37.7144C6.68423 37.6828 5.3241 37.5683 3.99589 37.3631L3.99585 37.3608Z" fill="#E5F1E8"/>
<path d="M69.5155 28.0148C67.1865 28.8972 65.2886 30.6131 63.7387 32.9904C63.5125 33.3346 63.2955 33.6922 63.0833 34.0655C62.8715 33.9361 62.6154 33.8277 62.3173 33.738L62.8942 32.6418C61.6361 31.9665 60.3908 31.3902 59.156 30.9061C55.0206 29.2831 51.0116 28.6814 47.1005 28.7204C40.4266 28.7836 34.0338 30.704 27.7587 32.5909C19.7949 34.9841 12.5433 37.2865 4.54263 36.0467L8.10721 28.1712C27.7555 31.2136 34.7899 4.9756 69.5133 28.0148L69.5155 28.0148Z" fill="#E5F1E8"/>
<path d="M62.8962 32.6414L62.3193 33.7376C62.1467 33.6842 61.9608 33.6377 61.7593 33.5961C61.7593 33.5961 61.7593 33.5961 61.7549 33.5961C49.7879 27.41 38.7908 30.7157 28.151 33.9138C22.0734 35.741 15.8337 37.616 9.4237 37.7243C7.6512 37.7542 5.79156 37.6437 3.996 37.3652L4.58051 36.0569C12.5834 37.2967 19.7992 34.9882 27.7652 32.5949C38.8155 29.2748 50.2431 25.8402 62.8985 32.6458L62.8962 32.6414Z" fill="#E5F1E8"/>
<path d="M69.524 28.5151C97.1431 2.39584 116.148 28.2366 131.165 17.9788L127.443 28.1291L69.524 28.5129L69.524 28.5151Z" fill="#A6ACC8"/>
<path d="M69.524 28.515C97.143 2.39569 115.728 27.6507 130.745 17.3952" stroke="white" stroke-width="5.79005" stroke-miterlimit="10"/>
<path d="M136.075 36.3867C106.768 36.2824 85.7896 32.9265 78.2521 33.622C89.8586 27.317 100.833 30.2152 111.454 33.0203C117.59 34.641 123.89 36.3041 130.3 36.1958C132.072 36.1658 133.927 35.9924 135.712 35.6535L135.084 34.3657L136.07 36.389L136.075 36.3867Z" fill="#6C7A87"/>
<path d="M135.714 35.651C133.927 35.99 132.072 36.1634 130.302 36.1933C123.89 36.3017 117.592 34.6386 111.456 33.0178C100.836 30.2128 89.8608 27.3145 78.2543 33.6195C77.8557 33.6555 77.4931 33.7045 77.1684 33.7641C76.8683 33.821 76.6018 33.8864 76.369 33.9669C74.8812 30.9196 72.7369 28.873 69.7382 28.137C103.663 3.93989 111.578 29.9253 131.115 26.2184L135.09 34.3586L135.719 35.6464L135.714 35.651Z" fill="#E5F1E8"/>
<path d="M128.444 29.6988C122.448 29.8001 117.002 27.5658 111.705 25.3944C101.057 21.0277 90.0463 16.5116 73.2707 29.3148L72.4492 28.2151C80.2238 22.2814 87.5287 19.4372 94.7829 19.5242C101.205 19.6006 106.801 21.8977 112.216 24.1189C118.726 26.7883 124.804 29.3252 131.963 27.9667L132.582 29.2321C131.274 29.4796 129.699 29.6776 128.444 29.6988Z" fill="white"/>
<path d="M129.681 32.6873C123.549 32.7909 117.733 30.8244 112.074 28.9115C101.058 25.1867 89.6662 21.3352 74.8757 31.6433L74.1028 30.5113C89.4531 19.8128 101.171 23.776 112.505 27.6081C119.642 30.0212 126.007 32.3707 133.425 30.9627L134.053 32.2482C132.577 32.5279 131.119 32.6675 129.678 32.6918L129.681 32.6873Z" fill="white"/>
<path d="M135.714 35.6511C133.927 35.9902 132.072 36.1635 130.302 36.1934C123.889 36.3018 117.592 34.6387 111.456 33.018C100.835 30.2129 89.8607 27.3147 78.2542 33.6196C77.958 33.7802 77.6642 33.9452 77.3683 34.117L77.1683 33.7665L76.688 32.9248C89.1085 25.6931 100.643 28.7419 111.8 31.6867C119.842 33.8095 127.132 35.8728 135.088 34.3633L135.716 35.6511L135.714 35.6511Z" fill="white"/>
<path d="M11.0616 31.1666C17.0569 31.0653 22.4243 28.6483 27.6457 26.2991C38.1392 21.5751 48.9914 16.6895 66.19 28.9185L66.9738 27.7917C59.0032 22.1242 51.6063 19.5284 44.3593 19.8605C37.9435 20.1538 32.4278 22.6387 27.0914 25.0416C20.6748 27.9295 14.6862 30.6703 7.48608 29.5545L6.91011 30.8401C8.2249 31.0433 9.80633 31.1878 11.0616 31.1666Z" fill="white"/>
<path d="M9.92616 34.1953C16.0575 34.0917 21.8039 31.9297 27.3951 29.8268C38.2785 25.7318 49.5341 21.4976 64.6645 31.3L65.3987 30.1403C49.6956 19.9666 38.1186 24.3234 26.9206 28.5364C19.8689 31.1892 13.5874 33.7524 6.12562 32.5959L5.54107 33.902C7.02581 34.1316 8.48812 34.2218 9.92842 34.1975L9.92616 34.1953Z" fill="white"/>
<path d="M63.8508 33.0496L63.2739 34.1458L62.2565 33.8565C62.0899 33.7668 61.9256 33.6795 61.7592 33.5944C61.7592 33.5944 61.7592 33.5944 61.7547 33.5944C49.7877 27.4083 38.7906 30.714 28.1508 33.9121C22.0732 35.7393 15.8335 37.6143 9.42352 37.7226C8.95977 37.7304 8.49137 37.7271 8.02059 37.7147C6.68416 37.6832 5.32403 37.5687 3.99582 37.3635L4.5781 36.0552C12.581 37.295 19.8651 35.2018 27.7628 32.5932C34.3941 30.4051 40.704 28.7273 47.1047 28.7228C51.0588 28.7213 55.0438 29.3573 59.1602 30.9085C60.6685 31.4758 62.1922 32.1646 63.7406 32.9928C63.7788 33.0102 63.8148 33.0321 63.8531 33.0518L63.8508 33.0496Z" fill="white"/>
<path d="M76.3435 33.3812C73.313 26.5392 65.645 27.5637 63.06 33.4908" stroke="#F78639" stroke-width="5.79005" stroke-miterlimit="10" stroke-linecap="round"/>
<path d="M138.55 36.5183L138.621 40.6873L77.7344 37.4153C75.8437 39.4287 73.1116 40.6087 70.0731 40.6826C66.7471 40.7681 63.6528 39.5265 61.3976 37.2519L14.2773 41.4475L14.2551 40.1314L0.907093 41.3083L0.859068 38.4666L63.1264 32.9239L63.8165 33.7689C65.2809 35.5655 67.4946 36.5695 69.8981 36.5289L69.9672 36.5277C72.1229 36.4733 74.0698 35.5454 75.1706 34.0436L75.829 33.1488L138.55 36.5183Z" fill="#E83434"/>
<path d="M138.623 40.6848L117.519 68.4072L76.4441 65.9793L77.7344 37.4151L138.623 40.6848Z" fill="url(#paint0_linear_10_184)"/>
<path d="M64.2882 66.185L61.3816 37.2455L0.931474 42.6357L22.7394 70.0092L64.2882 66.185Z" fill="url(#paint1_linear_10_184)"/>
<path d="M14.2794 41.4473L14.6499 43.179C10.2767 44.7767 8.07835 46.793 9.91192 50.7722L7.53336 51.4954L0.679963 42.6554L0.657531 41.3281L0.909168 41.3058L0.9316 42.6331L14.2794 41.445L14.2794 41.4473Z" fill="#D88212"/>
<path d="M14.2046 37.0126L14.2796 41.4475L8.70126 41.943L3.62847 42.3939L0.680141 42.6579L0.606066 38.2748L5.32897 37.8388L10.5751 37.3512L14.2046 37.0126Z" fill="#FFCF03"/>
<path d="M125.252 39.9755L124.94 41.7188C129.365 43.1678 131.63 45.1087 129.932 49.1476L132.334 49.79L138.885 40.7257L138.862 39.3984L138.61 39.3846L138.632 40.7119L125.252 39.9755Z" fill="#D88212"/>
<path d="M138.813 36.3402L138.887 40.7234L132.837 40.3928L128.781 40.1706L126.823 40.0616L125.254 39.9754L125.181 35.6396L129.076 35.8398L131.464 35.9618L135.534 36.1702L138.813 36.3402Z" fill="#FFCF03"/>
<path d="M22.6866 70.3054L30.2228 69.6686L29.5641 67.3737C25.6537 68.9095 22.8602 68.0415 21.22 64.6857L18.8038 65.5584L22.6888 70.3054L22.6866 70.3054Z" fill="#D88212"/>
<path d="M117.711 68.5576L110.158 68.1758L110.738 65.8599C114.698 67.2627 117.461 66.3009 118.987 62.8916L121.431 63.682L117.709 68.5576L117.711 68.5576Z" fill="#D88212"/>
<path d="M77.5315 40.5907L77.434 44.057C75.733 46.6059 71.2861 47.4024 67.5584 46.8162C66.3487 46.6292 65.2145 46.2922 64.2744 45.8257C63.2465 45.3134 62.4502 44.6461 62.0417 43.8325L61.6646 40.2524C62.2571 41.0043 63.0548 41.6198 63.9839 42.0955C64.9986 42.6216 66.1688 42.9805 67.4032 43.1761C71.0819 43.7676 75.3092 42.9049 77.5315 40.5884L77.5315 40.5907Z" fill="#D88212"/>
<path d="M76.7208 60.5647L76.7072 61.7393C75.0566 64.2333 71.4293 65.0993 68.3149 64.5095C67.3573 64.3273 66.4486 64.0068 65.6604 63.5535C64.9105 63.1244 64.27 62.5717 63.8037 61.9033L63.6797 60.634C64.0825 61.2404 64.7407 61.7905 65.5601 62.241C66.3412 62.6674 67.2658 63.0034 68.2594 63.2053C71.1799 63.8029 74.6744 63.2592 76.7207 60.5624L76.7208 60.5647Z" fill="#D88212"/>
<path d="M77.2664 47.6076L76.9297 55.2662C75.4314 57.5321 71.3959 58.2631 68.0259 57.7294C66.966 57.5625 65.9686 57.2705 65.1388 56.8608C64.2617 56.4293 63.572 55.8661 63.1835 55.1852L62.4167 47.5542C62.9842 48.2727 63.7123 48.8645 64.5498 49.3283C65.4954 49.8555 66.5787 50.2159 67.715 50.4154C71.191 51.0239 75.1652 50.0956 77.2664 47.6098L77.2664 47.6076Z" fill="#D88212"/>
<path d="M88.8267 52.1506L115.15 54.1606" stroke="#CE821D" stroke-width="5.79005" stroke-miterlimit="10" stroke-linecap="round"/>
<path d="M91.4402 56.3577L109.485 57.6825" stroke="#CE821D" stroke-width="5.79005" stroke-miterlimit="10" stroke-linecap="round"/>
<path d="M104.201 44.0713L105.127 45.2841C105.159 45.3264 105.206 45.3549 105.258 45.3631L107.195 45.6842C107.4 45.7191 107.434 46.0025 107.242 46.0847L105.991 46.6175C105.898 46.6574 105.846 46.7575 105.87 46.8585L106.089 47.8354C106.125 47.9993 105.969 48.1372 105.814 48.079L103.832 47.3235C103.797 47.3106 103.759 47.3067 103.721 47.3141L101.642 47.7189C101.48 47.751 101.348 47.5864 101.412 47.432L101.791 46.5082C101.83 46.4151 101.797 46.3052 101.711 46.2503L100.566 45.5123C100.39 45.398 100.47 45.1239 100.68 45.1249L102.643 45.139C102.696 45.1381 102.745 45.1193 102.784 45.0848L103.9 44.047C103.99 43.9644 104.13 43.9755 104.203 44.0735L104.201 44.0713Z" fill="#D88212"/>
<path d="M49.4393 45.5692L25.7774 48.1106" stroke="#CE821D" stroke-width="4.50057" stroke-miterlimit="10" stroke-linecap="round"/>
<path d="M50.7453 48.2996L27.8866 50.7305" stroke="#CE821D" stroke-width="4.50057" stroke-miterlimit="10" stroke-linecap="round"/>
<g style="mix-blend-mode:overlay">
<path d="M10.5752 37.3512C9.92967 38.8747 9.27739 40.396 8.70142 41.9453L3.63086 42.3962C4.24111 40.8959 4.77726 39.3652 5.32912 37.8411L10.5753 37.3535L10.5752 37.3512Z" fill="white"/>
</g>
<g style="mix-blend-mode:overlay">
<path d="M131.464 35.9618C130.553 37.3544 129.663 38.7603 128.781 40.1706L126.826 40.0616L125.254 39.9754L125.181 35.6396L129.078 35.8398L131.464 35.964L131.464 35.9618Z" fill="white"/>
</g>
<path d="M67.5608 46.8179C66.3511 46.6309 65.217 46.2939 64.2769 45.8274L63.9863 42.0972C65.001 42.6233 66.1713 42.9822 67.4057 43.1777L67.5608 46.8156L67.5608 46.8179Z" fill="#EAC98A"/>
<path d="M68.0262 57.7273C66.9662 57.5604 65.9689 57.2685 65.139 56.8587L64.55 49.3262C65.4956 49.8534 66.5789 50.2138 67.7152 50.4133L68.0285 57.7296L68.0262 57.7273Z" fill="#EAC98A"/>
<path d="M68.3165 64.5121C67.3589 64.3299 66.4503 64.0094 65.662 63.5561L65.5596 62.2437C66.3407 62.67 67.2652 63.006 68.2588 63.2079L68.3143 64.5121L68.3165 64.5121Z" fill="#EAC98A"/>
</g>
<defs>
<linearGradient id="paint0_linear_10_184" x1="108.179" y1="91.5418" x2="107.123" y2="29.0131" gradientUnits="userSpaceOnUse">
<stop stop-color="#803948"/>
<stop offset="0.48" stop-color="#7F1F3A"/>
<stop offset="1" stop-color="#7F072E"/>
</linearGradient>
<linearGradient id="paint1_linear_10_184" x1="33.2588" y1="92.8083" x2="32.202" y2="30.2795" gradientUnits="userSpaceOnUse">
<stop stop-color="#803948"/>
<stop offset="0.48" stop-color="#7F1F3A"/>
<stop offset="1" stop-color="#7F072E"/>
</linearGradient>
<clipPath id="clip0_10_184">
<rect width="138.22" height="68.267" fill="white" transform="translate(0 2.41211) rotate(-0.968209)"/>
</clipPath>
</defs>
</svg>
