<svg width="75" height="46" viewBox="0 0 75 46" fill="none" xmlns="http://www.w3.org/2000/svg">
<g clip-path="url(#clip0_2_2077)">
<path d="M27 0C23.5021 17.6044 20.666 20.0203 0 23C20.666 25.9797 23.5021 28.3949 27 46C30.4979 28.3956 33.3331 25.9797 54 23C33.3331 20.0203 30.497 17.6044 27 0Z" fill="#FADA7A"/>
<path d="M12 16C13.0366 10.2593 13.8765 9.47184 20 8.5C13.8765 7.52816 13.0366 6.74074 12 1C10.9634 6.74074 10.1235 7.52816 4 8.5C10.1235 9.47184 10.9634 10.2593 12 16Z" fill="#E57DAC"/>
<path d="M48.5 12C49.3422 7.79003 50.0246 7.21262 55 6.5C50.0246 5.78738 49.3422 5.20997 48.5 1C47.6578 5.20997 46.9754 5.78738 42 6.5C46.9754 7.21262 47.6578 7.79003 48.5 12Z" fill="#E57DAC"/>
<path d="M57.5 20C58.3422 15.79 59.0246 15.2126 64 14.5C59.0246 13.7874 58.3422 13.21 57.5 9C56.6578 13.21 55.9754 13.7874 51 14.5C55.9754 15.2126 56.6578 15.79 57.5 20Z" fill="#E57DAC"/>
</g>
<defs>
<clipPath id="clip0_2_2077">
<rect width="74.1773" height="45.912" fill="white"/>
</clipPath>
</defs>
</svg>
