<svg width="40" height="40" viewBox="0 0 40 40" fill="none" xmlns="http://www.w3.org/2000/svg">
<rect width="40" height="40" rx="20" fill="white"/>
<path d="M12.0384 18.9575C16.9941 16.8406 20.2987 15.4451 21.9522 14.7708C26.6732 12.8457 27.6541 12.5113 28.2935 12.5001C28.4341 12.4978 28.7486 12.532 28.9523 12.694C29.1242 12.8308 29.1716 13.0156 29.1942 13.1453C29.2168 13.2751 29.245 13.5706 29.2226 13.8015C28.9668 16.4368 27.8598 22.8322 27.2966 25.7839C27.0583 27.0328 26.5891 27.4516 26.1349 27.4926C25.1477 27.5816 24.3981 26.8529 23.4419 26.2385C21.9457 25.2769 21.1005 24.6783 19.6482 23.74C17.9698 22.6557 19.0578 22.0597 20.0143 21.0857C20.2646 20.8308 24.6143 16.952 24.6984 16.6001C24.709 16.5561 24.7187 16.392 24.6193 16.3054C24.5199 16.2188 24.3732 16.2484 24.2674 16.272C24.1173 16.3054 21.7271 17.8542 17.0969 20.9186C16.4184 21.3753 15.8039 21.5979 15.2533 21.5862C14.6463 21.5734 13.4788 21.2497 12.6108 20.9731C11.5462 20.6338 10.7001 20.4545 10.7738 19.8783C10.8121 19.5781 11.2337 19.2712 12.0384 18.9575Z" fill="#439B92"/>
</svg>
