<svg width="40" height="40" viewBox="0 0 40 40" fill="none" xmlns="http://www.w3.org/2000/svg">
<rect width="40" height="40" rx="20" fill="white"/>
<path fill-rule="evenodd" clip-rule="evenodd" d="M15.0773 15.6644C15.0773 13.0884 17.3177 11 20.0815 11C22.8452 11 25.0856 13.0884 25.0856 15.6644C25.0856 18.2406 22.8452 20.3291 20.0815 20.3291C17.3177 20.3291 15.0773 18.2406 15.0773 15.6644ZM18.0129 15.6645C18.0129 16.7294 18.939 17.5928 20.0815 17.5928C21.2239 17.5928 22.1501 16.7294 22.1501 15.6645C22.1501 14.5996 21.2239 13.7363 20.0815 13.7363C18.939 13.7363 18.0129 14.5996 18.0129 15.6645Z" fill="#439B92"/>
<path d="M21.8481 24.0406C23.8515 23.6602 25.052 22.7758 25.1155 22.7284C25.7018 22.2902 25.7959 21.492 25.3258 20.9455C24.8557 20.399 23.9995 20.3113 23.4131 20.7494C23.4007 20.7588 22.1203 21.6743 20.0135 21.6757C17.9068 21.6743 16.5993 20.7588 16.5869 20.7494C16.0005 20.3113 15.1443 20.399 14.6742 20.9455C14.2041 21.492 14.2982 22.2902 14.8845 22.7284C14.9488 22.7765 16.1989 23.6839 18.2584 24.0553L15.3881 26.8514C14.8665 27.3556 14.8822 28.1585 15.4231 28.6448C15.6872 28.8821 16.0275 29 16.3675 29C16.724 29 17.0801 28.8702 17.3471 28.612L20.0136 25.9644L22.9494 28.6292C23.4813 29.1242 24.3427 29.1234 24.8736 28.6278C25.4046 28.1321 25.4039 27.3291 24.8721 26.8342L21.8481 24.0406Z" fill="#439B92"/>
</svg>
