<svg width="40" height="40" viewBox="0 0 40 40" fill="none" xmlns="http://www.w3.org/2000/svg">
<rect width="40" height="40" rx="20" fill="white"/>
<path d="M29 20C29 15.05 24.95 11 20 11C15.05 11 11 15.05 11 20C11 24.5 14.2625 28.2125 18.5375 28.8875V22.5875H16.2875V20H18.5375V17.975C18.5375 15.725 19.8875 14.4875 21.9125 14.4875C22.925 14.4875 23.9375 14.7125 23.9375 14.7125V16.9625H22.8125C21.6875 16.9625 21.35 17.6375 21.35 18.3125V20H23.825L23.375 22.5875H21.2375V29C25.7375 28.325 29 24.5 29 20Z" fill="#439B92"/>
</svg>
