<svg width="139" height="101" viewBox="0 0 139 101" fill="none" xmlns="http://www.w3.org/2000/svg">
<g clip-path="url(#clip0_92_3043)">
<path d="M75.4376 0.737915C74.213 1.2294 72.4985 1.96663 71.7637 2.45811L70.539 3.44108L68.3347 2.45811C64.4158 0.492173 57.3128 0.737915 52.6592 3.19534C51.4345 3.93256 49.72 5.16127 48.7403 5.8985C47.5156 7.37295 47.0258 7.61869 46.0461 7.37295C44.3316 7.37295 40.6576 8.35592 38.4532 9.58463C34.7793 11.7963 31.8401 15.9739 31.3503 20.1515C31.3503 21.8717 31.1053 22.1175 30.1256 22.3632C25.9618 23.3462 23.0227 25.0664 20.0835 28.0153C17.1443 31.2099 16.4096 33.1759 16.6545 38.8279V43.0056L13.7153 43.497C6.85729 44.48 2.93841 48.1661 0.978975 55.7841C-0.735534 61.682 0.244186 69.3 2.69348 73.2318L4.16306 75.1978L3.18334 77.1637C2.44855 78.8839 2.20362 79.8669 2.20362 84.2902C2.20362 89.2051 2.20362 89.4508 3.18334 91.4167C5.38771 95.5944 9.55152 98.0518 15.6748 98.789C22.0429 99.5262 29.3908 98.2975 34.5344 95.5944L37.4735 94.1199L37.9634 95.1029C38.9431 96.5773 41.6373 99.0347 43.3518 99.772C45.5562 100.755 49.4751 101.246 52.4142 100.509C55.5983 99.772 59.2723 97.806 60.9868 96.0858L62.4564 94.6114L64.4158 96.0858C64.4158 96.0858 67.5999 98.0518 68.8245 98.5433C71.0289 99.5262 72.0086 99.5262 75.1927 99.5262C79.1116 99.5262 79.3565 99.5262 82.2957 98.0518C84.5 97.0688 85.9696 95.8401 87.4392 94.1199C88.6638 92.8912 89.6436 91.6625 89.6436 91.4167C89.6436 91.4167 90.6233 91.6625 91.603 92.6455C94.0523 94.8571 96.5016 95.5944 100.91 96.0858C107.034 96.3316 115.606 94.3657 120.015 91.6625L122.219 90.4338L122.954 91.4167C124.179 92.8912 128.832 96.3316 131.037 97.0688C135.445 98.789 145.977 98.5433 150.141 96.5773C154.06 94.8571 156.754 91.6625 156.754 88.4678C156.754 84.7817 152.346 80.3584 148.917 80.3584C147.692 80.3584 147.692 80.3584 147.692 78.8839C147.692 76.918 146.222 73.7233 144.263 72.0031C141.814 70.0372 140.344 69.5457 136.425 69.5457C134.466 69.5457 132.996 69.5457 132.996 69.5457C132.996 69.5457 133.241 68.8085 133.731 68.0713C134.956 64.8766 133.731 59.4703 131.282 57.9958C129.567 57.0129 126.628 57.2586 125.403 58.4873L124.424 59.4703H126.383C129.077 58.9788 130.547 59.4703 131.771 61.9277C132.996 64.6309 132.751 68.5627 131.282 70.5287C130.792 71.2659 130.302 72.2489 130.302 72.4946C130.302 72.9861 130.302 72.9861 131.282 72.4946C132.016 72.0031 133.241 71.7574 135.201 71.7574C136.915 71.7574 137.895 71.7574 137.405 71.7574C133.486 72.7403 129.812 74.952 129.812 75.935C129.812 75.935 130.302 75.935 131.037 75.1978C132.751 73.9691 135.935 72.7403 137.65 72.7403C138.385 72.7403 138.874 72.7403 138.63 72.2489C137.895 71.0202 141.079 72.4946 142.793 74.2148C144.508 75.6893 145.243 77.4094 145.488 80.1126V82.57H147.447C149.651 82.57 152.101 83.553 153.57 85.7647C154.795 87.4849 155.04 89.2051 154.06 91.171C153.325 92.6455 150.386 94.8571 148.917 95.1029C148.427 95.1029 147.202 95.3486 146.222 95.5944C141.814 96.8231 132.506 94.1199 128.587 90.6795C127.853 89.9423 126.628 88.7136 126.383 87.7306C125.893 86.7477 125.403 86.2562 125.403 86.5019C125.158 87.2391 127.118 90.188 128.587 91.4167C130.547 92.8912 133.976 94.6114 136.915 95.3486L139.609 96.0858H137.16C133.976 96.0858 131.282 95.3486 127.853 93.1369C125.158 91.4167 120.505 86.7477 120.505 85.7647C120.505 85.7647 120.505 85.5189 120.015 85.5189C119.28 85.5189 119.525 86.5019 120.505 88.2221L121.24 89.6966L119.035 90.6795C114.626 92.6455 109.483 93.6284 103.849 93.8742C97.2364 93.8742 95.277 93.3827 92.3378 90.4338C91.1131 89.4508 89.8885 88.4678 89.3986 88.4678C88.9088 88.4678 88.174 88.9593 87.6841 90.188C86.2145 92.6455 83.5203 95.1029 80.8261 96.3316C77.642 97.806 74.4579 97.806 71.0289 96.8231C68.0897 95.8401 63.9259 93.3827 63.1911 92.154C62.4564 90.9253 61.7216 91.171 60.7418 93.1369C58.2925 97.806 49.4751 100.263 44.3316 97.806C42.1272 96.5773 37.2286 91.6625 37.7184 91.171C38.2083 90.6795 36.9837 91.171 35.759 91.6625C33.7996 92.8912 29.1459 93.6284 24.7372 93.6284C21.798 93.6284 19.3487 93.1369 17.1443 92.154C16.6545 92.154 16.4096 92.154 16.4096 92.154C16.4096 92.8912 21.5531 94.1199 24.7372 94.1199C28.4111 94.1199 33.5546 93.1369 35.5141 92.154C36.9837 91.4167 36.9837 91.4167 36.9837 92.154C36.9837 93.3827 31.3503 95.3486 24.9821 96.0858C17.6342 97.0688 11.7559 95.8401 8.08194 92.6455C5.63264 90.4338 4.40799 86.7476 4.65292 82.57C5.14278 75.6893 7.83701 72.9861 14.2052 72.9861C17.6342 72.9861 17.8791 72.9861 16.6545 76.1807C16.1646 77.4094 15.6748 78.6382 15.6748 78.8839C16.1646 79.3754 17.3893 78.1467 17.6342 77.4095C17.8791 76.1807 21.3081 72.7403 23.5125 71.2659C24.4922 70.7744 26.2067 70.0372 27.4314 69.5457C30.3706 68.5627 36.0039 68.5627 37.7184 69.5457C38.2083 69.7914 38.9431 70.0372 38.9431 69.5457C38.9431 69.5457 38.4532 68.8085 37.4735 68.5627C36.0039 68.0713 34.7793 67.8255 31.3503 68.0713C26.6966 68.0713 25.9618 68.5627 21.798 70.7744C20.3284 71.5116 19.3487 72.0031 19.3487 71.7574C19.3487 70.7744 26.4517 67.0883 30.1256 66.1053C31.1053 65.8596 31.5952 65.6138 31.1053 65.3681C29.6358 65.1223 22.2879 68.0712 19.8386 70.2829C18.6139 71.2659 18.6139 71.2659 16.6545 71.0202C12.4907 70.2829 8.08194 71.0202 6.36743 72.4946C5.63264 73.2318 5.63264 72.9861 5.14278 72.2489C3.18334 69.3 2.20362 63.6479 2.93841 59.4703C3.91813 53.5725 5.63264 50.1321 8.81673 47.9204C10.7762 46.4459 14.94 44.9715 17.6342 44.9715C19.5936 44.9715 20.0835 44.48 19.3487 43.7428C18.6139 42.7598 19.1038 34.6503 20.0835 32.4386C21.798 28.7525 27.1865 24.8206 31.5952 24.3292H33.5546V22.1175C34.0445 18.1856 35.0242 15.9739 37.4735 13.5165C40.1677 10.8133 43.1069 9.58463 46.5359 9.58463C48.4954 9.58463 48.7403 9.58463 50.6997 7.61869C52.9041 5.16127 55.5983 4.1783 60.0071 3.44108C63.681 2.94959 65.3955 3.19534 68.5796 4.66979L71.0289 5.8985L72.9883 4.66979C75.6826 2.94959 79.8464 2.21237 83.7653 2.45811C89.3986 2.70385 94.7871 6.38998 96.9915 11.0591C97.9712 13.2708 98.2161 14.008 98.2161 17.9399C98.2161 23.1004 97.4813 24.8206 94.5422 27.0323C91.603 28.9983 89.3986 30.227 89.3986 29.4897C89.3986 28.5068 87.4392 26.5408 85.2348 25.3121C83.2754 24.3292 82.5406 24.3292 79.1116 24.0834C75.6826 24.0834 75.1927 24.0834 72.7434 25.3121C69.5593 26.7866 66.3752 29.7355 64.6607 32.6844C63.681 34.4046 63.4361 35.3876 63.4361 38.0907V41.2854H62.2114C60.7418 41.0396 58.2925 42.2683 56.823 43.9885C53.394 48.4119 52.9041 53.8182 55.5983 55.5384C56.823 56.2756 57.3128 56.0299 56.3331 55.0469C54.3737 53.081 55.8433 47.9204 59.2723 44.7257C60.7419 43.2513 61.2317 43.0056 62.4564 43.2513C63.9259 43.2513 64.1709 43.2513 64.4158 39.8109C64.9057 35.3876 68.0897 30.9642 72.7434 28.7525C76.4174 27.0323 79.1116 26.5408 82.2957 27.5238C84.5 28.261 87.1943 30.227 87.1943 31.2099C87.1943 31.9472 88.4189 32.6844 88.9088 32.4386C88.9088 32.4386 90.1334 31.9472 90.8682 31.7014C91.603 31.7014 93.3175 30.9642 94.2972 30.4727C95.5219 29.9812 96.5016 29.7355 96.7465 29.9812C96.7465 29.9812 97.2364 29.9812 97.4813 29.9812C97.7262 29.7355 98.9509 29.4897 100.42 29.7355C103.605 29.7355 105.809 31.4557 107.034 34.4046C108.013 36.3705 108.013 36.862 107.768 40.3024C107.768 42.7598 107.279 44.48 106.789 45.2172L106.054 46.4459H107.034C110.952 44.9715 112.177 44.7257 114.626 44.9715C116.831 44.9715 118.055 45.463 120.015 46.4459C122.464 47.6747 122.709 47.9204 123.934 50.3778C125.403 53.3267 125.648 56.0299 124.424 58.4873C123.689 59.9618 123.689 59.9618 124.424 59.9618C125.648 59.9618 127.118 56.7671 127.118 54.3097C127.118 47.6747 122.219 43.0056 115.361 42.7598C113.892 42.7598 111.932 42.7598 110.952 43.2513C110.218 43.497 109.483 43.7428 109.238 43.497C109.238 43.497 109.238 42.5141 109.238 41.7768C109.238 41.0396 109.483 38.8279 109.483 37.1077C109.483 34.6503 108.993 33.6674 108.258 32.1929C106.789 29.7355 104.094 28.0153 100.91 27.7695H98.461L99.1958 26.5408C101.155 23.8377 101.645 17.6941 100.665 13.2708C99.4408 8.35592 96.0117 4.42405 90.8682 1.96663C88.4189 0.737915 88.174 0.737915 83.2754 0.737915C79.1116 0.737915 77.642 0.737915 75.9275 1.47514L75.4376 0.737915Z" fill="black"/>
<path d="M78.8658 4.42303C75.9267 4.91451 72.0078 6.88045 72.0078 7.86341C72.0078 8.60064 72.0078 8.60064 72.9875 7.86341C74.702 6.14322 78.1311 5.16025 82.0499 5.16025C84.0094 5.16025 85.479 5.16025 85.479 4.91451C85.479 4.17728 82.2949 3.93154 78.8658 4.66877V4.42303Z" fill="black"/>
<path d="M58.7846 5.65239C55.1107 6.63536 49.2323 9.58427 49.9671 10.5672C49.9671 10.5672 50.7019 10.5672 51.1918 10.0758C52.4164 8.84704 56.0904 7.37259 58.7846 6.63536C61.7238 5.89814 66.1325 6.14388 67.6021 7.12685C68.3369 7.61833 68.5818 7.61833 68.3369 7.12685C67.847 5.65239 62.7035 4.91517 58.7846 5.89814V5.65239Z" fill="black"/>
<path d="M78.8689 6.39044C76.4196 7.12767 74.7051 8.11064 74.7051 8.84787C74.7051 9.33935 74.95 9.09361 76.1747 8.35638C78.624 6.63619 83.2776 5.89896 86.4617 6.63619C87.6864 6.88193 87.6864 6.63619 86.9516 6.39044C85.9718 5.65322 81.3182 5.65322 79.1138 6.39044H78.8689Z" fill="black"/>
<path d="M60.9872 7.37218C59.0277 7.86367 57.5581 8.35515 57.8031 8.60089C57.8031 8.60089 58.7828 8.60089 59.5176 8.60089C61.477 7.86367 63.1915 7.86367 65.8858 8.60089C67.3553 9.09238 68.3351 9.09238 68.0901 8.84664C67.8452 7.86367 62.7017 6.8807 60.9872 7.37218Z" fill="black"/>
<path d="M82.541 8.11064C82.541 8.11064 83.0309 8.60212 83.5207 8.60212C84.0106 8.60212 84.7454 8.84787 85.4802 9.09361C86.7048 9.83083 86.9498 9.83083 86.9498 9.09361C86.9498 8.60212 84.0106 7.37341 83.2758 7.37341C83.0309 7.37341 82.786 7.37341 82.786 7.8649L82.541 8.11064Z" fill="black"/>
<path d="M91.6033 8.84617C91.6033 8.84617 92.0932 9.82914 92.828 10.5664C94.2976 12.5323 95.2773 16.4642 95.0323 19.9046C95.0323 21.379 94.7874 23.0992 94.5425 23.5907C94.5425 23.5907 94.6241 23.5907 94.7874 23.5907C96.9918 20.8875 95.2773 11.0579 92.3381 9.09192C91.8483 8.84617 91.3584 8.60043 91.3584 8.84617H91.6033Z" fill="black"/>
<path d="M63.9278 10.568C63.9278 10.568 65.6423 11.0595 66.3771 11.551C67.8467 12.5339 68.0916 12.0425 66.622 11.0595C65.8872 10.568 65.1524 10.3223 64.1727 10.3223H62.7031L63.9278 10.568Z" fill="black"/>
<path d="M43.1091 12.5342C39.4351 13.7629 36.0061 16.7118 35.0264 19.1692C35.0264 19.6607 35.0264 20.3979 35.0264 20.3979C35.5162 20.8894 36.7409 18.9235 36.4959 18.1862C35.7612 16.9575 42.3743 12.7799 45.3134 12.2884C46.2931 12.2884 47.0279 11.797 47.0279 11.797C47.0279 11.3055 45.3134 11.3055 43.1091 12.2884V12.5342Z" fill="black"/>
<path d="M44.3329 14.2515C42.6184 14.743 40.4141 16.4632 40.4141 16.9547C40.4141 16.9547 41.1489 16.9547 42.3735 16.2175C43.3532 15.4803 44.8228 14.9888 45.8025 14.743C46.5373 14.743 47.2721 14.4973 47.2721 14.2515C47.2721 13.7601 46.0475 13.7601 44.5779 14.2515H44.3329Z" fill="black"/>
<path d="M92.3384 14.9917C93.3181 16.7118 93.0732 21.3809 92.3384 23.5926C91.6036 25.5586 91.8485 26.2958 92.8282 24.3298C93.808 22.3639 94.0529 17.2033 93.3181 15.2374C93.0732 14.5002 92.5833 13.7629 92.3384 13.7629C92.0934 13.7629 92.3384 14.2544 92.3384 14.9917Z" fill="black"/>
<path d="M46.292 15.7273C46.292 15.7273 46.292 16.2188 46.5369 16.2188C46.5369 16.2188 47.0268 16.2188 47.2717 15.7273C47.2717 15.7273 47.2717 15.2358 47.0268 15.2358C46.7819 15.2358 46.292 15.2358 46.292 15.7273Z" fill="black"/>
<path d="M90.1339 18.921C90.1339 20.8869 90.1339 23.0986 89.3991 24.5731C88.9093 25.8018 89.889 25.3103 90.3789 24.3273C91.1136 23.0986 91.1136 17.4465 90.3789 17.2008C90.1339 17.2008 89.889 17.4465 90.1339 18.921Z" fill="black"/>
<path d="M88.6662 19.1677C88.6662 19.1677 88.6662 20.8879 88.1764 22.1166C87.9314 23.591 87.6865 24.0825 88.1764 24.0825C88.9112 23.8368 89.8909 18.1847 89.1561 18.1847C89.1561 18.1847 88.6662 18.6762 88.6662 19.1677Z" fill="black"/>
<path d="M85.7243 21.3782C85.7243 21.3782 85.2344 22.8526 84.9895 23.0983C84.4996 23.3441 84.4996 24.0813 84.9895 24.0813C85.4793 24.0813 86.2141 21.8696 86.2141 20.8867C86.2141 20.1494 86.2141 20.1494 85.7243 21.3782Z" fill="black"/>
<path d="M65.3972 26.2942C64.1725 27.5229 62.9479 29.2431 62.458 30.7175C61.4783 33.175 60.9884 37.3526 61.4783 37.1068C61.4783 37.1068 61.9682 35.8781 62.2131 34.6494C62.458 31.7005 63.9276 28.5059 66.3769 26.2942C67.6016 25.0655 68.0914 24.3282 67.8465 24.3282C67.6016 24.3282 66.3769 25.3112 65.3972 26.5399V26.2942Z" fill="black"/>
<path d="M30.1277 27.278C26.9436 28.5067 25.474 29.244 23.2696 31.4556C20.5754 33.9131 19.5957 35.879 19.5957 38.3364V40.3023L19.8406 38.5822C20.3305 36.1247 21.0653 34.4045 23.2696 32.1929C25.2291 30.2269 29.8828 27.7695 31.5973 27.7695C32.0871 27.7695 32.577 27.7695 32.577 27.278C32.577 26.5408 31.8422 26.5408 29.6378 27.278H30.1277Z" fill="black"/>
<path d="M75.1943 28.7506C71.2755 30.225 67.8465 33.1739 66.1319 36.3686C65.1522 38.3345 64.9073 40.0547 65.6421 40.0547C65.6421 40.0547 66.1319 39.5632 66.1319 38.826C66.1319 37.3516 68.0914 33.9112 70.0508 32.191C71.0305 31.4537 72.745 30.225 73.9697 29.7336C75.9291 28.7506 76.6639 28.7506 79.848 28.7506C83.0321 28.7506 83.277 28.7506 82.5422 28.2591C81.3176 27.5219 77.6436 27.7676 75.1943 28.5048V28.7506Z" fill="black"/>
<path d="M28.9023 29.9796C26.6979 30.9625 24.9834 32.6827 24.9834 33.6657C24.9834 34.4029 24.9834 34.4029 25.7182 33.6657C26.9428 31.6998 31.8414 29.2423 33.0661 29.9796H33.5559C33.5559 29.2423 31.1066 29.4881 29.1472 30.471L28.9023 29.9796Z" fill="black"/>
<path d="M78.3787 29.4879C75.6845 30.2252 71.7656 33.1741 71.7656 34.157C71.7656 34.8943 72.2555 34.6485 73.2352 33.4198C74.7048 31.6996 78.6237 29.7337 80.828 29.7337C81.8077 29.7337 82.7875 29.7337 83.0324 30.2252C83.2773 30.4709 83.5223 30.4709 83.5223 30.2252C83.5223 28.9965 80.5831 28.7507 78.3787 29.2422V29.4879Z" fill="black"/>
<path d="M31.3516 31.2098C31.3516 31.2098 30.8617 31.7013 31.1067 31.7013C31.3516 31.947 32.5762 31.7013 32.5762 30.9641C32.5762 30.2268 32.0864 30.4726 31.3516 30.9641V31.2098Z" fill="black"/>
<path d="M79.112 31.7013C77.8874 31.947 76.1729 33.1757 76.1729 33.6672C76.1729 33.6672 76.6627 33.6672 77.1526 33.1757C78.3772 32.1928 80.5816 31.7013 81.8062 32.1928C82.2961 32.1928 82.786 32.1928 82.786 32.1928C82.786 31.4555 80.8265 30.964 78.8671 31.4555L79.112 31.7013Z" fill="black"/>
<path d="M93.8095 31.9468C91.3602 33.1755 89.8906 34.4042 89.8906 35.1414C89.8906 35.6329 89.8906 35.6329 91.1153 34.6499C94.7892 31.2096 99.9327 30.9638 102.872 33.9127C104.341 35.3872 104.831 35.1414 103.362 33.4212C101.647 31.2096 97.2385 30.4723 94.0544 31.9468H93.8095Z" fill="black"/>
<path d="M95.0313 34.6509C95.0313 34.6509 93.8066 35.6338 93.8066 35.8796C93.8066 36.3711 93.8066 36.3711 94.5414 35.8796C96.2559 34.4051 100.665 34.1594 101.889 35.3881C102.379 36.1253 103.114 36.1253 102.869 35.3881C102.379 33.9136 97.7255 33.4222 95.2762 34.6509H95.0313Z" fill="black"/>
<path d="M98.2168 37.1068C98.2168 37.1068 98.2168 38.0898 98.9516 37.5983C100.421 37.1068 101.891 38.5813 101.646 40.0557C101.646 40.0557 101.727 40.0557 101.891 40.0557C102.87 38.5813 101.646 36.6154 99.6864 36.6154C98.9516 36.6154 98.2168 36.6154 98.2168 36.8611V37.1068Z" fill="black"/>
<path d="M55.5993 41.285C52.4152 43.9881 50.4558 51.1147 51.9254 53.8178C52.1703 54.3093 52.9051 54.8008 53.15 54.8008C53.395 54.8008 53.15 54.555 52.9051 54.0636C52.4152 53.5721 52.1703 52.5891 52.1703 50.8689C52.1703 48.903 52.1703 47.92 53.6399 45.4626C55.3544 42.0222 56.824 40.7935 59.0283 40.7935C60.0081 40.7935 60.4979 40.7935 60.4979 40.5477C60.4979 40.5477 59.7631 40.302 58.7834 40.302C57.3138 40.302 56.824 40.302 55.5993 41.5307V41.285Z" fill="black"/>
<path d="M59.7638 45.7092C58.0493 47.4294 56.0898 50.3783 56.0898 51.8527C56.0898 52.8357 57.0696 54.3102 57.5594 54.0644C57.5594 54.0644 57.5594 53.5729 57.5594 53.3272C56.8246 52.59 57.0696 51.1155 58.0493 49.1496C59.029 47.4294 60.7435 45.4635 61.4783 45.2177C62.2131 45.2177 62.458 44.4805 61.9682 44.2347C61.9682 44.2347 60.7435 44.7262 60.0087 45.4635L59.7638 45.7092Z" fill="black"/>
<path d="M110.463 46.6921C108.014 47.4294 106.545 48.6581 106.3 49.3953C105.81 50.3783 106.3 50.3783 107.279 49.3953C109.239 46.6921 117.321 45.9549 119.771 47.9209C120.75 48.9038 120.75 48.9038 120.75 47.9209C120.506 45.9549 114.382 45.2177 110.708 46.4464L110.463 46.6921Z" fill="black"/>
<path d="M13.9619 47.6738C10.043 50.1312 6.85889 53.3259 5.14438 56.7663C3.91973 59.4694 3.6748 60.2067 3.6748 63.1556C3.6748 65.1215 3.6748 66.8417 3.91973 67.0874C4.65452 68.0704 4.65452 67.3332 4.40959 65.613C3.91973 63.4013 4.40959 59.9609 5.87917 56.7663C7.83861 52.8344 12.7372 48.6568 17.8807 46.4451L18.8605 45.9536H17.6358C17.6358 45.9536 15.4314 46.4451 13.9619 47.4281V47.6738Z" fill="black"/>
<path d="M60.4976 47.6751C59.2729 49.1495 58.2932 52.5899 59.2729 52.5899C59.2729 52.5899 59.7628 52.3442 59.7628 51.8527C59.7628 50.624 60.7425 48.1666 61.7222 47.6751C62.2121 47.1836 62.2121 47.1836 61.7222 47.1836C61.4773 47.1836 60.7425 47.1836 60.4976 47.6751Z" fill="black"/>
<path d="M15.9202 49.6385C13.226 51.1129 11.0216 53.0789 9.06217 55.5363C7.83752 57.0107 7.59259 58.4852 8.32738 58.4852C8.32738 58.4852 8.81724 58.2395 8.81724 57.748C8.81724 56.765 11.5115 53.5704 13.226 52.0959C13.9608 51.3587 15.9202 50.3757 17.3898 49.6385C18.8594 48.9013 19.8391 48.4098 19.8391 48.4098C19.8391 47.9183 18.1246 48.4098 15.9202 49.6385Z" fill="black"/>
<path d="M113.648 48.6577C112.423 49.1492 110.219 50.3779 110.219 50.6237C110.219 51.1152 110.219 51.1152 112.423 49.8865C114.872 48.6577 117.077 48.6577 118.791 49.8865C119.771 50.3779 120.016 50.6237 120.016 50.1322C119.526 48.6577 116.097 47.9205 113.648 48.6577Z" fill="black"/>
<path d="M16.6562 52.0965C14.4518 53.0794 12.7373 54.7996 12.7373 55.7826C12.7373 56.5198 13.4721 56.5198 13.717 55.7826C13.962 54.5539 16.4113 53.0795 18.6156 52.3422C19.8403 52.3422 20.5751 51.8507 20.5751 51.605C20.5751 51.1135 18.8606 51.3593 16.6562 52.3422V52.0965Z" fill="black"/>
<path d="M114.873 51.6044C114.873 51.6044 113.893 52.8332 114.873 52.3417C115.363 52.3417 116.098 51.8502 116.832 51.8502C117.567 51.8502 118.302 51.8502 118.792 52.3417C119.282 52.5874 119.527 52.5874 119.527 52.3417C119.527 51.3587 116.098 50.6215 114.628 51.6044H114.873Z" fill="black"/>
<path d="M119.035 53.8186C119.035 53.8186 119.035 54.3101 119.525 54.3101C119.525 54.3101 120.015 54.3101 120.015 53.8186C120.015 53.8186 120.015 53.3271 119.525 53.3271C119.525 53.3271 119.035 53.3271 119.035 53.8186Z" fill="black"/>
<path d="M52.9057 56.7671C52.9057 56.7671 51.4361 57.2586 50.9462 57.2586C50.4564 57.2586 49.9665 57.2586 49.9665 57.2586C49.9665 57.2586 49.9665 57.9958 49.7216 58.7331C49.2317 60.2075 49.7216 60.4533 50.4564 58.7331C50.4564 57.9958 51.1912 57.5044 51.4361 57.5044C51.681 57.5044 51.4361 57.9958 51.4361 58.4873C49.9665 61.1905 50.4564 63.4022 52.4158 63.8937C54.1303 64.1394 54.3753 63.8937 52.9057 63.1564C51.4361 62.6649 51.4361 61.682 52.4158 59.716C53.3955 57.7501 54.1303 57.0129 55.1101 57.0129C55.5999 57.0129 56.0898 57.0129 56.0898 56.5214C56.0898 56.5214 56.0898 56.0299 55.8448 56.0299C55.5999 56.0299 55.355 56.0299 54.8651 56.0299C54.6202 56.0299 53.8854 56.0299 53.3955 56.5214L52.9057 56.7671Z" fill="black"/>
<path d="M54.8647 58.7318C54.8647 58.7318 54.1299 60.6977 54.8647 60.6977C54.8647 60.6977 55.3545 60.6977 55.3545 60.2062C55.3545 60.2062 55.8444 59.2232 56.3342 58.7318C57.069 57.9945 57.069 57.7488 56.3342 57.7488C56.0893 57.7488 55.3545 58.2403 55.1096 58.7318H54.8647Z" fill="black"/>
<path d="M125.402 60.6971C125.402 60.6971 124.178 61.4343 124.178 61.68C124.178 62.1715 124.668 62.1715 125.402 61.68C126.382 60.9428 128.831 60.9428 129.811 61.68C130.546 62.1715 130.791 62.1715 130.791 61.68C130.791 60.4513 127.607 59.7141 125.402 60.6971Z" fill="black"/>
<path d="M62.7029 61.9282C61.4783 62.174 58.7841 63.4027 56.5797 64.3856C51.926 66.5973 48.2521 70.2835 46.2926 74.2153C45.068 76.9185 44.8231 78.8844 45.8028 79.1302C46.0477 79.1302 46.2926 79.1302 46.0477 78.1472C45.5578 76.1813 47.7622 72.2494 50.9463 69.3005C56.0898 64.3856 62.458 61.9282 69.316 62.4197C76.1741 62.6654 82.2973 65.3686 85.2365 69.3005C85.9713 70.2835 86.7061 70.7749 86.7061 70.5292C86.951 69.792 84.0118 66.3516 81.8075 65.1229C76.6639 61.9282 68.0914 60.6995 62.458 61.9282H62.7029Z" fill="black"/>
<path d="M128.589 63.6459C130.794 64.3831 130.794 64.3831 130.059 63.6459C129.814 63.4002 128.834 63.1544 128.099 63.1544H126.63L128.344 63.6459H128.589Z" fill="black"/>
<path d="M67.8455 64.3856C63.6817 65.3686 61.2324 66.5973 61.2324 67.826C61.2324 68.809 61.7223 68.5633 62.2121 67.5803C63.4368 65.1229 72.2543 64.1399 78.1326 66.1058C79.8471 66.5973 81.8065 67.3346 82.5413 68.0718C84.2558 69.3005 84.5008 68.5633 83.0312 67.5803C79.6022 65.3686 71.5195 63.6484 67.6006 64.6314L67.8455 64.3856Z" fill="black"/>
<path d="M20.0858 65.8592C17.8814 67.3336 15.6771 69.5453 15.922 69.7911C15.922 69.7911 16.6568 69.5453 17.3916 68.8081C18.1264 68.0709 19.351 67.0879 20.3307 66.3507C21.3105 65.6134 22.0453 65.122 22.0453 64.8762C22.0453 64.3847 22.0453 64.3847 19.8409 65.8592H20.0858Z" fill="black"/>
<path d="M22.7778 67.0871C19.5937 68.8073 18.1241 70.036 18.369 70.2818C18.369 70.2818 24.7372 66.8414 25.9618 65.8584C27.4314 64.6297 25.9618 65.367 22.7778 67.0871Z" fill="black"/>
<path d="M14.9424 67.0862C14.9424 67.0862 13.7178 67.5777 13.7178 67.8234C13.7178 68.3149 13.7178 68.3149 15.4323 67.8234C17.6367 66.8405 17.1468 66.349 14.6975 67.3319L14.9424 67.0862Z" fill="black"/>
<path d="M76.1739 68.071C74.4594 68.5625 74.7043 69.054 76.4188 68.8083C78.8681 68.5625 81.8073 69.2998 84.2565 71.02C85.9711 72.2487 86.4609 72.0029 84.9913 70.7742C83.0319 69.054 78.3782 67.5796 76.1739 68.3168V68.071Z" fill="black"/>
<path d="M135.69 74.2132C135.69 74.2132 133.485 75.442 133.485 75.6877C133.485 76.1792 133.485 76.1792 135.69 74.9505C136.669 74.459 138.139 73.9675 139.119 73.7218C140.098 73.7218 140.588 73.7218 140.588 73.476C140.588 72.7388 137.404 73.476 135.69 74.2132Z" fill="black"/>
<path d="M83.7666 74.7061C83.7666 74.7061 85.2362 75.4433 84.7463 74.7061C84.5014 74.4603 84.0116 74.2146 83.5217 74.2146C83.0318 74.2146 83.0318 74.2146 83.5217 74.7061H83.7666Z" fill="black"/>
<path d="M138.875 75.1966L137.896 75.6881C137.896 75.6881 138.875 75.6881 140.1 75.6881C142.304 75.6881 142.794 75.4424 141.325 74.9509C140.1 74.7052 139.855 74.7052 138.875 74.9509V75.1966Z" fill="black"/>
<path d="M7.83737 77.4094C6.85765 78.6381 6.12286 80.604 5.87793 84.0444C5.87793 86.7476 5.87793 89.6965 6.61272 89.205C6.61272 89.205 6.61272 88.222 6.61272 87.4848C5.87793 84.5359 7.83737 77.1636 9.06202 77.1636C9.06202 77.1636 9.55188 77.1636 9.55188 76.6721C9.55188 75.9349 8.81709 76.1807 8.0823 77.4094H7.83737Z" fill="black"/>
<path d="M9.55182 80.3567C7.10253 83.5513 6.8576 88.2204 8.81703 90.1863C9.30689 90.6778 10.0417 91.1693 10.0417 90.9236C10.0417 90.9236 10.0417 90.1863 9.30689 89.6949C8.5721 88.9576 8.32717 88.2204 8.32717 86.7459C8.32717 84.2885 9.30689 81.5854 10.5315 80.1109C11.0214 79.6194 11.2663 78.8822 11.0214 78.8822C10.7765 78.8822 10.0417 79.3737 9.55182 80.1109V80.3567Z" fill="black"/>
<path d="M10.7761 84.5361C10.0413 86.502 9.79635 88.9594 10.7761 89.4509C11.2659 89.9424 11.2659 89.4509 10.7761 88.4679C10.7761 87.7307 10.7761 86.2563 11.021 85.0276C11.7558 82.5701 11.5109 82.0787 10.7761 84.2903V84.5361Z" fill="black"/>
<path d="M111.932 86.0093C111.932 86.0093 111.932 86.255 112.421 86.0093C112.421 86.0093 112.911 85.7636 112.911 85.5178C112.911 85.5178 112.911 85.5178 112.421 85.5178C112.421 85.5178 111.932 85.5178 111.932 86.0093Z" fill="black"/>
<path d="M105.566 87.7311C105.566 87.7311 106.056 88.2225 109.24 88.2225C111.2 88.2225 112.914 87.9768 113.159 87.4853C113.649 86.9938 113.649 86.9938 110.465 87.4853C108.995 87.4853 107.526 87.4853 106.791 87.4853C105.811 87.2396 105.566 87.2396 105.566 87.4853V87.7311Z" fill="black"/>
<path d="M118.057 88.2201C118.057 88.2201 117.568 88.9573 118.792 88.2201C119.282 88.2201 119.282 87.7286 119.037 87.7286C119.037 87.7286 118.302 87.7286 117.812 87.9744L118.057 88.2201Z" fill="black"/>
<path d="M28.168 88.7121C28.168 88.7121 29.1477 89.2036 30.6173 89.2036C32.0868 89.2036 33.0666 89.2035 33.0666 88.7121C33.0666 88.2206 32.0868 88.2206 30.6173 88.2206C29.1477 88.2206 28.168 88.2206 28.168 88.7121Z" fill="black"/>
<path d="M82.0519 88.7119C82.0519 88.7119 80.8272 88.9576 80.0924 88.9576C78.8678 88.9576 78.6229 89.6949 79.6026 89.6949C80.5823 89.6949 83.2765 88.9576 83.2765 88.4661C83.2765 87.9747 83.0316 87.9747 81.8069 88.4661L82.0519 88.7119Z" fill="black"/>
<path d="M114.138 88.9596C111.444 90.1883 103.851 89.9426 100.912 88.9596C100.422 88.9596 100.177 88.9596 100.177 88.9596C100.177 90.1883 107.035 90.9255 112.179 90.1883C114.138 89.9426 114.138 89.9426 113.158 90.434C111.444 91.417 106.3 92.6457 104.341 92.6457C100.422 92.6457 96.0133 91.1713 94.0539 89.4511C93.0742 88.4681 92.3394 88.7139 93.3191 89.9426C94.2988 91.1713 98.2177 92.6457 100.912 93.1372C104.831 93.8744 110.219 93.1372 114.138 90.6798C116.098 89.6968 116.098 89.4511 115.608 88.7138C115.608 88.4681 114.873 88.4681 113.893 88.7138L114.138 88.9596Z" fill="black"/>
<path d="M132.508 89.451C132.508 89.451 133.243 90.4339 133.977 91.1712C136.182 93.3828 144.02 95.3488 147.204 94.6115C149.163 94.1201 148.673 93.6286 146.469 93.8743C144.264 93.8743 139.366 93.1371 136.672 91.9084C135.692 91.4169 134.467 90.6797 133.977 89.9424C132.753 88.7137 132.508 88.468 132.508 89.2052V89.451Z" fill="black"/>
<path d="M34.292 90.1879C32.3325 90.9251 25.7194 91.1709 24.0049 90.6794C23.2701 90.6794 22.7803 90.6794 22.7803 90.6794C22.7803 91.4166 27.189 91.9081 29.6383 91.6623C32.5775 91.4166 36.7413 90.1879 36.7413 89.9422C36.7413 89.6964 36.7413 89.4507 34.292 90.1879Z" fill="black"/>
<path d="M118.789 89.6953C118.789 89.6953 118.055 89.941 118.055 90.1867C118.055 90.6782 119.524 90.1867 120.259 89.6953C120.504 89.4495 120.259 89.2038 118.789 89.6953Z" fill="black"/>
<path d="M137.16 89.941C137.16 91.1697 142.059 93.1357 144.998 93.1357C147.202 93.1357 147.202 92.6442 144.998 92.3984C142.548 92.3984 139.119 91.1697 138.14 90.1868C137.16 89.2038 136.915 89.2038 136.915 89.6953L137.16 89.941Z" fill="black"/>
<path d="M83.5213 90.9254C81.3169 91.9083 74.9487 92.3998 74.4589 91.6626C74.4589 91.4168 73.969 91.4168 73.969 91.6626C72.9893 93.137 80.3372 93.3828 83.7662 91.6626C84.7459 91.1711 85.7256 90.6796 85.7256 90.4339V89.9424C85.7256 89.9424 84.7459 90.4339 83.7662 90.9254H83.5213Z" fill="black"/>
<path d="M53.3939 91.1693C53.3939 91.1693 54.3737 91.6608 55.3534 91.9065C56.3331 91.9065 56.823 91.9065 56.823 91.9065C56.823 91.9065 56.0882 91.6608 55.5983 91.6608C55.1084 91.6608 54.3737 91.6608 53.8838 91.1693C53.3939 91.1693 53.149 91.1693 53.3939 91.1693Z" fill="black"/>
<path d="M85.4793 92.1525C82.0503 95.5929 70.5386 95.8386 68.3342 92.644C68.0893 92.1525 67.5994 91.9068 67.3545 92.1525C66.8646 92.644 69.5588 94.6099 71.2734 95.1014C73.7227 95.8386 78.8662 95.5929 81.8053 94.8557C84.2546 94.1184 86.9489 92.3983 86.9489 91.661C86.9489 91.1695 86.459 91.4153 85.4793 92.3983V92.1525Z" fill="black"/>
<path d="M57.5579 92.6446C57.5579 92.6446 55.5985 93.3819 54.1289 93.6276C51.9246 93.8733 51.4347 93.8733 50.455 93.6276C49.2303 92.8904 48.4955 93.6276 49.7202 94.1191C51.6796 95.102 59.2725 93.8733 59.2725 92.3989C59.2725 91.9074 58.7826 91.9074 57.8029 92.3989L57.5579 92.6446Z" fill="black"/>
<path d="M42.6172 94.1185C42.6172 94.1185 45.0665 96.576 47.2709 97.0675C48.9854 97.3132 50.21 97.3132 52.6593 97.0675C56.5782 96.576 60.742 94.3643 60.0072 93.6271C60.0072 93.6271 59.2724 93.6271 58.7826 94.1185C57.068 95.593 54.1289 96.3302 50.4549 96.3302C46.781 96.3302 44.0868 95.3473 43.5969 94.1185C43.5969 93.3813 42.6172 93.1356 42.6172 94.1185Z" fill="black"/>
</g>
<defs>
<clipPath id="clip0_92_3043">
<rect width="157" height="101" fill="white"/>
</clipPath>
</defs>
</svg>
